<svg width="157" height="155" viewBox="0 0 157 155" fill="none" xmlns="http://www.w3.org/2000/svg">
<path d="M81.0384 145.107C119.435 145.107 150.561 113.981 150.561 75.5848C150.561 37.1887 119.435 6.0625 81.0384 6.0625C42.6423 6.0625 11.5161 37.1887 11.5161 75.5848C11.5161 113.981 42.6423 145.107 81.0384 145.107Z" fill="url(#paint0_linear_107_11212)"/>
<path fill-rule="evenodd" clip-rule="evenodd" d="M141.468 109.855H134.312H134.302H106.62C106.434 109.855 106.264 109.956 106.174 110.115C106.111 110.181 106.072 110.27 106.072 110.368V124.2C106.032 124.297 105.992 124.395 105.953 124.495C105.876 124.693 105.929 124.91 106.072 125.049V132.073C106.032 132.169 105.993 132.266 105.954 132.364C105.875 132.563 105.929 132.781 106.072 132.921V137.544C106.056 137.566 106.039 137.588 106.022 137.61C105.864 137.818 105.889 138.109 106.072 138.288V144.496C106.072 144.699 106.237 144.863 106.439 144.863C106.642 144.863 106.806 144.699 106.806 144.496V138.269C106.817 138.257 106.828 138.245 106.838 138.231C111.543 132.055 116.731 130.529 120.719 130.513C122.725 130.505 124.442 130.879 125.657 131.255C126.264 131.443 126.743 131.631 127.069 131.771C127.232 131.841 127.356 131.899 127.438 131.939C127.458 131.948 127.475 131.957 127.49 131.964L131.914 136.387C132.114 136.588 132.439 136.588 132.639 136.387C132.839 136.187 132.839 135.863 132.639 135.662L128.216 131.239L128.192 131.19C128.154 131.11 128.097 130.988 128.03 130.828C127.894 130.507 127.711 130.035 127.53 129.437C127.166 128.241 126.809 126.549 126.834 124.567C126.884 120.655 128.419 115.559 134.481 110.881H141.468C141.752 110.881 141.981 110.651 141.981 110.368C141.981 110.085 141.752 109.855 141.468 109.855ZM125.734 130.207L120.743 125.216C120.673 125.204 120.581 125.19 120.467 125.174C120.183 125.134 119.77 125.088 119.26 125.062C118.238 125.011 116.839 125.044 115.323 125.38C112.308 126.048 108.827 127.907 106.907 132.743C106.883 132.804 106.848 132.857 106.806 132.902V136.627C111.508 130.996 116.651 129.504 120.715 129.487C122.727 129.479 124.461 129.832 125.734 130.207ZM121.41 124.433C121.381 124.396 121.348 124.362 121.31 124.333L121.167 124.19L121.161 124.154C121.115 123.882 121.06 123.486 121.024 122.996C120.952 122.015 120.956 120.667 121.26 119.197C121.86 116.295 123.626 112.898 128.366 110.881H132.851C127.356 115.538 125.859 120.573 125.809 124.554C125.784 126.539 126.118 128.248 126.48 129.503L121.41 124.433ZM120.256 118.99C119.933 120.55 119.924 121.976 119.998 123.021L116.338 119.362L116.276 119.299C116.268 119.265 116.259 119.224 116.25 119.177C116.216 119.01 116.175 118.766 116.146 118.462C116.087 117.853 116.078 117.018 116.274 116.106C116.656 114.33 117.822 112.209 121.084 110.906L121.148 110.881H126.091C122.368 113.086 120.824 116.239 120.256 118.99ZM119.58 124.053C119.493 124.048 119.404 124.042 119.311 124.038C118.224 123.983 116.729 124.018 115.101 124.379C112.236 125.013 108.966 126.659 106.806 130.555V125.031C106.849 124.985 106.884 124.93 106.908 124.868C108.208 121.538 110.4 120.365 112.249 119.992C113.188 119.803 114.05 119.819 114.679 119.883C114.993 119.915 115.246 119.959 115.419 119.994C115.469 120.005 115.513 120.014 115.549 120.023L119.58 124.053ZM112.047 118.987C110.271 119.344 108.263 120.348 106.806 122.75V111.28L114.356 118.829C113.71 118.793 112.91 118.813 112.047 118.987ZM118.866 110.881H107.858L115.093 118.117C115.064 117.492 115.093 116.721 115.272 115.891C115.634 114.205 116.606 112.306 118.866 110.881Z" fill="url(#paint1_linear_107_11212)"/>
<path fill-rule="evenodd" clip-rule="evenodd" d="M81.1484 13.8152C80.801 13.6718 80.4289 13.5984 80.0531 13.5991L80.05 13.5991C79.2914 13.5997 78.564 13.9014 78.0276 14.4378C77.4915 14.9739 77.1899 15.7007 77.1889 16.4589V20.0589H70.0742L70.0742 16.4541C70.0765 13.8106 71.1276 11.2761 72.9968 9.40696C74.8656 7.53812 77.3995 6.48705 80.0424 6.48439L80.0439 6.48439C81.3539 6.48252 82.6515 6.73879 83.8625 7.23856C85.0745 7.73872 86.1759 8.47295 87.1038 9.39923C88.0317 10.3255 88.7678 11.4257 89.27 12.6367C89.7723 13.8478 90.0308 15.146 90.0308 16.4571V19.9257H82.9161V16.4571C82.9161 16.0814 82.8421 15.7093 82.6981 15.3622C82.5542 15.0152 82.3432 14.6999 82.0773 14.4344C81.8114 14.169 81.4957 13.9585 81.1484 13.8152ZM80.0439 6.48439L80.0424 6.48439L80.0439 6.48439Z" fill="url(#paint2_linear_107_11212)"/>
<path d="M80.4853 136.317C95.231 136.317 107.185 124.363 107.185 109.617C107.185 94.8717 95.231 82.918 80.4853 82.918C65.7396 82.918 53.7859 94.8717 53.7859 109.617C53.7859 124.363 65.7396 136.317 80.4853 136.317Z" fill="url(#paint3_linear_107_11212)"/>
<path d="M122.613 80.1816V59.6978C122.613 48.5249 118.174 37.8096 110.274 29.9092C102.373 22.0087 91.658 17.5703 80.4851 17.5703C69.3122 17.5703 58.5969 22.0087 50.6964 29.9092C42.796 37.8096 38.3576 48.5249 38.3576 59.6978V80.1816C38.358 84.8876 37.0268 89.4977 34.5176 93.4789C32.0084 97.4602 28.4238 100.65 24.1782 102.68C23.2023 103.145 22.3786 103.877 21.8028 104.792C21.2271 105.706 20.923 106.766 20.926 107.847V107.958C20.9253 108.348 21.0016 108.735 21.1505 109.096C21.2993 109.457 21.5179 109.784 21.7937 110.061C22.0695 110.337 22.397 110.556 22.7576 110.706C23.1182 110.855 23.5047 110.932 23.8951 110.932H137.069C137.46 110.932 137.846 110.855 138.207 110.706C138.568 110.556 138.895 110.337 139.171 110.061C139.447 109.784 139.665 109.457 139.814 109.096C139.963 108.735 140.039 108.348 140.039 107.958V107.847C140.039 106.769 139.734 105.714 139.16 104.802C138.585 103.891 137.764 103.161 136.792 102.697C132.544 100.666 128.957 97.4731 126.448 93.4886C123.939 89.5041 122.609 84.8905 122.613 80.1816Z" fill="url(#paint4_linear_107_11212)"/>
<path fill-rule="evenodd" clip-rule="evenodd" d="M64.2309 63.5818L64.2348 63.5857L79.3781 78.7314C79.4373 78.7723 79.4874 78.8229 79.5269 78.8802L99.1106 98.467C99.3394 98.6959 99.3394 99.0669 99.1105 99.2958C98.8817 99.5246 98.5106 99.5246 98.2818 99.2957L88.7408 89.7532C80.9546 87.9501 74.8589 89.9485 70.6941 92.4053C68.5942 93.644 66.9853 94.9997 65.9028 96.0444C65.3619 96.5663 64.9535 97.0097 64.6819 97.3204C64.5618 97.4577 64.4686 97.5691 64.4025 97.6497V99.0645C64.4025 99.3881 64.1402 99.6505 63.8165 99.6505C63.4929 99.6505 63.2306 99.3881 63.2306 99.0645V97.6495C63.1645 97.5689 63.0713 97.4576 62.9514 97.3204C62.6798 97.0097 62.2713 96.5664 61.7303 96.0444C60.6478 94.9998 59.0387 93.644 56.9385 92.4053C52.7743 89.9493 46.6796 87.9513 38.8939 89.7516L29.257 99.39C29.0281 99.6189 28.6571 99.6189 28.4283 99.3901C28.1994 99.1613 28.1994 98.7903 28.4282 98.5614L38.1442 88.8438C38.1664 88.8173 38.1911 88.7926 38.2179 88.7702L48.1071 78.8794C48.1463 78.8227 48.1959 78.7725 48.2545 78.732L53.5502 73.4354C53.5654 73.4182 53.5818 73.4019 53.5991 73.3864L63.3974 63.5867C63.4138 63.5699 63.4312 63.554 63.4497 63.5392C63.5342 63.4712 63.6332 63.4301 63.7352 63.4158C63.7744 63.4103 63.8139 63.4089 63.8531 63.4113C63.9906 63.4198 64.1258 63.4767 64.2309 63.5818ZM40.3857 88.2596C47.6911 87.0366 53.4864 89.0087 57.5339 91.3959C59.7291 92.6906 61.4103 94.1069 62.5441 95.201C62.8009 95.4488 63.0299 95.6803 63.2306 95.8903V90.6916C63.2033 90.6299 63.1614 90.5393 63.1034 90.4241C62.9814 90.1818 62.7883 89.8317 62.5095 89.4147C61.9518 88.5806 61.0531 87.4817 59.6968 86.4421C57.0227 84.3925 52.5079 82.5262 45.1686 83.4758L40.3857 88.2596ZM82.4645 83.4758L87.2484 88.2605C79.9426 87.0356 74.1465 89.0081 70.0986 91.3959C67.9038 92.6906 66.2227 94.1069 65.089 95.201C64.8322 95.4489 64.6032 95.6804 64.4025 95.8904V90.6919C64.4298 90.6302 64.4717 90.5394 64.5298 90.4241C64.6518 90.1818 64.8449 89.8317 65.1237 89.4147C65.6815 88.5806 66.5802 87.4817 67.9364 86.4421C70.6105 84.3925 75.1253 82.5263 82.4645 83.4758ZM46.4884 82.1559C53.2681 81.5833 57.6642 83.4075 60.4098 85.512C61.697 86.4986 62.6095 87.5377 63.2306 88.3989V83.8373C63.194 83.7867 63.1472 83.7233 63.0903 83.6488C62.9269 83.4348 62.6806 83.13 62.355 82.7752C61.7026 82.0642 60.7385 81.1603 59.4909 80.3823C57.0357 78.8513 53.474 77.7968 48.9452 79.6986L46.4884 82.1559ZM63.2306 76.7247V81.9959L63.2185 81.9827C62.5149 81.2161 61.471 80.2359 60.111 79.3878C57.8313 77.9663 54.6695 76.924 50.7841 77.8594L54.3254 74.3176C57.4201 73.0034 59.6375 73.6535 61.0902 74.5923C61.8381 75.0757 62.3967 75.6456 62.7687 76.0964C62.9541 76.3211 63.0913 76.5141 63.1808 76.6485C63.1995 76.6766 63.2161 76.702 63.2306 76.7247ZM56.0893 72.5535C58.4843 72.1044 60.3662 72.729 61.7263 73.608C62.3388 74.0038 62.8391 74.4466 63.2306 74.8542V65.4111L56.0893 72.5535ZM81.1448 82.1559L78.6877 79.6985C74.1591 77.7968 70.5976 78.8514 68.1425 80.3823C66.8949 81.1603 65.9308 82.0642 65.2784 82.7752C64.9528 83.13 64.7065 83.4348 64.543 83.6488C64.486 83.7235 64.4391 83.787 64.4025 83.8377V88.399C65.0236 87.5378 65.9362 86.4986 67.2234 85.512C69.969 83.4075 74.3651 81.5834 81.1448 82.1559ZM64.4149 81.9827L64.4025 81.9962V76.7248C64.4171 76.702 64.4337 76.6764 64.4525 76.6481C64.5419 76.5138 64.6789 76.3208 64.864 76.0961C65.2354 75.6453 65.7934 75.0755 66.5406 74.5922C67.9932 73.6526 70.2121 73.002 73.3117 74.3216L76.8489 77.8594C72.9637 76.9241 69.802 77.9663 67.5224 79.3878C66.1623 80.2359 65.1185 81.2161 64.4149 81.9827ZM71.545 72.5546L64.4025 65.411V74.853C64.7934 74.4457 65.2928 74.0035 65.9041 73.6081C67.2644 72.7282 69.1474 72.1033 71.545 72.5546Z" fill="url(#paint5_linear_107_11212)"/>
<path fill-rule="evenodd" clip-rule="evenodd" d="M103.482 63.0109V0H104.192V63.0109H103.482Z" fill="#FF607B"/>
<path fill-rule="evenodd" clip-rule="evenodd" d="M97.6234 58.8841C97.8941 58.778 98.1996 58.9114 98.3057 59.182L98.9441 60.8096L101.067 61.5436C101.661 60.2364 102.68 59.3743 103.837 59.3743C104.995 59.3743 106.015 60.2386 106.609 61.5487L108.747 60.8096L109.385 59.182C109.491 58.9114 109.797 58.778 110.067 58.8841C110.338 58.9903 110.472 59.2958 110.365 59.5665L109.638 61.4201C109.582 61.5635 109.466 61.6751 109.32 61.7255L106.954 62.5435C107.036 62.8703 107.095 63.2137 107.127 63.5693L109.118 63.1152C109.322 63.0686 109.535 63.1345 109.677 63.2879L111.392 65.1359C111.612 65.3732 111.599 65.7439 111.361 65.9641C111.124 66.1842 110.753 66.1704 110.533 65.9331L109.048 64.333L107.133 64.7699C107.108 65.0892 107.061 65.3991 106.995 65.6963L108.407 65.3743C108.627 65.3241 108.857 65.4048 108.997 65.5818L110.412 67.3688C110.613 67.6225 110.57 67.991 110.317 68.192C110.063 68.3929 109.694 68.3501 109.493 68.0964L108.308 66.5991L106.546 67.0009C106.39 67.322 106.207 67.614 106.003 67.8705C106.12 68.1575 106.185 68.4727 106.185 68.8034C106.185 70.1366 105.133 71.2175 103.837 71.2175C102.541 71.2175 101.489 70.1366 101.489 68.8034C101.489 68.4728 101.554 68.1577 101.671 67.8707C101.466 67.613 101.283 67.3194 101.126 66.9965L99.3832 66.5991L98.1974 68.0964C97.9965 68.3501 97.628 68.3929 97.3743 68.192C97.1205 67.991 97.0778 67.6225 97.2787 67.3688L98.6938 65.5818C98.834 65.4048 99.0634 65.3241 99.2835 65.3743L100.678 65.6922C100.612 65.395 100.565 65.0852 100.54 64.7659L98.6422 64.333L97.1574 65.9331C96.9372 66.1704 96.5665 66.1842 96.3292 65.9641C96.092 65.7439 96.0782 65.3732 96.2983 65.1359L98.0131 63.2879C98.1555 63.1345 98.3689 63.0686 98.573 63.1152L100.547 63.5655C100.58 63.2093 100.639 62.8654 100.722 62.5381L98.3706 61.7255C98.225 61.6751 98.1088 61.5635 98.0525 61.4201L97.3255 59.5665C97.2193 59.2958 97.3527 58.9903 97.6234 58.8841Z" fill="url(#paint6_linear_107_11212)"/>
<path d="M156.127 53.9091C156.159 53.8523 156.178 53.7894 156.184 53.7247C156.189 53.6599 156.181 53.5948 156.159 53.5334C156.138 53.4721 156.104 53.416 156.059 53.3689C156.014 53.3217 155.96 53.2845 155.9 53.2598C154.146 52.5606 147.942 50.485 144.551 54.6694C142.282 57.4196 139.075 59.2325 135.549 59.7585C135.461 59.7704 135.378 59.8088 135.311 59.8687C135.245 59.9287 135.198 60.0073 135.177 60.0943C135.156 60.1814 135.161 60.2727 135.193 60.3564C135.225 60.44 135.282 60.5121 135.355 60.5632C138.352 62.6887 148.252 68.1052 156.127 53.9091Z" fill="url(#paint7_linear_107_11212)"/>
<path d="M24.7034 83.2588C24.7284 83.213 24.7436 83.1626 24.7478 83.1106C24.7521 83.0586 24.7453 83.0064 24.7281 82.9572C24.7108 82.908 24.6834 82.863 24.6476 82.825C24.6118 82.7871 24.5684 82.7572 24.5203 82.7371C23.1162 82.1822 18.1271 80.5173 15.4022 83.8471C13.5839 86.0534 11.0145 87.51 8.18762 87.9372C8.11664 87.9467 8.05019 87.9774 7.997 88.0254C7.94381 88.0733 7.90636 88.1362 7.88955 88.2058C7.87275 88.2755 7.87738 88.3485 7.90284 88.4155C7.9283 88.4824 7.9734 88.5401 8.03222 88.5809C10.4241 90.3124 18.3768 94.6633 24.7034 83.2588Z" fill="url(#paint8_linear_107_11212)"/>
<path d="M142.476 76.9623C142.455 76.9243 142.442 76.8821 142.439 76.8387C142.435 76.7952 142.441 76.7516 142.456 76.7106C142.47 76.6696 142.494 76.6322 142.524 76.6009C142.554 76.5697 142.591 76.5453 142.632 76.5294C143.808 76.0577 147.976 74.6647 150.251 77.4729C151.777 79.3202 153.931 80.5379 156.301 80.8915C156.363 80.8972 156.423 80.9227 156.47 80.9642C156.518 81.0057 156.551 81.0612 156.565 81.1227C156.58 81.1843 156.574 81.2487 156.549 81.3068C156.525 81.3649 156.482 81.4138 156.428 81.4464C154.419 82.8838 147.765 86.5188 142.476 76.9623Z" fill="url(#paint9_linear_107_11212)"/>
<path d="M0.0619608 58.9524C0.027708 58.8889 0.00712837 58.819 0.00154814 58.7471C-0.00403208 58.6752 0.00551094 58.603 0.0295622 58.535C0.0536134 58.467 0.0916392 58.4049 0.141189 58.3525C0.190738 58.3001 0.250712 58.2587 0.317245 58.2309C2.25963 57.4595 9.13567 55.1619 12.8928 59.7904C15.4095 62.842 18.9691 64.8512 22.8822 65.4288C22.98 65.4433 23.0713 65.4867 23.1442 65.5536C23.217 65.6205 23.2681 65.7077 23.2909 65.804C23.3136 65.9003 23.3069 66.0012 23.2716 66.0936C23.2364 66.186 23.1742 66.2657 23.0931 66.3223C19.7577 68.6754 8.78604 74.6801 0.0619608 58.9524Z" fill="url(#paint10_linear_107_11212)"/>
<path d="M23.694 42.0439C23.3792 40.8092 24.5191 39.6967 25.7458 40.0414L28.5902 40.8407C29.8169 41.1855 30.2104 42.7288 29.2986 43.6188L27.1841 45.6826C26.2722 46.5725 24.7388 46.1417 24.424 44.9069L23.694 42.0439Z" fill="#FFBEBD"/>
<path d="M137.999 19.5143C138.488 17.4874 141.371 17.4874 141.861 19.5143L141.986 20.0339C142.161 20.7582 142.727 21.3238 143.451 21.4986L143.971 21.6241C145.997 22.1134 145.997 24.9965 143.971 25.4857L143.451 25.6112C142.727 25.786 142.161 26.3516 141.986 27.0759L141.861 27.5955C141.371 29.6225 138.488 29.6225 137.999 27.5955L137.874 27.0759C137.699 26.3516 137.133 25.786 136.409 25.6112L135.889 25.4857C133.862 24.9965 133.862 22.1134 135.889 21.6241L136.409 21.4986C137.133 21.3238 137.699 20.7582 137.874 20.0339L137.999 19.5143Z" fill="#FFBEBD"/>
<path d="M51.9305 138.921C52.4198 136.894 55.3028 136.894 55.7921 138.921L55.9176 139.44C56.0924 140.164 56.658 140.73 57.3823 140.905L57.9019 141.03C59.9289 141.52 59.9289 144.403 57.9019 144.892L57.3823 145.017C56.658 145.192 56.0924 145.758 55.9176 146.482L55.7921 147.002C55.3028 149.029 52.4198 149.029 51.9305 147.002L51.805 146.482C51.6302 145.758 51.0646 145.192 50.3403 145.017L49.8207 144.892C47.7938 144.403 47.7937 141.52 49.8207 141.03L50.3403 140.905C51.0646 140.73 51.6302 140.164 51.805 139.44L51.9305 138.921Z" fill="#FFBEBD"/>
<path d="M36.0874 129.586C36.0874 130.839 35.0711 131.856 33.8174 131.856C32.5637 131.856 31.5473 130.839 31.5473 129.586C31.5473 128.332 32.5637 127.316 33.8174 127.316C35.0711 127.316 36.0874 128.332 36.0874 129.586Z" stroke="#FFBEBD" stroke-width="2.48287"/>
<circle cx="38.06" cy="21.0896" r="2.27002" stroke="#FC9999" stroke-width="2.48287"/>
<circle cx="147.768" cy="124.129" r="2.27002" stroke="#FC9999" stroke-width="2.48287"/>
<defs>
<linearGradient id="paint0_linear_107_11212" x1="80.5025" y1="-16.5757" x2="81.9267" y2="227.576" gradientUnits="userSpaceOnUse">
<stop stop-color="#FFE1E1" stop-opacity="0"/>
<stop offset="1" stop-color="#FFE1E0"/>
</linearGradient>
<linearGradient id="paint1_linear_107_11212" x1="98.3522" y1="115.616" x2="156.751" y2="122.327" gradientUnits="userSpaceOnUse">
<stop offset="0.0844027" stop-color="#FFBEBD"/>
<stop offset="1" stop-color="#FFF6F5"/>
</linearGradient>
<linearGradient id="paint2_linear_107_11212" x1="94.8861" y1="20.758" x2="84.9154" y2="2.54448" gradientUnits="userSpaceOnUse">
<stop stop-color="#FF9999"/>
<stop offset="1" stop-color="#FFE7DA"/>
</linearGradient>
<linearGradient id="paint3_linear_107_11212" x1="125.466" y1="154.256" x2="43.3573" y2="65.5413" gradientUnits="userSpaceOnUse">
<stop stop-color="#FFDEAC"/>
<stop offset="0.70369" stop-color="#FF426F"/>
</linearGradient>
<linearGradient id="paint4_linear_107_11212" x1="96.9786" y1="103.342" x2="71.249" y2="27.697" gradientUnits="userSpaceOnUse">
<stop stop-color="#FF9999"/>
<stop offset="1" stop-color="#FFE7DA"/>
</linearGradient>
<linearGradient id="paint5_linear_107_11212" x1="139.145" y1="146.38" x2="68.121" y2="50.3574" gradientUnits="userSpaceOnUse">
<stop stop-color="#FFBEBD"/>
<stop offset="1" stop-color="#FFF6F5"/>
</linearGradient>
<linearGradient id="paint6_linear_107_11212" x1="123.881" y1="40.086" x2="89.6357" y2="61.4296" gradientUnits="userSpaceOnUse">
<stop stop-color="#FFDEAC"/>
<stop offset="1" stop-color="#FF426F"/>
</linearGradient>
<linearGradient id="paint7_linear_107_11212" x1="161.299" y1="63.9446" x2="154.182" y2="47.4058" gradientUnits="userSpaceOnUse">
<stop stop-color="#FF9999"/>
<stop offset="1" stop-color="#FFE7DA"/>
</linearGradient>
<linearGradient id="paint8_linear_107_11212" x1="28.8532" y1="91.3175" x2="23.1371" y2="78.0411" gradientUnits="userSpaceOnUse">
<stop stop-color="#FF9999"/>
<stop offset="1" stop-color="#FFE7DA"/>
</linearGradient>
<linearGradient id="paint9_linear_107_11212" x1="160.012" y1="83.7231" x2="155.216" y2="72.5926" gradientUnits="userSpaceOnUse">
<stop stop-color="#FF9999"/>
<stop offset="1" stop-color="#FFE7DA"/>
</linearGradient>
<linearGradient id="paint10_linear_107_11212" x1="28.9737" y1="70.0687" x2="21.0943" y2="51.7444" gradientUnits="userSpaceOnUse">
<stop stop-color="#FF9999"/>
<stop offset="1" stop-color="#FFE7DA"/>
</linearGradient>
</defs>
</svg>
