<svg width="344" height="258" viewBox="0 0 344 258" fill="none" xmlns="http://www.w3.org/2000/svg">
<mask id="mask0_107_11317" style="mask-type:luminance" maskUnits="userSpaceOnUse" x="0" y="0" width="344" height="258">
<rect width="344" height="258" fill="white"/>
</mask>
<g mask="url(#mask0_107_11317)">
<path d="M122.197 38.8709C111.221 27.8949 96.1697 25.1502 88.5792 32.7408C80.9886 40.3313 83.7333 55.3825 94.7093 66.3585C98.7689 70.5038 103.75 73.6318 109.247 75.4878C113.939 77.0466 118.166 79.7538 121.545 83.3632C121.726 83.5528 121.909 83.7411 122.096 83.928C129.891 91.7231 140.166 94.0864 145.045 89.2069C149.924 84.3274 147.561 74.0525 139.767 66.2574C139.58 66.0705 139.391 65.8869 139.202 65.7063C135.592 62.3279 132.885 58.1006 131.326 53.4089C129.47 47.9117 126.342 42.9305 122.197 38.8709Z" fill="#97CC64"/>
<mask id="mask1_107_11317" style="mask-type:luminance" maskUnits="userSpaceOnUse" x="84" y="28" width="64" height="64">
<path fill-rule="evenodd" clip-rule="evenodd" d="M122.197 38.8709C111.221 27.8949 96.1702 25.1502 88.5797 32.7408C80.9891 40.3313 83.7338 55.3825 94.7098 66.3585C98.7694 70.5038 103.751 73.6318 109.248 75.4878C113.939 77.0466 118.167 79.7538 121.545 83.3632C121.726 83.5528 121.91 83.7411 122.096 83.928C129.892 91.7231 140.167 94.0864 145.046 89.2069C149.925 84.3274 147.562 74.0525 139.767 66.2574C139.58 66.0705 139.392 65.8869 139.202 65.7063C135.593 62.3279 132.885 58.1006 131.327 53.4089C129.471 47.9117 126.343 42.9305 122.197 38.8709Z" fill="white"/>
</mask>
<g mask="url(#mask1_107_11317)">
<path d="M96.5293 21.0384C77.713 97.6113 131.875 52.6949 147.586 104.288C163.297 155.881 64.3594 104.895 64.3594 104.895L60.7173 4.13672" fill="#75AA3C"/>
</g>
<path d="M105.245 43.1608C105.685 45.3845 105.351 47.6918 104.299 49.6996C104.041 50.1905 104.785 50.6269 105.044 50.1349C106.204 47.9233 106.568 45.3802 106.077 42.9317C105.968 42.3879 105.137 42.618 105.245 43.1609V43.1608Z" fill="#75AA3C"/>
<rect x="246.778" y="81.5664" width="51.1715" height="68.5178" rx="8.1863" fill="#589BF7"/>
<mask id="mask2_107_11317" style="mask-type:luminance" maskUnits="userSpaceOnUse" x="246" y="81" width="52" height="70">
<rect x="246.778" y="81.5664" width="51.1715" height="68.5178" rx="8.1863" fill="white"/>
</mask>
<g mask="url(#mask2_107_11317)">
<path d="M300.268 138.372C294.88 126.445 300.311 153.903 250.163 150.084C200.015 146.265 274.483 170.539 274.483 170.539L310.081 148.39" fill="#2976DF"/>
</g>
<rect x="251.187" y="87.1953" width="42.3532" height="38.3731" rx="4.88712" fill="#EFF3FC"/>
<mask id="mask3_107_11317" style="mask-type:luminance" maskUnits="userSpaceOnUse" x="251" y="87" width="43" height="39">
<rect x="251.186" y="87.1953" width="42.3532" height="38.3731" rx="4.88712" fill="white"/>
</mask>
<g mask="url(#mask3_107_11317)">
<path d="M233.882 100.275C248.699 101.622 249.066 87.1943 260.716 87.1943C272.367 87.1943 246.777 82.957 246.777 82.957L245.042 86.4206" fill="#D6DCF2"/>
<path d="M264.267 97.6758H274.585C276.239 97.6758 277.596 99.0717 277.596 100.814V110.877C277.596 112.619 276.239 114.015 274.585 114.015H264.267C262.614 114.015 261.257 112.619 261.257 110.877V100.814C261.257 99.0717 262.614 97.6758 264.267 97.6758Z" fill="#589BF7" stroke="white" stroke-width="0.5"/>
<path d="M275.014 107.528L275.014 107.528C274.85 107.399 274.717 107.234 274.626 107.048C274.535 106.861 274.488 106.656 274.488 106.449C274.488 106.242 274.535 106.037 274.626 105.851C274.717 105.664 274.85 105.499 275.014 105.37L275.014 105.37L281.337 100.384L281.337 100.384C281.543 100.222 281.791 100.12 282.054 100.091C282.316 100.062 282.581 100.106 282.819 100.219C283.057 100.333 283.257 100.51 283.397 100.73C283.536 100.95 283.61 101.204 283.61 101.464V101.464V111.431V111.431C283.61 111.691 283.536 111.945 283.397 112.165C283.257 112.385 283.057 112.562 282.819 112.675C282.581 112.789 282.316 112.833 282.054 112.804C281.791 112.775 281.543 112.673 281.337 112.51L281.337 112.51L275.014 107.528Z" fill="#589BF7" stroke="white" stroke-width="0.5"/>
</g>
<rect x="254.318" y="132.426" width="34.8622" height="3.89158" rx="1.94579" fill="#2976DF"/>
<rect x="254.318" y="138.375" width="25.3554" height="3.89158" rx="1.94579" fill="#2976DF"/>
<path d="M292.575 137.609C291.928 138.377 291.156 139.031 290.293 139.546C290.153 139.634 290.109 139.818 290.192 139.961C290.276 140.103 290.457 140.155 290.603 140.077C291.513 139.537 292.326 138.85 293.01 138.044C293.126 137.922 293.126 137.73 293.01 137.609C292.89 137.49 292.696 137.49 292.575 137.609Z" fill="#2976DF"/>
<rect x="38.686" y="81.5664" width="51.1715" height="68.5178" rx="8.1863" fill="#FFC562"/>
<mask id="mask4_107_11317" style="mask-type:luminance" maskUnits="userSpaceOnUse" x="38" y="81" width="52" height="70">
<rect x="38.686" y="81.5664" width="51.1715" height="68.5178" rx="8.1863" fill="white"/>
</mask>
<g mask="url(#mask4_107_11317)">
<path d="M92.7183 83.0195C99.0342 158.013 62.9392 157.747 38.1241 154.994C13.309 152.24 75.5173 168.115 75.5173 168.115L93.0584 165.229L103.659 122.537" fill="#D89D35"/>
</g>
<rect x="43.0942" y="87.1953" width="42.3532" height="38.3731" rx="4.88712" fill="#EFF3FC"/>
<rect x="46.2268" y="132.426" width="34.8622" height="3.89158" rx="1.94579" fill="#E84B23"/>
<rect x="46.2268" y="138.375" width="25.3554" height="3.89158" rx="1.94579" fill="#E84B23"/>
<path d="M84.401 141.258C84.3745 141.296 84.3476 141.333 84.32 141.37C84.3384 141.345 84.3332 141.353 84.3175 141.373L84.274 141.426C84.2183 141.493 84.1602 141.558 84.0995 141.62C84.0358 141.686 83.9695 141.75 83.9005 141.811C83.8696 141.838 83.8381 141.864 83.8061 141.891L83.7525 141.934C83.7868 141.907 83.7562 141.931 83.7384 141.944C83.5986 142.049 83.4513 142.142 83.2976 142.225C83.2207 142.266 83.1421 142.303 83.0628 142.339C83.0103 142.363 83.0805 142.333 83.0475 142.346L82.9837 142.371C82.9408 142.388 82.8976 142.403 82.8538 142.418C82.6901 142.464 82.5939 142.633 82.6391 142.797C82.6843 142.96 82.8536 143.057 83.0174 143.011C83.7922 142.746 84.4625 142.241 84.9316 141.569C85.0164 141.423 84.9672 141.235 84.8213 141.149C84.6741 141.067 84.489 141.116 84.4005 141.259L84.401 141.258Z" fill="#D89D35"/>
<rect x="79.9429" y="65.5898" width="75.036" height="100.472" rx="12.0041" fill="#FE7578"/>
<mask id="mask5_107_11317" style="mask-type:luminance" maskUnits="userSpaceOnUse" x="79" y="65" width="76" height="102">
<rect x="79.9429" y="65.5898" width="75.036" height="100.472" rx="12.0041" fill="white"/>
</mask>
<g mask="url(#mask5_107_11317)">
<path d="M158.544 104.239C148.513 84.9946 187.128 174.496 88.3761 166.063C-10.3759 157.63 166.325 197.155 166.325 197.155L178.834 126.896" fill="#E55A61"/>
</g>
<rect x="86.408" y="73.8438" width="62.105" height="56.2689" rx="7.16621" fill="#EFF3FC"/>
<mask id="mask6_107_11317" style="mask-type:luminance" maskUnits="userSpaceOnUse" x="86" y="73" width="63" height="58">
<rect x="86.4082" y="73.8438" width="62.105" height="56.2689" rx="7.16621" fill="white"/>
</mask>
<g mask="url(#mask6_107_11317)">
<path d="M96.7173 93.405L96.7173 93.405C96.2937 92.1 96.4475 90.9484 96.9996 90.1304C97.55 89.315 98.5217 88.793 99.816 88.793H124.381C125.678 88.793 127.04 89.3213 128.19 90.19C129.34 91.0583 130.259 92.2528 130.685 93.5597L136.608 111.809L136.846 111.731L136.608 111.809C137.032 113.114 136.878 114.265 136.326 115.083C135.776 115.899 134.806 116.421 133.514 116.421H108.949C107.649 116.421 106.286 115.892 105.136 115.024C103.986 114.155 103.066 112.961 102.64 111.654L96.7173 93.405Z" fill="#FE7578" stroke="white" stroke-width="0.5"/>
<path d="M130.777 92.6094L121.089 102.956C119.212 104.94 115.638 104.94 112.46 102.956L96.4641 92.8712" stroke="white" stroke-width="2" stroke-miterlimit="10" stroke-linecap="round"/>
<path d="M121.469 102.652L136.743 112.281" stroke="white" stroke-width="2" stroke-miterlimit="10" stroke-linecap="round"/>
<path d="M102.648 112.517L111.781 102.762" stroke="white" stroke-width="2" stroke-miterlimit="10" stroke-linecap="round"/>
<path d="M124.913 86.5123L124.913 86.5123C124.28 87.3769 124.148 88.6196 124.6 90.0121C125.085 91.4838 126.126 92.8322 127.423 93.8131C128.72 94.7945 130.256 95.394 131.717 95.394C132.974 95.394 133.966 94.9338 134.543 94.1543L124.913 86.5123ZM124.913 86.5123C125.494 85.7176 126.486 85.2578 127.742 85.2578C129.204 85.2578 130.739 85.8573 132.036 86.841C133.332 87.8243 134.372 89.1777 134.856 90.6594L134.856 90.6595M124.913 86.5123L134.856 90.6595M134.856 90.6595C135.311 92.0521 135.179 93.2941 134.543 94.1543L134.856 90.6595Z" fill="#C95053" stroke="white" stroke-width="0.5"/>
<path d="M134.298 93.9787L134.303 93.9727L134.308 93.9664C134.909 93.1349 134.989 91.965 134.577 90.7266C134.116 89.3091 133.104 88.014 131.869 87.074C130.634 86.1344 129.154 85.5322 127.742 85.5322C126.635 85.5322 125.703 85.9177 125.159 86.6668L125.159 86.6672C124.557 87.4986 124.477 88.6644 124.89 89.9029C125.351 91.3223 126.362 92.6184 127.596 93.559C128.828 94.4974 130.304 95.099 131.717 95.1013C132.204 95.1315 132.691 95.0461 133.139 94.8521C133.589 94.657 133.986 94.3576 134.298 93.9787ZM123.845 90.2395C123.315 88.6073 123.505 87.1601 124.202 86.1284C124.897 85.0993 126.122 84.4453 127.742 84.4453C129.366 84.4453 131.067 85.1056 132.501 86.188C133.934 87.27 135.082 88.76 135.613 90.3941C136.144 92.0263 135.953 93.4734 135.256 94.5051C134.561 95.5343 133.336 96.1882 131.717 96.1882C130.092 96.1882 128.391 95.5279 126.957 94.4455C125.524 93.3635 124.377 91.8735 123.845 90.2395Z" fill="#F5EBDD" stroke="white" stroke-width="0.5"/>
<path d="M79.1693 113.349C80.209 56.2103 147.433 73.8418 147.433 73.8418L71.3291 68.7734L66.8428 73.8418" fill="#D6DCF2"/>
</g>
<rect x="91.0005" y="140.168" width="51.1205" height="5.70642" rx="2.85321" fill="#FFC562"/>
<rect x="91.0005" y="148.891" width="37.1802" height="5.70642" rx="2.85321" fill="#FFC562"/>
<path d="M146.686 147.526C146.654 147.647 146.619 147.767 146.577 147.886C146.558 147.942 146.537 147.997 146.515 148.053C146.47 148.171 146.537 148.006 146.508 148.073C146.494 148.103 146.481 148.133 146.467 148.163C146.363 148.391 146.238 148.609 146.097 148.816C146.063 148.865 146.027 148.912 145.993 148.961C145.952 149.02 146.058 148.881 145.979 148.979L145.929 149.041C145.849 149.138 145.766 149.231 145.678 149.32C145.59 149.41 145.499 149.495 145.404 149.577C145.354 149.62 145.303 149.662 145.25 149.703C145.285 149.675 145.279 149.681 145.247 149.704C145.215 149.727 145.183 149.75 145.15 149.773C144.935 149.899 144.863 150.175 144.988 150.39C145.114 150.605 145.39 150.678 145.606 150.552C146.566 149.885 147.257 148.897 147.555 147.766C147.598 147.611 147.554 147.445 147.441 147.33C147.328 147.215 147.162 147.169 147.006 147.21C146.85 147.25 146.728 147.371 146.685 147.527L146.686 147.526Z" fill="#E55A61"/>
<rect x="181.653" y="65.5898" width="75.036" height="100.472" rx="12.0041" fill="#9A7ED9"/>
<mask id="mask7_107_11317" style="mask-type:luminance" maskUnits="userSpaceOnUse" x="181" y="65" width="76" height="102">
<rect x="181.653" y="65.5898" width="75.036" height="100.472" rx="12.0041" fill="white"/>
</mask>
<g mask="url(#mask7_107_11317)">
<path d="M256.689 120.231C252.478 109.672 259.557 171.097 213.693 166.061C167.829 161.026 268.561 183.881 268.561 183.881L276.744 145.873" fill="#6F4EB9"/>
</g>
<rect x="188.119" y="73.8438" width="62.105" height="56.2689" rx="7.16621" fill="#EFF3FC"/>
<mask id="mask8_107_11317" style="mask-type:luminance" maskUnits="userSpaceOnUse" x="188" y="73" width="63" height="58">
<rect x="188.119" y="73.8438" width="62.105" height="56.2689" rx="7.16621" fill="white"/>
</mask>
<g mask="url(#mask8_107_11317)">
<path d="M219.559 82.6098L216.911 85.9064L230.331 97.6817C230.726 98.028 231.244 98.1907 231.773 98.1302C232.304 98.0696 232.802 97.7898 233.155 97.3495C233.509 96.9092 233.686 96.3482 233.652 95.7919C233.617 95.2363 233.374 94.7313 232.979 94.3851L219.559 82.6098Z" fill="#30242A" stroke="white" stroke-width="0.5"/>
<path d="M230.298 92.0317L227.65 95.3283L230.331 97.681C230.726 98.0273 231.244 98.19 231.773 98.1295C232.303 98.0689 232.801 97.7891 233.155 97.3488C233.509 96.9085 233.686 96.3475 233.651 95.7912C233.617 95.2356 233.374 94.7306 232.979 94.3844L230.298 92.0317Z" fill="#30242A" stroke="white" stroke-width="0.5"/>
<path d="M211.694 80.7575C210.755 83.3483 211.963 86.1315 214.347 86.9959C216.732 87.8604 219.443 86.498 220.382 83.9072C221.321 81.3164 220.113 78.5332 217.729 77.6687C215.344 76.8043 212.633 78.1667 211.694 80.7575Z" fill="#9A7ED9" stroke="white" stroke-width="0.5"/>
<path d="M233.305 97.461C238.039 101.552 243.8 107.15 250.486 102.74C258.852 97.2213 250.704 85.3994 244.092 94.2457C236.635 104.223 254.528 119.634 245.524 127.861C237.334 135.344 225.704 119.865 215.646 120.038C207.305 120.182 203.651 129.665 203.651 129.665" stroke="white" stroke-width="2" stroke-miterlimit="10" stroke-linecap="round"/>
<path d="M186.17 101.979C181.654 76.3769 200.3 73.6645 228.495 73.8441C256.69 74.0236 181.654 65.5898 181.654 65.5898L172.626 68.4764" fill="#D6DCF2"/>
</g>
<rect x="192.716" y="140.168" width="51.1205" height="5.70642" rx="2.85321" fill="#6F4EB9"/>
<rect x="192.716" y="148.891" width="37.1802" height="5.70642" rx="2.85321" fill="#6F4EB9"/>
<path d="M237.242 153.275L235.115 154.955C234.94 155.131 234.94 155.416 235.115 155.592C235.294 155.761 235.574 155.761 235.753 155.592L237.879 153.912C238.055 153.736 238.055 153.451 237.879 153.275C237.7 153.106 237.421 153.106 237.242 153.275Z" fill="#6F4EB9"/>
<path d="M163.328 78.5642C155.423 76.0678 156.831 58.1635 172.317 60.2694C187.804 62.3753 185.08 90.8104 209.278 89.1723C234.411 87.4707 232.727 147.59 199.309 139.371C174.835 133.351 163.328 78.5642 163.328 78.5642Z" fill="#3A3530"/>
<mask id="mask9_107_11317" style="mask-type:luminance" maskUnits="userSpaceOnUse" x="158" y="60" width="69" height="81">
<path fill-rule="evenodd" clip-rule="evenodd" d="M163.328 78.5642C155.424 76.0678 156.831 58.1635 172.318 60.2694C187.804 62.3753 185.081 90.8104 209.278 89.1723C234.411 87.4707 232.728 147.59 199.309 139.371C174.835 133.351 163.328 78.5642 163.328 78.5642Z" fill="white"/>
</mask>
<g mask="url(#mask9_107_11317)">
<path d="M214.808 139.483C217.162 124.987 186.67 120.452 188.938 114.297C191.205 108.141 193.484 101.207 186.723 98.4453C179.962 95.6833 174.991 110.666 174.991 110.666L172.572 122.712L176.768 131.967L215.336 141.75" fill="#190000"/>
</g>
<path d="M160.344 76.302C160.344 76.302 168.214 71.1147 174.99 75.1712L174.17 78.4997L162.447 79.1757L160.344 76.302Z" fill="#FE7578"/>
<path d="M114.37 210.189C112.732 203.59 87.1663 116.983 172.872 117.247C258.577 117.511 226.468 217.3 226.468 217.3L114.37 210.189Z" fill="#FE7578"/>
<mask id="mask10_107_11317" style="mask-type:luminance" maskUnits="userSpaceOnUse" x="109" y="117" width="124" height="101">
<path fill-rule="evenodd" clip-rule="evenodd" d="M114.369 210.189C112.732 203.59 87.1659 116.983 172.871 117.247C258.577 117.511 226.467 217.3 226.467 217.3L114.369 210.189Z" fill="white"/>
</mask>
<g mask="url(#mask10_107_11317)">
<ellipse cx="171.219" cy="118.32" rx="22.0462" ry="16.1325" fill="#F0F3FC"/>
<ellipse cx="171.218" cy="118.321" rx="16.437" ry="12.028" fill="#FF9763"/>
<mask id="mask11_107_11317" style="mask-type:luminance" maskUnits="userSpaceOnUse" x="154" y="106" width="34" height="25">
<ellipse cx="171.218" cy="118.321" rx="16.437" ry="12.028" fill="white"/>
</mask>
<g mask="url(#mask11_107_11317)">
<ellipse cx="161.687" cy="117.595" rx="20.2674" ry="9.82946" fill="#E84B23"/>
</g>
<path d="M214.015 150.555C213.883 155.785 211.427 170.889 211.427 170.889L215.449 160.171L214.015 150.555Z" fill="#FE7578"/>
<path d="M100.679 179.039C115.2 182.141 117.744 184.668 117.744 184.668L100.679 179.039Z" fill="#FE7578"/>
<path d="M103.227 181.642C108.955 181.126 114.61 183.226 118.612 187.356C118.612 187.356 106.793 153.866 125.135 153.102C143.477 152.338 213.356 154.579 215.449 160.174C217.542 165.769 214.043 184.67 214.043 184.67C214.043 184.67 220.332 194.076 232.727 184.67C245.123 175.265 236.961 201.759 236.961 201.759L115.519 214.242" fill="#BA393C"/>
</g>
<path d="M170.756 128.99C170.324 139.883 150.68 143.76 146.477 120.087C146.477 120.087 158.471 113.463 158.668 116.737C159.3 127.181 170.756 128.99 170.756 128.99Z" fill="#F0F3FC"/>
<path d="M170.654 128.988C171.087 139.881 189.9 143.023 195.863 120.304C195.863 120.304 182.939 113.461 182.742 116.734C182.11 127.179 170.654 128.988 170.654 128.988Z" fill="#F0F3FC"/>
<path d="M212.124 225.224H123.209L117.792 165.769C117.301 160.382 120.654 155.938 125.29 155.938H210.043C214.679 155.938 218.032 160.382 217.542 165.769L212.124 225.224Z" fill="#F0F3FC"/>
<mask id="mask12_107_11317" style="mask-type:luminance" maskUnits="userSpaceOnUse" x="117" y="155" width="101" height="71">
<path fill-rule="evenodd" clip-rule="evenodd" d="M212.124 225.224H123.209L117.791 165.769C117.3 160.382 120.654 155.938 125.29 155.938H210.042C214.679 155.938 218.032 160.382 217.541 165.769L212.124 225.224Z" fill="white"/>
</mask>
<g mask="url(#mask12_107_11317)">
<path d="M107.389 188.785C126.411 179.38 156.945 209.067 173.097 217.145C189.249 225.223 202.836 180.02 224.914 186.324C246.993 192.627 202.299 226.342 202.299 226.342L144.254 229.651" fill="#D6DCF2"/>
</g>
<path d="M174.063 186.96C173.802 189.539 171.195 191.452 168.221 191.398C165.248 191.345 162.717 189.34 162.555 186.753C162.381 183.961 164.997 181.58 168.41 181.642C171.823 181.704 174.344 184.176 174.063 186.96Z" fill="#FF9763"/>
<path d="M238.682 235.507L245.157 234.613C245.157 234.613 256.636 248.588 226.616 254.582L238.682 235.507Z" fill="#3A3530"/>
<path d="M229.992 233.77C234.268 233.3 238.579 233.233 242.867 233.571C251.262 234.897 243.363 251.342 226.616 254.582C226.616 254.582 237.728 239.858 229.992 233.77Z" fill="#F0F3FC"/>
<path d="M196.1 237.794C196.1 237.794 215.678 234.881 229.989 233.77C237.725 239.857 226.614 254.581 226.614 254.582C225.549 254.788 224.475 254.937 223.395 255.028C204.47 256.612 188.281 254.984 186.092 253.281C183.902 251.579 196.1 237.794 196.1 237.794Z" fill="#3A3530"/>
<path d="M183.369 227.781C193.273 234.108 199.739 238.499 199.739 238.499C202.653 241.807 202.743 246.739 199.952 250.151C198.305 252.387 195.625 253.62 192.855 253.416C188.783 253.139 184.699 252.758 180.625 252.279C182.096 245.537 184.002 234.968 183.369 227.781Z" fill="#FF9763"/>
<path d="M82.9181 184.999C92.5413 172.13 153.548 208.73 183.37 227.78C184.002 234.967 182.097 245.536 180.626 252.278C119.133 245.045 60.1264 215.477 82.9181 184.999Z" fill="#274B69"/>
<mask id="mask13_107_11317" style="mask-type:luminance" maskUnits="userSpaceOnUse" x="77" y="182" width="107" height="71">
<path fill-rule="evenodd" clip-rule="evenodd" d="M82.9181 184.999C92.5413 172.13 153.548 208.73 183.37 227.78C184.002 234.967 182.097 245.536 180.626 252.278C119.133 245.045 60.1264 215.477 82.9181 184.999Z" fill="white"/>
</mask>
<g mask="url(#mask13_107_11317)">
<path d="M85.8967 233.771C100.549 228.844 105.17 225.74 137.285 233.346C146.834 235.608 163.45 217.238 172.366 213.569C181.281 209.901 186.967 233.346 186.967 233.346L157.876 246.858L137.637 249.322L94.8214 243.965L85.8967 233.771Z" fill="#11314B"/>
<circle cx="80.5067" cy="188.784" r="13.245" fill="#11314B"/>
<path d="M67.4403 186.715C56.9398 199.144 145.867 248.729 170.755 250.923" stroke="white" stroke-width="1.28789" stroke-linecap="round" stroke-linejoin="round" stroke-dasharray="2.58"/>
</g>
<ellipse cx="170.756" cy="102.396" rx="16.2124" ry="22.7006" fill="#FF9763"/>
<mask id="mask14_107_11317" style="mask-type:luminance" maskUnits="userSpaceOnUse" x="154" y="79" width="33" height="47">
<ellipse cx="170.756" cy="102.396" rx="16.2124" ry="22.7006" fill="white"/>
</mask>
<g mask="url(#mask14_107_11317)">
<ellipse opacity="0.27" cx="161.026" cy="115.199" rx="4.12493" ry="3.14103" transform="rotate(-2.5189 161.026 115.199)" fill="#E84B23"/>
<ellipse opacity="0.27" cx="180.487" cy="114.343" rx="4.12493" ry="3.14103" transform="rotate(-2.5189 180.487 114.343)" fill="#E84B23"/>
<rect x="163.682" y="105.031" width="2.93302" height="5.40985" rx="1.46651" transform="rotate(1.59305 163.682 105.031)" fill="#190000"/>
<rect x="174.954" y="104.914" width="2.93306" height="5.40993" rx="1.46653" transform="rotate(1.5948 174.954 104.914)" fill="#190000"/>
<path d="M164.869 101.632C161.853 102.421 162.631 104.075 164.549 103.705C166.466 103.334 166.839 101.116 164.869 101.632Z" fill="#190000"/>
<path d="M176.431 101.38C179.398 102.336 178.759 103.825 176.865 103.348C174.971 102.872 174.492 100.755 176.431 101.38Z" fill="#190000"/>
<path d="M172.345 111.374C172.337 112.366 171.491 111.966 170.444 111.957C169.397 111.948 168.544 112.333 168.553 111.342C168.616 110.335 169.456 109.554 170.464 109.563C171.473 109.571 172.299 110.367 172.345 111.374Z" fill="#E84B23"/>
<path d="M166.377 116.899C168.164 123.945 174.698 120.534 174.535 116.094C174.523 115.865 174.368 115.667 174.148 115.6C171.669 114.957 169.045 115.185 166.714 116.247C166.455 116.35 166.311 116.628 166.377 116.899Z" fill="#C1525F"/>
<mask id="mask15_107_11317" style="mask-type:luminance" maskUnits="userSpaceOnUse" x="166" y="115" width="9" height="6">
<path fill-rule="evenodd" clip-rule="evenodd" d="M166.377 116.899C168.165 123.945 174.698 120.534 174.535 116.094C174.523 115.865 174.369 115.667 174.149 115.6C171.67 114.957 169.045 115.185 166.714 116.247C166.455 116.35 166.312 116.628 166.377 116.899Z" fill="white"/>
</mask>
<g mask="url(#mask15_107_11317)">
<ellipse cx="171.732" cy="120.502" rx="3.64443" ry="3.2528" transform="rotate(-22.8319 171.732 120.502)" fill="#993443"/>
<path d="M167.555 115.667C167.559 116.087 167.653 116.5 167.831 116.88C168.65 117.532 172.294 116.897 172.76 116.443C172.83 115.897 172.836 115.344 172.778 114.797L168.091 115.363" fill="#F0F3FC"/>
</g>
</g>
<path d="M155.726 99.8124C146.37 95.4514 144.327 102.42 148.628 108.141C151.855 112.431 155.444 111.866 157.037 111.315" fill="#FF9763"/>
<path d="M184.106 99.8124C193.463 95.4514 195.506 102.42 191.204 108.141C188.445 111.81 185.421 111.928 183.606 111.54" fill="#FF9763"/>
<path d="M165.997 89.0558C163.577 107.31 152.769 104.502 152.769 104.502C152.769 104.502 146.477 77.511 169.707 77.823C192.936 78.135 186.968 102.396 186.968 102.396C186.968 102.396 168.578 102.785 165.997 89.0558Z" fill="#3A3530"/>
<path d="M103.452 235.507L96.9772 234.613C96.9772 234.613 85.4982 248.588 115.518 254.582L103.452 235.507Z" fill="#3A3530"/>
<path d="M112.143 233.77C107.867 233.3 103.556 233.233 99.2672 233.571C90.8723 234.897 98.7715 251.342 115.519 254.582C115.518 254.582 104.407 239.858 112.143 233.77Z" fill="#F0F3FC"/>
<path d="M146.032 237.794C146.032 237.794 126.454 234.881 112.143 233.77C104.407 239.857 115.518 254.581 115.518 254.582C116.583 254.788 117.657 254.937 118.737 255.028C137.662 256.612 153.851 254.984 156.04 253.281C158.23 251.579 146.032 237.794 146.032 237.794Z" fill="#3A3530"/>
<path d="M158.762 227.781C148.858 234.108 142.393 238.499 142.393 238.499C139.478 241.807 139.388 246.739 142.18 250.151C143.826 252.387 146.507 253.62 149.276 253.416C153.348 253.139 157.433 252.758 161.506 252.279C160.035 245.537 158.13 234.968 158.762 227.781Z" fill="#FF9763"/>
<mask id="mask16_107_11317" style="mask-type:luminance" maskUnits="userSpaceOnUse" x="140" y="227" width="22" height="27">
<path fill-rule="evenodd" clip-rule="evenodd" d="M158.762 227.781C148.858 234.108 142.393 238.499 142.393 238.499C139.478 241.807 139.388 246.739 142.18 250.151C143.826 252.387 146.507 253.62 149.276 253.416C153.348 253.139 157.433 252.758 161.506 252.279C160.035 245.537 158.13 234.968 158.762 227.781Z" fill="white"/>
</mask>
<g mask="url(#mask16_107_11317)">
<path d="M143.622 235.768C142.742 244.744 150.485 254.423 157.525 251.255C164.564 248.088 154.195 229.118 158.764 227.779C163.333 226.44 166.324 255.671 166.324 255.671C166.324 255.671 164.388 256.534 162.629 257.238C160.869 257.942 144.502 257.942 144.502 257.942L135.527 244.596L137.286 233.344L146.033 237.793" fill="#E84B23"/>
</g>
<path d="M259.214 184.999C249.591 172.13 188.585 208.73 158.763 227.78C158.13 234.967 160.036 245.536 161.506 252.278C222.999 245.045 282.005 215.477 259.214 184.999Z" fill="#274B69"/>
<mask id="mask17_107_11317" style="mask-type:luminance" maskUnits="userSpaceOnUse" x="158" y="182" width="107" height="71">
<path fill-rule="evenodd" clip-rule="evenodd" d="M259.214 184.999C249.591 172.13 188.585 208.73 158.763 227.78C158.13 234.967 160.036 245.536 161.506 252.278C222.999 245.045 282.005 215.477 259.214 184.999Z" fill="white"/>
</mask>
<g mask="url(#mask17_107_11317)">
<path d="M209.279 194.062C221.408 195.47 248.077 180.112 255.986 184.356C263.896 188.599 272.438 194.865 268.214 210.352C263.991 225.839 269.98 217.299 269.98 217.299L272.444 182.318L241.713 164.398L209.279 194.062Z" fill="#11314B"/>
<ellipse cx="266.685" cy="188.785" rx="14.7755" ry="16.1134" fill="#11314B"/>
<path d="M163.79 246.27C163.79 246.27 256.229 231.691 264.217 190.578" stroke="white" stroke-width="1.28789" stroke-linecap="round" stroke-linejoin="round" stroke-dasharray="2.58"/>
<path d="M165.918 219.891C163.597 230.903 170.958 255.674 170.958 255.674L156.304 257.057L151.878 222.92" fill="#589BF7"/>
</g>
<circle cx="170.464" cy="139.278" r="1.42628" fill="#190000"/>
<circle cx="170.464" cy="147.536" r="1.42628" fill="#190000"/>
<path d="M173.941 83.316C173.874 84.6839 174.211 86.0411 174.91 87.2188C175.101 87.5406 175.515 87.6482 175.838 87.4595C176.161 87.2709 176.27 86.8569 176.083 86.5333C176.004 86.3999 175.929 86.2644 175.859 86.1257C175.827 86.061 175.795 85.9958 175.765 85.93C175.748 85.8925 175.731 85.8547 175.715 85.8168C175.743 85.8839 175.742 85.8807 175.712 85.8073C175.606 85.5378 175.517 85.2618 175.447 84.981C175.412 84.8406 175.382 84.6989 175.357 84.5561C175.353 84.5295 175.317 84.2743 175.336 84.43C175.328 84.3685 175.322 84.3067 175.316 84.245C175.288 83.9361 175.282 83.6256 175.299 83.3159C175.297 82.9418 174.994 82.6391 174.62 82.6367C174.248 82.6448 173.949 82.9442 173.941 83.3159L173.941 83.316Z" fill="#190000"/>
<path d="M206.246 102.661C206.509 102.904 206.757 103.162 206.989 103.435C207.048 103.505 207.107 103.576 207.164 103.647C207.198 103.689 207.213 103.709 207.171 103.655C207.202 103.695 207.233 103.736 207.263 103.777C207.372 103.925 207.476 104.077 207.576 104.232C207.77 104.532 207.945 104.844 208.101 105.166C208.141 105.249 208.18 105.333 208.217 105.417C208.223 105.428 208.273 105.543 208.244 105.476C208.215 105.408 208.264 105.524 208.269 105.536C208.342 105.716 208.408 105.898 208.47 106.083C208.569 106.444 208.944 106.657 209.305 106.557C209.667 106.458 209.88 106.083 209.78 105.722C209.274 104.186 208.389 102.803 207.207 101.7C207.036 101.525 206.784 101.456 206.548 101.519C206.312 101.581 206.128 101.766 206.065 102.002C206.003 102.238 206.072 102.489 206.246 102.66L206.246 102.661Z" fill="#190000"/>
<path d="M136.175 179.519C138.458 181.799 141.066 183.732 143.912 185.254C144.683 185.665 145.37 184.493 144.598 184.081C141.852 182.617 139.337 180.756 137.135 178.558C136.867 178.308 136.45 178.315 136.19 178.574C135.931 178.833 135.924 179.251 136.175 179.519Z" fill="#D6DCF2"/>
<path d="M207.762 217.427L201.961 220.085C201.64 220.276 201.531 220.69 201.717 221.014C201.912 221.331 202.321 221.438 202.646 221.258L208.448 218.6C208.769 218.409 208.878 217.995 208.692 217.671C208.497 217.354 208.087 217.247 207.762 217.427Z" fill="#11314B"/>
<path d="M200.537 163.459C200.625 163.517 200.713 163.576 200.799 163.637C200.842 163.668 200.884 163.7 200.927 163.731C201.021 163.8 200.808 163.634 200.965 163.76C201.131 163.892 201.29 164.03 201.445 164.175C201.591 164.313 201.731 164.456 201.866 164.605C201.937 164.684 202.006 164.764 202.074 164.845C202.108 164.885 202.141 164.927 202.174 164.968C202.25 165.062 202.16 164.947 202.203 165.006C202.45 165.336 202.671 165.686 202.863 166.051C202.911 166.144 202.958 166.239 203.003 166.335C203.021 166.373 203.039 166.412 203.056 166.45C203.06 166.458 203.138 166.647 203.088 166.521C203.166 166.718 203.238 166.916 203.302 167.118C203.401 167.479 203.775 167.692 204.137 167.592C204.499 167.492 204.711 167.118 204.612 166.757C204.031 164.92 202.834 163.341 201.223 162.286C200.898 162.1 200.485 162.209 200.294 162.53C200.113 162.855 200.22 163.265 200.537 163.459H200.537Z" fill="#D6DCF2"/>
<path d="M112.433 199.754C111.46 200.948 110.906 202.428 110.856 203.967C110.859 204.34 111.161 204.643 111.535 204.646C111.907 204.638 112.207 204.339 112.214 203.967C112.219 203.8 112.229 203.635 112.247 203.469C112.252 203.428 112.257 203.387 112.262 203.346C112.252 203.423 112.253 203.422 112.264 203.341C112.28 203.259 112.292 203.177 112.309 203.096C112.37 202.79 112.455 202.49 112.561 202.197C112.59 202.119 112.62 202.041 112.651 201.964C112.598 202.095 112.697 201.864 112.708 201.841C112.77 201.71 112.836 201.58 112.907 201.453C112.987 201.308 113.074 201.166 113.166 201.028C113.213 200.959 113.26 200.891 113.309 200.824C113.334 200.791 113.358 200.757 113.384 200.724C113.341 200.779 113.344 200.776 113.393 200.715C113.649 200.446 113.649 200.023 113.393 199.754C113.126 199.493 112.699 199.493 112.433 199.754L112.433 199.754Z" fill="#11314B"/>
<path d="M208.338 135.286C210.304 136.456 211.709 138.375 212.23 140.603C212.429 141.453 213.739 141.093 213.54 140.241C212.924 137.673 211.295 135.462 209.024 134.113C208.702 133.939 208.299 134.051 208.114 134.368C207.929 134.685 208.028 135.091 208.339 135.286H208.338Z" fill="#BA393C"/>
<path d="M127.913 145.184L127.572 145.863C127.523 145.938 127.495 146.025 127.491 146.115C127.459 146.385 127.585 146.649 127.816 146.792L127.978 146.86C128.096 146.893 128.221 146.893 128.339 146.86L128.501 146.792C128.602 146.733 128.686 146.649 128.745 146.548L129.086 145.869C129.135 145.794 129.162 145.707 129.166 145.617C129.199 145.348 129.073 145.084 128.842 144.94L128.68 144.872C128.562 144.84 128.437 144.84 128.319 144.872L128.157 144.94C128.056 144.999 127.972 145.083 127.913 145.184Z" fill="#BA393C"/>
<path d="M280.056 21.8929L274.573 21.7375L274.083 21.7236C265.532 21.4878 257.145 19.3193 249.551 15.3807L249.485 15.3462L244.225 12.6229C244.909 10.6934 245.64 8.7813 246.416 6.88659C246.47 6.75404 246.523 6.62102 246.579 6.48918C247.815 3.56981 250.899 1.88721 254.023 2.42894C254.204 2.46041 254.384 2.49944 254.565 2.54602L263.389 4.82755L275.893 8.06076C279.166 8.90506 281.326 12.0217 280.966 15.383C280.925 15.762 280.875 16.1402 280.829 16.5186C280.611 18.3166 280.353 20.108 280.056 21.8929Z" fill="#FF999A"/>
<path d="M269.66 52.8929C268.026 54.0421 265.969 54.4155 264.035 53.9141L260.67 53.0441L252.31 50.8823L244.893 48.9646L242.753 48.4112C239.474 47.5639 237.314 44.4377 237.682 41.0709C237.747 40.4704 237.831 39.8714 237.906 39.272C238.096 37.7529 238.314 36.2375 238.559 34.7257C239.029 31.8334 239.598 28.9595 240.267 26.104C240.942 23.2256 241.716 20.3732 242.59 17.5467C243.101 15.8938 243.646 14.252 244.224 12.6211L248.135 14.6459L249.551 15.3789C250.486 15.8629 251.432 16.3199 252.387 16.7499C257.817 19.1955 263.6 20.7684 269.52 21.4104C271.077 21.5794 272.641 21.681 274.206 21.7254L280.055 21.8906C279.773 23.5986 279.457 25.2998 279.106 26.9941C278.506 29.8884 277.806 32.7587 277.005 35.6049C276.212 38.4246 275.322 41.2155 274.334 43.9777C273.741 45.6333 273.114 47.277 272.453 48.9087C272.311 49.2581 272.173 49.6093 272.027 49.9567C271.531 51.1391 270.71 52.157 269.66 52.8929Z" fill="#FE7578"/>
<mask id="mask18_107_11317" style="mask-type:luminance" maskUnits="userSpaceOnUse" x="237" y="12" width="44" height="43">
<path fill-rule="evenodd" clip-rule="evenodd" d="M269.66 52.8929C268.026 54.0421 265.969 54.4155 264.035 53.9141L260.67 53.0441L252.31 50.8823L244.893 48.9646L242.753 48.4112C239.474 47.5639 237.314 44.4377 237.682 41.0709C237.747 40.4704 237.831 39.8714 237.906 39.272C238.096 37.7529 238.314 36.2375 238.559 34.7257C239.029 31.8334 239.598 28.9595 240.267 26.104C240.942 23.2256 241.716 20.3732 242.59 17.5467C243.101 15.8938 243.646 14.252 244.224 12.6211L248.135 14.6459L249.551 15.3789C250.486 15.8629 251.432 16.3199 252.387 16.7499C257.817 19.1955 263.6 20.7684 269.52 21.4104C271.077 21.5794 272.641 21.681 274.206 21.7254L280.055 21.8906C279.773 23.5986 279.457 25.2998 279.106 26.9941C278.506 29.8884 277.806 32.7587 277.005 35.6049C276.212 38.4246 275.322 41.2155 274.334 43.9777C273.741 45.6333 273.114 47.277 272.453 48.9087C272.311 49.2581 272.173 49.6093 272.027 49.9567C271.531 51.1391 270.71 52.157 269.66 52.8929Z" fill="white"/>
</mask>
<g mask="url(#mask18_107_11317)">
<path d="M236.55 45.1779C272.862 53.2709 272.805 44.4855 276.554 37.4318C280.303 30.3782 279.823 53.1063 279.823 53.1063C279.823 53.1063 270.672 60.3597 269.991 60.5532C269.31 60.7466 237.691 53.1339 237.691 53.1339L234.945 52.2959" fill="#E55A61"/>
<path d="M266.468 27.766C264.432 28.9677 261.981 29.2448 259.728 28.528C258.487 28.1366 257.356 27.4579 256.427 26.5471C254.298 24.4626 253.446 21.3996 254.192 18.5152C254.937 15.6308 257.168 13.3649 260.04 12.5735C264.064 11.4652 268.286 13.5092 269.912 17.3528C271.538 21.1964 270.065 25.65 266.468 27.766H266.468Z" fill="#E55A61"/>
</g>
<path d="M265.956 26.0453C262.224 28.238 257.434 27.194 254.953 23.6474C252.472 20.1008 253.134 15.243 256.474 12.4895C259.813 9.73596 264.708 10.0118 267.717 13.123C270.726 16.2342 270.838 21.1356 267.974 24.3811C267.393 25.0384 266.712 25.6 265.956 26.0453Z" fill="#FFC562"/>
<path d="M264.719 23.9447C263.28 24.7944 261.547 24.9903 259.954 24.4835C257.967 23.8547 256.461 22.2214 255.996 20.1902C255.53 18.159 256.175 16.0331 257.689 14.6019C258.391 13.9395 259.244 13.4588 260.174 13.2019C262.21 12.6438 264.389 13.2177 265.885 14.7062C267.178 15.9915 267.801 17.8035 267.573 19.612C267.345 21.4204 266.291 23.0207 264.719 23.9447Z" fill="#FF9763"/>
<path d="M271.017 11.9354C271.2 11.9762 271.373 12.0518 271.528 12.1579C271.602 12.2039 271.671 12.2576 271.734 12.3182C271.807 12.3863 271.876 12.4594 271.94 12.5369C271.971 12.5744 271.933 12.5251 271.963 12.5683L272.001 12.6216C272.028 12.661 272.054 12.7014 272.078 12.7431C272.104 12.7882 272.129 12.8342 272.152 12.8813C272.17 12.9158 272.185 12.9515 272.198 12.9882C272.268 13.1613 272.305 13.3456 272.308 13.532C272.306 13.6243 272.354 13.7105 272.433 13.7572C272.513 13.804 272.612 13.804 272.691 13.7572C272.771 13.7105 272.819 13.6243 272.817 13.532C272.781 12.5459 272.105 11.6988 271.152 11.4441C271.064 11.4179 270.968 11.4415 270.902 11.5058C270.836 11.5701 270.81 11.6651 270.833 11.7543C270.857 11.8434 270.927 11.9126 271.017 11.9354H271.017Z" fill="#FE7578"/>
<path d="M247.599 39.3665C248.427 40.8346 249.879 41.8457 251.543 42.1136C251.678 42.1461 251.815 42.0683 251.856 41.9356C251.893 41.8 251.813 41.6604 251.678 41.6222C250.144 41.3872 248.802 40.4609 248.038 39.1093C247.878 38.8231 247.438 39.0797 247.599 39.3665Z" fill="#E55A61"/>
<ellipse cx="72.3669" cy="184.028" rx="15.9019" ry="8.36683" transform="rotate(-41.6109 72.3669 184.028)" fill="#FFC562"/>
<mask id="mask19_107_11317" style="mask-type:luminance" maskUnits="userSpaceOnUse" x="59" y="171" width="27" height="26">
<ellipse cx="72.3672" cy="184.028" rx="15.9019" ry="8.36683" transform="rotate(-41.6109 72.3672 184.028)" fill="white"/>
</mask>
<g mask="url(#mask19_107_11317)">
<path d="M71.6763 171.082C88.5042 171.637 85.8969 181.363 84.1923 185.479C82.4877 189.596 89.414 178.313 89.414 178.313L87.0521 167.369L83.3994 166.652" fill="#D89D35"/>
</g>
<path d="M80.7938 175.015C84.3257 176.554 83.6514 181.911 79.2881 186.979C74.9231 192.049 68.5218 194.911 64.9899 193.371C61.4579 191.831 62.1309 186.474 66.4959 181.404C70.8609 176.334 77.2611 173.475 80.7938 175.015Z" fill="#E84B23"/>
<mask id="mask20_107_11317" style="mask-type:luminance" maskUnits="userSpaceOnUse" x="62" y="174" width="22" height="20">
<path fill-rule="evenodd" clip-rule="evenodd" d="M80.7936 175.015C84.3255 176.554 83.6512 181.911 79.2878 186.979C74.9228 192.049 68.5216 194.911 64.9896 193.371C61.4577 191.831 62.1307 186.474 66.4957 181.404C70.8607 176.334 77.2609 173.475 80.7936 175.015Z" fill="white"/>
</mask>
<g mask="url(#mask20_107_11317)">
<path d="M78.4854 174.76C82.0173 176.3 81.3431 181.657 76.9796 186.725C72.6146 191.795 66.2133 194.657 62.6815 193.117C59.1497 191.577 59.8225 186.22 64.1876 181.15C68.5509 176.082 74.9523 173.221 78.4854 174.76Z" fill="#FF9763"/>
</g>
<path d="M55.677 188.58C55.6941 188.632 55.7098 188.685 55.7283 188.736C55.7507 188.798 55.7764 188.859 55.801 188.919C55.821 188.969 55.8396 189.019 55.8611 189.067C55.8881 189.128 55.9185 189.187 55.948 189.246C55.9705 189.292 55.9915 189.339 56.0155 189.383C56.0487 189.445 56.0852 189.504 56.121 189.564C56.1446 189.604 56.1667 189.645 56.1918 189.684C56.234 189.75 56.2798 189.813 56.3252 189.876C56.3472 189.907 56.3672 189.939 56.39 189.969C56.4596 190.061 56.533 190.151 56.61 190.238L60.4709 194.585C60.3939 194.498 60.3205 194.409 60.2509 194.316C60.228 194.286 60.2078 194.253 60.1857 194.223C60.1404 194.159 60.0947 194.096 60.0528 194.031C60.0278 193.992 60.0056 193.951 59.982 193.911C59.9466 193.851 59.9098 193.792 59.8769 193.73C59.8533 193.686 59.8322 193.639 59.8097 193.594C59.7802 193.534 59.7496 193.475 59.7224 193.414C59.701 193.366 59.6826 193.316 59.6633 193.267C59.6386 193.206 59.6128 193.146 59.5903 193.083C59.5718 193.032 59.5561 192.979 59.5391 192.927C59.5186 192.864 59.4975 192.802 59.4793 192.738C59.4639 192.684 59.451 192.628 59.4371 192.573C59.4209 192.508 59.404 192.445 59.3899 192.379C59.3781 192.322 59.3678 192.264 59.3572 192.207C59.3454 192.141 59.332 192.075 59.3218 192.008C59.3129 191.949 59.3063 191.889 59.2989 191.829C59.2905 191.761 59.2817 191.693 59.2753 191.624C59.2697 191.563 59.2663 191.5 59.2622 191.439C59.2576 191.369 59.2527 191.299 59.2504 191.228C59.2481 191.165 59.2479 191.101 59.2472 191.036C59.2463 190.966 59.2454 190.894 59.2472 190.822C59.2482 190.756 59.2512 190.69 59.2539 190.624C59.2567 190.551 59.2597 190.478 59.2645 190.404C59.269 190.337 59.2751 190.269 59.2812 190.202C59.2878 190.127 59.2945 190.052 59.3031 189.976C59.3108 189.908 59.3203 189.838 59.3296 189.769C59.3399 189.693 59.3504 189.616 59.3626 189.539C59.3738 189.468 59.3862 189.397 59.3993 189.327C59.4131 189.249 59.4274 189.172 59.4431 189.094C59.4577 189.022 59.4737 188.949 59.4903 188.876C59.507 188.803 59.5231 188.731 59.5408 188.658C59.573 188.525 59.6085 188.39 59.6459 188.256C59.6587 188.21 59.6703 188.164 59.6838 188.117C59.7361 187.937 59.7929 187.755 59.8542 187.572C59.8677 187.532 59.8831 187.491 59.897 187.45C59.9472 187.305 59.9995 187.16 60.0553 187.014C60.0789 186.951 60.1042 186.888 60.1291 186.825C60.1802 186.696 60.2334 186.566 60.2889 186.435C60.3176 186.368 60.3461 186.3 60.3759 186.233C60.4199 186.133 60.4661 186.032 60.5126 185.932C60.5469 185.858 60.5808 185.784 60.6163 185.71C60.6664 185.606 60.719 185.501 60.7716 185.396C60.8071 185.325 60.8425 185.254 60.8799 185.182C60.9381 185.07 60.9994 184.957 61.0608 184.844C61.0962 184.779 61.1296 184.715 61.1658 184.65C61.2442 184.509 61.3265 184.368 61.4097 184.227C61.4316 184.19 61.4517 184.153 61.4739 184.116C61.5814 183.935 61.6929 183.755 61.8083 183.573C61.8398 183.524 61.8737 183.474 61.9059 183.424C61.9909 183.293 62.0764 183.161 62.1656 183.03C62.2115 182.962 62.26 182.894 62.3072 182.826C62.3858 182.712 62.4646 182.598 62.5462 182.484C62.5994 182.41 62.6546 182.335 62.709 182.261C62.788 182.153 62.8674 182.045 62.9491 181.937C62.9998 181.87 63.052 181.803 63.1038 181.736C63.2202 181.585 63.3392 181.434 63.461 181.283C63.5105 181.222 63.5595 181.16 63.6098 181.099C63.7788 180.893 63.9512 180.687 64.1291 180.482C64.3243 180.257 64.5227 180.036 64.7243 179.819C64.7885 179.75 64.8541 179.682 64.9189 179.613C65.0577 179.466 65.1976 179.32 65.3386 179.176C65.3999 179.113 65.4618 179.052 65.5236 178.99C65.804 178.709 66.0879 178.433 66.3769 178.166L66.4296 178.119C66.7109 177.86 66.9961 177.608 67.2849 177.363C67.3345 177.321 67.3838 177.278 67.4336 177.236C67.7244 176.991 68.018 176.754 68.3145 176.524C68.3735 176.478 68.4332 176.432 68.4927 176.387C68.7951 176.155 69.0993 175.929 69.4057 175.713C69.4327 175.694 69.46 175.676 69.4871 175.657C69.782 175.45 70.0784 175.251 70.3764 175.06C70.4255 175.028 70.4747 174.995 70.5239 174.964C70.8289 174.77 71.1347 174.584 71.4414 174.407C71.5035 174.371 71.5655 174.335 71.6276 174.3C71.9375 174.123 72.2475 173.953 72.5572 173.793C72.5915 173.775 72.6257 173.759 72.6598 173.742C72.956 173.591 73.2515 173.448 73.5464 173.313C73.596 173.291 73.6458 173.266 73.6954 173.244C73.9295 173.139 74.1632 173.038 74.3958 172.944L74.441 172.926C74.6586 172.838 74.8753 172.755 75.0909 172.677C75.1656 172.65 75.2397 172.625 75.3142 172.599C75.4712 172.544 75.6278 172.491 75.7836 172.441C75.8669 172.414 75.9499 172.389 76.0328 172.364C76.1833 172.318 76.3331 172.275 76.4821 172.235C76.5667 172.211 76.6515 172.187 76.7355 172.166C76.826 172.143 76.9159 172.122 77.0058 172.101C77.1097 172.076 77.2134 172.052 77.3165 172.03C77.406 172.011 77.4949 171.993 77.5838 171.976C77.6854 171.956 77.7867 171.938 77.8874 171.92C77.9759 171.905 78.0638 171.892 78.1515 171.879C78.2509 171.864 78.3498 171.85 78.4481 171.838C78.5347 171.827 78.621 171.818 78.7071 171.809C78.8069 171.799 78.9061 171.79 79.0048 171.783C79.0816 171.777 79.1581 171.772 79.2342 171.768C79.3347 171.762 79.434 171.759 79.5331 171.757C79.6074 171.755 79.6819 171.753 79.7554 171.753C79.8549 171.753 79.953 171.756 80.0505 171.759C80.1213 171.761 80.1922 171.762 80.2613 171.766C80.3627 171.772 80.462 171.781 80.5615 171.79C80.6251 171.796 80.6895 171.8 80.7523 171.807C80.8467 171.818 80.9392 171.833 81.0318 171.848C81.1006 171.858 81.1705 171.867 81.2383 171.879C81.3336 171.897 81.4263 171.919 81.5195 171.94C81.5815 171.954 81.6448 171.966 81.7057 171.981C81.8076 172.007 81.9063 172.039 82.0056 172.069C82.0548 172.085 82.1057 172.097 82.1543 172.114C82.3006 172.163 82.4435 172.218 82.5831 172.278C82.6945 172.326 82.7974 172.381 82.9018 172.435C82.9683 172.469 83.0375 172.501 83.1016 172.537C83.1926 172.589 83.2775 172.646 83.3633 172.703C83.4196 172.74 83.4788 172.773 83.5329 172.813C83.624 172.878 83.7082 172.95 83.7926 173.021C83.8346 173.056 83.88 173.088 83.9205 173.125C84.0417 173.233 84.1568 173.349 84.2651 173.471L80.4042 169.124C80.2959 169.002 80.1808 168.886 80.0595 168.778C80.0192 168.741 79.974 168.709 79.9321 168.674C79.8474 168.603 79.763 168.532 79.6716 168.466C79.6176 168.427 79.5582 168.393 79.5019 168.356C79.4161 168.299 79.3312 168.242 79.2402 168.19C79.1764 168.154 79.1074 168.122 79.041 168.088C78.9656 168.05 78.8937 168.008 78.815 167.972C78.7839 167.958 78.7528 167.944 78.7213 167.931C78.5819 167.871 78.439 167.816 78.2924 167.767C78.2436 167.75 78.1926 167.738 78.143 167.722C78.0441 167.692 77.9457 167.66 77.8439 167.634C77.7829 167.619 77.7196 167.607 77.6577 167.593C77.5644 167.572 77.4717 167.55 77.3763 167.532C77.3088 167.52 77.2393 167.511 77.1707 167.501C77.0917 167.489 77.0142 167.474 76.9339 167.464L76.8904 167.46C76.8277 167.453 76.7635 167.449 76.7 167.443C76.6004 167.434 76.5007 167.425 76.3992 167.419C76.3301 167.416 76.2596 167.414 76.1896 167.412C76.0913 167.409 75.9929 167.406 75.8929 167.406C75.8195 167.406 75.7452 167.408 75.6709 167.41C75.5721 167.412 75.4728 167.416 75.3725 167.421C75.296 167.425 75.2191 167.43 75.1419 167.436C75.0922 167.44 75.0435 167.441 74.9935 167.446C74.9435 167.45 74.8942 167.457 74.8449 167.462C74.7591 167.471 74.673 167.481 74.5864 167.491C74.4877 167.503 74.3885 167.517 74.2887 167.532C74.2013 167.545 74.1136 167.559 74.0253 167.574C73.9246 167.591 73.8232 167.61 73.7216 167.629C73.6327 167.647 73.5437 167.664 73.4541 167.683C73.3512 167.705 73.2477 167.729 73.144 167.754C73.0539 167.775 72.964 167.796 72.8733 167.819C72.8394 167.828 72.8062 167.835 72.7722 167.844C72.7218 167.857 72.6702 167.874 72.6195 167.888C72.4705 167.928 72.321 167.972 72.171 168.017C72.0884 168.042 72.0058 168.068 71.9225 168.094C71.7667 168.144 71.6102 168.197 71.4531 168.252C71.3782 168.278 71.3037 168.303 71.2288 168.33C71.0145 168.408 70.7992 168.491 70.5831 168.578L70.534 168.597C70.3012 168.692 70.0676 168.793 69.8333 168.898L69.7788 168.922C69.7479 168.936 69.7167 168.953 69.6858 168.967C69.3907 169.102 69.0949 169.245 68.7983 169.395C68.7641 169.413 68.73 169.429 68.6959 169.447C68.386 169.606 68.076 169.777 67.7659 169.953C67.7039 169.989 67.642 170.024 67.58 170.06C67.2731 170.238 66.9672 170.424 66.6623 170.618C66.6131 170.649 66.5642 170.682 66.515 170.713C66.2169 170.906 65.9199 171.105 65.6242 171.312C65.5978 171.33 65.5712 171.348 65.5448 171.366C65.2379 171.583 64.9339 171.809 64.6314 172.04C64.5723 172.086 64.5124 172.131 64.4529 172.178C64.1567 172.408 63.8632 172.645 63.5724 172.889C63.5223 172.932 63.4729 172.975 63.4231 173.017C63.1352 173.263 62.8504 173.514 62.5687 173.773L62.5153 173.821C62.2264 174.088 61.9429 174.364 61.6624 174.644C61.6314 174.676 61.5987 174.705 61.568 174.736C61.5373 174.767 61.5077 174.8 61.4771 174.83C61.3362 174.974 61.1967 175.12 61.0587 175.267C60.9934 175.336 60.9274 175.404 60.8629 175.474C60.6618 175.692 60.4635 175.913 60.268 176.136C60.0896 176.342 59.9173 176.547 59.7487 176.753C59.698 176.815 59.6488 176.877 59.599 176.939C59.4776 177.089 59.3587 177.24 59.2423 177.39C59.2131 177.429 59.1814 177.467 59.1524 177.505C59.1301 177.534 59.1095 177.563 59.0876 177.592C59.0061 177.7 58.927 177.807 58.8482 177.915C58.7933 177.99 58.738 178.064 58.6844 178.139C58.6033 178.252 58.5251 178.365 58.447 178.478C58.3998 178.547 58.3507 178.616 58.3045 178.685C58.2163 178.814 58.1317 178.945 58.0476 179.075C58.0146 179.126 57.9799 179.177 57.9473 179.228C57.8323 179.409 57.7212 179.59 57.6137 179.769L57.6084 179.778C57.586 179.816 57.5657 179.853 57.5436 179.89C57.4624 180.029 57.382 180.167 57.3053 180.304C57.2686 180.369 57.2345 180.435 57.1991 180.5C57.1384 180.612 57.0775 180.724 57.0198 180.835C56.9823 180.908 56.9469 180.98 56.9105 181.052C56.8582 181.156 56.8061 181.26 56.7564 181.363C56.721 181.438 56.6864 181.512 56.6519 181.587C56.6055 181.687 56.5596 181.787 56.5157 181.886C56.5027 181.916 56.4882 181.945 56.4755 181.975C56.4588 182.013 56.4449 182.051 56.4282 182.089C56.3732 182.22 56.3199 182.349 56.2685 182.479C56.2436 182.542 56.2185 182.605 56.1947 182.668C56.1386 182.815 56.0856 182.961 56.0356 183.107C56.022 183.147 56.007 183.187 55.9938 183.226C55.9322 183.41 55.8752 183.592 55.823 183.772C55.8095 183.819 55.7982 183.864 55.7853 183.91C55.7479 184.045 55.7125 184.179 55.6802 184.312C55.6739 184.338 55.6659 184.365 55.6599 184.39C55.6487 184.438 55.64 184.485 55.6295 184.532C55.6135 184.604 55.5975 184.677 55.583 184.749C55.5672 184.827 55.5529 184.905 55.539 184.982C55.5263 185.053 55.5136 185.125 55.5024 185.195C55.4906 185.271 55.4799 185.348 55.4696 185.423C55.4602 185.493 55.4507 185.563 55.4428 185.632C55.4343 185.707 55.4277 185.781 55.4211 185.856C55.4151 185.924 55.4093 185.992 55.4043 186.06C55.3995 186.133 55.3967 186.206 55.3937 186.279C55.391 186.345 55.388 186.412 55.387 186.477C55.3858 186.549 55.387 186.62 55.3876 186.692C55.3883 186.756 55.3885 186.82 55.3909 186.884C55.3935 186.955 55.3983 187.024 55.4027 187.093C55.4067 187.155 55.4101 187.218 55.4159 187.28C55.4222 187.348 55.4309 187.415 55.4395 187.483C55.4469 187.543 55.4535 187.604 55.4631 187.663C55.4733 187.731 55.4861 187.796 55.4985 187.862C55.5091 187.92 55.5189 187.978 55.5312 188.034C55.5454 188.1 55.5623 188.164 55.5784 188.229C55.5924 188.283 55.6051 188.339 55.6206 188.393C55.6359 188.455 55.657 188.517 55.677 188.58Z" fill="#FF9763"/>
<mask id="mask21_107_11317" style="mask-type:luminance" maskUnits="userSpaceOnUse" x="55" y="167" width="30" height="28">
<path fill-rule="evenodd" clip-rule="evenodd" d="M55.6765 188.58C55.6936 188.632 55.7093 188.685 55.7278 188.736C55.7503 188.798 55.7759 188.859 55.8005 188.919C55.8205 188.969 55.8391 189.019 55.8606 189.067C55.8876 189.128 55.918 189.187 55.9475 189.246C55.97 189.292 55.991 189.339 56.015 189.383C56.0482 189.445 56.0848 189.504 56.1205 189.564C56.1441 189.604 56.1662 189.645 56.1913 189.684C56.2335 189.75 56.2793 189.813 56.3247 189.876C56.3467 189.907 56.3667 189.939 56.3895 189.969C56.4592 190.061 56.5325 190.151 56.6095 190.238L60.4704 194.585C60.3934 194.498 60.32 194.409 60.2504 194.316C60.2275 194.286 60.2073 194.253 60.1853 194.223C60.1399 194.159 60.0943 194.096 60.0524 194.031C60.0273 193.992 60.0051 193.951 59.9815 193.911C59.9461 193.851 59.9093 193.792 59.8764 193.73C59.8528 193.686 59.8318 193.639 59.8092 193.594C59.7797 193.534 59.7491 193.475 59.7219 193.414C59.7005 193.366 59.6821 193.316 59.6629 193.267C59.6381 193.206 59.6123 193.146 59.5898 193.083C59.5713 193.032 59.5556 192.979 59.5386 192.927C59.5181 192.864 59.497 192.802 59.4788 192.738C59.4634 192.684 59.4505 192.628 59.4366 192.573C59.4204 192.508 59.4035 192.445 59.3894 192.379C59.3776 192.322 59.3673 192.264 59.3567 192.207C59.3449 192.141 59.3315 192.075 59.3213 192.008C59.3124 191.949 59.3058 191.889 59.2984 191.829C59.29 191.761 59.2813 191.693 59.2748 191.624C59.2692 191.563 59.2658 191.5 59.2617 191.439C59.2571 191.369 59.2522 191.299 59.2499 191.228C59.2476 191.165 59.2474 191.101 59.2467 191.036C59.2459 190.966 59.2449 190.894 59.2467 190.822C59.2477 190.756 59.2507 190.69 59.2534 190.624C59.2562 190.551 59.2592 190.478 59.264 190.404C59.2685 190.337 59.2747 190.269 59.2807 190.202C59.2873 190.127 59.294 190.052 59.3026 189.976C59.3103 189.908 59.3199 189.838 59.3291 189.769C59.3395 189.693 59.35 189.616 59.3621 189.539C59.3733 189.468 59.3857 189.397 59.3988 189.327C59.4126 189.249 59.4269 189.172 59.4426 189.094C59.4572 189.022 59.4732 188.949 59.4898 188.876C59.5065 188.803 59.5226 188.731 59.5403 188.658C59.5726 188.525 59.608 188.39 59.6454 188.256C59.6583 188.21 59.6698 188.164 59.6833 188.117C59.7356 187.937 59.7924 187.755 59.8537 187.572C59.8672 187.532 59.8826 187.491 59.8966 187.45C59.9467 187.305 59.999 187.16 60.0548 187.014C60.0784 186.951 60.1037 186.888 60.1286 186.825C60.1797 186.696 60.2329 186.566 60.2884 186.435C60.3171 186.368 60.3457 186.3 60.3754 186.233C60.4194 186.133 60.4656 186.032 60.5121 185.932C60.5464 185.858 60.5803 185.784 60.6158 185.71C60.6659 185.606 60.7185 185.501 60.7712 185.396C60.8066 185.325 60.842 185.254 60.8794 185.182C60.9376 185.07 60.999 184.957 61.0603 184.844C61.0957 184.779 61.1291 184.715 61.1653 184.65C61.2438 184.509 61.326 184.368 61.4092 184.227C61.4311 184.19 61.4513 184.153 61.4734 184.116C61.5809 183.935 61.6924 183.755 61.8078 183.573C61.8393 183.524 61.8732 183.474 61.9054 183.424C61.9904 183.293 62.0759 183.161 62.1651 183.03C62.211 182.962 62.2595 182.894 62.3067 182.826C62.3853 182.712 62.4641 182.598 62.5457 182.484C62.5989 182.41 62.6541 182.335 62.7085 182.261C62.7875 182.153 62.8669 182.045 62.9486 181.937C62.9993 181.87 63.0515 181.803 63.1033 181.736C63.2197 181.585 63.3388 181.434 63.4605 181.283C63.5101 181.222 63.559 181.16 63.6093 181.099C63.7783 180.893 63.9507 180.687 64.1287 180.482C64.3238 180.257 64.5222 180.036 64.7238 179.819C64.788 179.75 64.8536 179.682 64.9184 179.613C65.0572 179.466 65.1971 179.32 65.3381 179.176C65.3994 179.113 65.4613 179.052 65.5231 178.99C65.8035 178.709 66.0874 178.433 66.3764 178.166L66.4291 178.119C66.7105 177.86 66.9956 177.608 67.2844 177.363C67.334 177.321 67.3833 177.278 67.4332 177.236C67.7239 176.991 68.0175 176.754 68.314 176.524C68.373 176.478 68.4328 176.432 68.4922 176.387C68.7946 176.155 69.0988 175.929 69.4052 175.713C69.4322 175.694 69.4595 175.676 69.4867 175.657C69.7815 175.45 70.0779 175.251 70.3759 175.06C70.425 175.028 70.4742 174.995 70.5234 174.964C70.8284 174.77 71.1342 174.584 71.4409 174.407C71.503 174.371 71.565 174.335 71.6271 174.3C71.937 174.123 72.247 173.953 72.5567 173.793C72.591 173.775 72.6252 173.759 72.6593 173.742C72.9555 173.591 73.251 173.448 73.546 173.313C73.5955 173.291 73.6453 173.266 73.6949 173.244C73.929 173.139 74.1627 173.038 74.3953 172.944L74.4405 172.926C74.6582 172.838 74.8748 172.755 75.0904 172.677C75.1651 172.65 75.2392 172.625 75.3137 172.599C75.4707 172.544 75.6273 172.491 75.7831 172.441C75.8664 172.414 75.9494 172.389 76.0323 172.364C76.1828 172.318 76.3326 172.275 76.4816 172.235C76.5662 172.211 76.651 172.187 76.735 172.166C76.8256 172.143 76.9154 172.122 77.0053 172.101C77.1092 172.076 77.2129 172.052 77.316 172.03C77.4056 172.011 77.4944 171.993 77.5833 171.976C77.6849 171.956 77.7862 171.938 77.8869 171.92C77.9754 171.905 78.0633 171.892 78.151 171.879C78.2504 171.864 78.3493 171.85 78.4476 171.838C78.5342 171.827 78.6205 171.818 78.7066 171.809C78.8064 171.799 78.9056 171.79 79.0043 171.783C79.0812 171.777 79.1576 171.772 79.2337 171.768C79.3342 171.762 79.4336 171.759 79.5326 171.757C79.6069 171.755 79.6814 171.753 79.7549 171.753C79.8544 171.753 79.9525 171.756 80.05 171.759C80.1208 171.761 80.1917 171.762 80.2608 171.766C80.3622 171.772 80.4615 171.781 80.561 171.79C80.6246 171.796 80.689 171.8 80.7518 171.807C80.8463 171.818 80.9387 171.833 81.0313 171.848C81.1001 171.858 81.17 171.867 81.2378 171.879C81.3331 171.897 81.4258 171.919 81.519 171.94C81.581 171.954 81.6443 171.966 81.7052 171.981C81.8071 172.007 81.9058 172.039 82.0051 172.069C82.0543 172.085 82.1052 172.097 82.1538 172.114C82.3001 172.163 82.443 172.218 82.5826 172.278C82.694 172.326 82.7969 172.381 82.9013 172.435C82.9679 172.469 83.037 172.501 83.1011 172.537C83.1921 172.589 83.277 172.646 83.3628 172.703C83.4191 172.74 83.4783 172.773 83.5324 172.813C83.6235 172.878 83.7077 172.95 83.7921 173.021C83.8341 173.056 83.8795 173.088 83.92 173.125C84.0413 173.233 84.1563 173.349 84.2647 173.471L80.4038 169.124C80.2954 169.002 80.1803 168.886 80.059 168.778C80.0187 168.741 79.9735 168.709 79.9316 168.674C79.8469 168.603 79.7625 168.532 79.6711 168.466C79.6171 168.427 79.5577 168.393 79.5014 168.356C79.4156 168.299 79.3307 168.242 79.2397 168.19C79.1759 168.154 79.107 168.122 79.0405 168.088C78.9651 168.05 78.8932 168.008 78.8145 167.972C78.7834 167.958 78.7523 167.944 78.7208 167.931C78.5814 167.871 78.4385 167.816 78.292 167.767C78.2431 167.75 78.1921 167.738 78.1425 167.722C78.0436 167.692 77.9452 167.66 77.8434 167.634C77.7824 167.619 77.7192 167.607 77.6572 167.593C77.5639 167.572 77.4712 167.55 77.3758 167.532C77.3083 167.52 77.2388 167.511 77.1702 167.501C77.0912 167.489 77.0137 167.474 76.9334 167.464L76.8899 167.46C76.8272 167.453 76.763 167.449 76.6995 167.443C76.5999 167.434 76.5003 167.425 76.3988 167.419C76.3296 167.416 76.2591 167.414 76.1891 167.412C76.0908 167.409 75.9924 167.406 75.8924 167.406C75.819 167.406 75.7447 167.408 75.6704 167.41C75.5716 167.412 75.4723 167.416 75.372 167.421C75.2955 167.425 75.2186 167.43 75.1414 167.436C75.0917 167.44 75.0431 167.441 74.993 167.446C74.943 167.45 74.8937 167.457 74.8444 167.462C74.7586 167.471 74.6725 167.481 74.5859 167.491C74.4872 167.503 74.388 167.517 74.2882 167.532C74.2008 167.545 74.1131 167.559 74.0248 167.574C73.9241 167.591 73.8227 167.61 73.7211 167.629C73.6322 167.647 73.5432 167.664 73.4537 167.683C73.3507 167.705 73.2472 167.729 73.1435 167.754C73.0534 167.775 72.9635 167.796 72.8728 167.819C72.839 167.828 72.8057 167.835 72.7717 167.844C72.7213 167.857 72.6697 167.874 72.6191 167.888C72.47 167.928 72.3205 167.972 72.1705 168.017C72.0879 168.042 72.0053 168.068 71.922 168.094C71.7662 168.144 71.6097 168.197 71.4526 168.252C71.3777 168.278 71.3033 168.303 71.2283 168.33C71.014 168.408 70.7987 168.491 70.5826 168.578L70.5335 168.597C70.3007 168.692 70.0671 168.793 69.8328 168.898L69.7783 168.922C69.7474 168.936 69.7162 168.953 69.6853 168.967C69.3902 169.102 69.0944 169.245 68.7978 169.395C68.7636 169.413 68.7295 169.429 68.6954 169.447C68.3855 169.606 68.0755 169.777 67.7654 169.953C67.7034 169.989 67.6415 170.024 67.5795 170.06C67.2726 170.238 66.9667 170.424 66.6618 170.618C66.6126 170.649 66.5637 170.682 66.5145 170.713C66.2164 170.906 65.9195 171.105 65.6237 171.312C65.5973 171.33 65.5708 171.348 65.5443 171.366C65.2374 171.583 64.9334 171.809 64.6309 172.04C64.5719 172.086 64.5119 172.131 64.4524 172.178C64.1562 172.408 63.8627 172.645 63.5719 172.889C63.5219 172.932 63.4724 172.975 63.4226 173.017C63.1348 173.263 62.85 173.514 62.5682 173.773L62.5148 173.821C62.2259 174.088 61.9424 174.364 61.6619 174.644C61.6309 174.676 61.5982 174.705 61.5675 174.736C61.5368 174.767 61.5072 174.8 61.4766 174.83C61.3357 174.974 61.1962 175.12 61.0582 175.267C60.9929 175.336 60.927 175.404 60.8624 175.474C60.6613 175.692 60.463 175.913 60.2675 176.136C60.0891 176.342 59.9169 176.547 59.7482 176.753C59.6976 176.815 59.6483 176.877 59.5985 176.939C59.4771 177.089 59.3582 177.24 59.2418 177.39C59.2126 177.429 59.1809 177.467 59.1519 177.505C59.1296 177.534 59.1091 177.563 59.0871 177.592C59.0057 177.7 58.9265 177.807 58.8477 177.915C58.7929 177.99 58.7375 178.064 58.6839 178.139C58.6028 178.252 58.5246 178.365 58.4465 178.478C58.3993 178.547 58.3502 178.616 58.304 178.685C58.2158 178.814 58.1312 178.945 58.0471 179.075C58.0141 179.126 57.9794 179.177 57.9468 179.228C57.8318 179.409 57.7207 179.59 57.6133 179.769L57.6079 179.778C57.5855 179.816 57.5652 179.853 57.5431 179.89C57.4619 180.029 57.3816 180.167 57.3048 180.304C57.2681 180.369 57.234 180.435 57.1986 180.5C57.1379 180.612 57.077 180.724 57.0193 180.835C56.9818 180.908 56.9464 180.98 56.91 181.052C56.8577 181.156 56.8056 181.26 56.7559 181.363C56.7205 181.438 56.6859 181.512 56.6514 181.587C56.605 181.687 56.5591 181.787 56.5152 181.886C56.5022 181.916 56.4877 181.945 56.475 181.975C56.4583 182.013 56.4444 182.051 56.4278 182.089C56.3727 182.22 56.3194 182.349 56.2681 182.479C56.2432 182.542 56.218 182.605 56.1942 182.668C56.1381 182.815 56.0851 182.961 56.0351 183.107C56.0215 183.147 56.0065 183.187 55.9933 183.226C55.9317 183.41 55.8747 183.592 55.8225 183.772C55.809 183.819 55.7977 183.864 55.7848 183.91C55.7474 184.045 55.712 184.179 55.6797 184.312C55.6734 184.338 55.6654 184.365 55.6594 184.39C55.6482 184.438 55.6395 184.485 55.629 184.532C55.613 184.604 55.5971 184.677 55.5825 184.749C55.5667 184.827 55.5524 184.905 55.5385 184.982C55.5258 185.053 55.5131 185.125 55.5019 185.195C55.4901 185.271 55.4794 185.348 55.4691 185.423C55.4597 185.493 55.4502 185.563 55.4423 185.632C55.4338 185.707 55.4272 185.781 55.4206 185.856C55.4146 185.924 55.4088 185.992 55.4038 186.06C55.399 186.133 55.3962 186.206 55.3932 186.279C55.3905 186.345 55.3876 186.412 55.3865 186.477C55.3853 186.549 55.3865 186.62 55.3871 186.692C55.3878 186.756 55.388 186.82 55.3904 186.884C55.393 186.955 55.3978 187.024 55.4022 187.093C55.4062 187.155 55.4096 187.218 55.4154 187.28C55.4217 187.348 55.4304 187.415 55.439 187.483C55.4465 187.543 55.4531 187.604 55.4626 187.663C55.4728 187.731 55.4856 187.796 55.498 187.862C55.5087 187.92 55.5184 187.978 55.5307 188.034C55.5449 188.1 55.5618 188.164 55.5779 188.229C55.5919 188.283 55.6046 188.339 55.6201 188.393C55.6354 188.455 55.6565 188.517 55.6765 188.58Z" fill="white"/>
</mask>
<g mask="url(#mask21_107_11317)">
<path d="M71.9205 168.094C49.0284 176.408 60.7217 198.562 60.7217 198.562L52.7148 192.168L52.9844 173.992L64.9315 169.521" fill="#E84B23"/>
</g>
<path d="M70.6421 180.592C69.9369 180.74 69.3518 181.229 69.082 181.897C69.0504 182.013 69.1182 182.132 69.2335 182.164C69.3485 182.192 69.4655 182.126 69.5003 182.012C69.4843 182.051 69.5102 181.99 69.5111 181.989L69.5333 181.942C69.5501 181.908 69.5678 181.875 69.5866 181.842C69.6246 181.777 69.6661 181.714 69.7111 181.653C69.6874 181.686 69.7269 181.634 69.7279 181.632L69.7611 181.593C69.7858 181.564 69.8113 181.536 69.8376 181.509C69.8902 181.455 69.9459 181.404 70.0045 181.356C70.0081 181.353 70.0497 181.32 70.031 181.334C70.0124 181.348 70.0546 181.317 70.0588 181.314C70.0922 181.291 70.1265 181.267 70.1613 181.245C70.2254 181.205 70.2917 181.169 70.36 181.136L70.4072 181.115C70.4286 181.105 70.3854 181.123 70.4218 181.109C70.4583 181.095 70.4927 181.082 70.5281 181.07C70.6032 181.046 70.6799 181.026 70.7575 181.011C70.8722 180.978 70.9396 180.86 70.9089 180.744C70.8752 180.63 70.7574 180.564 70.6422 180.593L70.6421 180.592Z" fill="#E84B23"/>
<path d="M68.3997 172.131L68.0017 172.217C67.9176 172.24 67.8555 172.311 67.8442 172.398C67.8329 172.484 67.8745 172.569 67.9499 172.613C68.001 172.641 68.0605 172.649 68.117 172.635L68.515 172.549C68.5992 172.526 68.6612 172.455 68.6725 172.368C68.6838 172.282 68.6422 172.197 68.5668 172.153C68.5157 172.125 68.4562 172.118 68.3997 172.131Z" fill="#E84B23"/>
<ellipse cx="282.854" cy="167.672" rx="13.5399" ry="25.7337" transform="rotate(-54.9858 282.854 167.672)" fill="#FFC562"/>
<mask id="mask22_107_11317" style="mask-type:luminance" maskUnits="userSpaceOnUse" x="260" y="149" width="46" height="38">
<ellipse cx="282.854" cy="167.672" rx="13.5399" ry="25.7337" transform="rotate(-54.9858 282.854 167.672)" fill="white"/>
</mask>
<g mask="url(#mask22_107_11317)">
<path d="M262.458 171.426C255.314 149.116 273.759 148.378 286.946 151.724C300.133 155.071 266.688 140.984 266.688 140.984L252.7 148.346" fill="#D89D35"/>
</g>
<path d="M265.511 157.779C266.613 151.642 275.299 150.698 284.912 155.671C294.528 160.645 301.429 169.652 300.327 175.789C299.226 181.928 290.539 182.872 280.923 177.898C271.31 172.925 264.409 163.918 265.511 157.779Z" fill="#FF9763"/>
<path d="M296.269 192.246C296.345 192.2 296.423 192.155 296.496 192.107C296.586 192.047 296.671 191.985 296.758 191.923C296.828 191.874 296.899 191.825 296.968 191.774C297.054 191.708 297.135 191.638 297.217 191.57C297.281 191.517 297.346 191.467 297.408 191.412C297.492 191.337 297.572 191.257 297.653 191.178C297.707 191.126 297.763 191.076 297.815 191.023C297.903 190.932 297.985 190.836 298.068 190.74C298.108 190.694 298.151 190.651 298.19 190.604C298.309 190.46 298.423 190.311 298.531 190.157L303.929 182.451C303.821 182.605 303.708 182.754 303.588 182.898C303.549 182.945 303.506 182.989 303.466 183.036C303.383 183.13 303.301 183.226 303.214 183.317C303.161 183.371 303.105 183.421 303.051 183.473C302.97 183.552 302.891 183.631 302.806 183.707C302.745 183.76 302.68 183.811 302.617 183.863C302.535 183.932 302.452 184.002 302.366 184.068C302.299 184.119 302.227 184.167 302.157 184.217C302.07 184.279 301.985 184.342 301.895 184.401C301.821 184.449 301.744 184.494 301.668 184.54C301.577 184.596 301.487 184.652 301.394 184.704C301.314 184.749 301.231 184.79 301.15 184.833C301.055 184.882 300.961 184.933 300.863 184.979C300.778 185.02 300.69 185.057 300.603 185.095C300.504 185.139 300.405 185.184 300.303 185.225C300.214 185.261 300.122 185.294 300.031 185.328C299.926 185.367 299.823 185.406 299.716 185.442C299.622 185.474 299.525 185.503 299.429 185.532C299.321 185.566 299.214 185.599 299.103 185.63C299.004 185.657 298.902 185.682 298.802 185.707C298.69 185.735 298.578 185.763 298.464 185.788C298.361 185.811 298.256 185.831 298.151 185.852C298.034 185.874 297.918 185.897 297.8 185.917C297.693 185.935 297.584 185.951 297.475 185.967C297.355 185.984 297.235 186.002 297.112 186.017C297.001 186.03 296.889 186.041 296.776 186.052C296.652 186.064 296.528 186.077 296.402 186.086C296.286 186.095 296.17 186.102 296.053 186.108C295.926 186.115 295.799 186.122 295.67 186.126C295.551 186.13 295.43 186.132 295.309 186.134C295.189 186.136 295.068 186.137 294.947 186.136C294.725 186.135 294.501 186.13 294.275 186.121C294.197 186.118 294.12 186.118 294.042 186.114C293.739 186.099 293.431 186.078 293.119 186.05C293.051 186.044 292.981 186.035 292.912 186.028C292.665 186.003 292.416 185.975 292.164 185.942C292.057 185.928 291.948 185.912 291.84 185.897C291.617 185.865 291.393 185.829 291.167 185.79C291.05 185.771 290.934 185.751 290.816 185.729C290.642 185.697 290.467 185.662 290.291 185.627C290.161 185.6 290.033 185.575 289.903 185.546C289.72 185.507 289.535 185.463 289.351 185.419C289.225 185.39 289.1 185.361 288.973 185.329C288.774 185.28 288.574 185.225 288.373 185.171C288.259 185.14 288.145 185.111 288.029 185.078C287.778 185.007 287.525 184.931 287.271 184.853C287.205 184.832 287.139 184.814 287.072 184.794C286.748 184.692 286.422 184.584 286.094 184.47C286.003 184.439 285.912 184.405 285.822 184.373C285.583 184.288 285.345 184.202 285.104 184.112C284.98 184.064 284.855 184.014 284.73 183.966C284.521 183.885 284.312 183.803 284.102 183.718C283.966 183.662 283.828 183.603 283.69 183.545C283.491 183.461 283.291 183.377 283.091 183.289C282.966 183.234 282.841 183.177 282.716 183.12C282.435 182.994 282.153 182.863 281.869 182.727C281.754 182.672 281.639 182.618 281.524 182.562C281.136 182.373 280.748 182.179 280.357 181.975C279.931 181.752 279.509 181.522 279.092 181.286C278.958 181.211 278.827 181.132 278.694 181.056C278.41 180.893 278.128 180.728 277.848 180.559C277.727 180.486 277.607 180.412 277.487 180.338C276.94 180.001 276.399 179.658 275.87 179.303C275.838 179.281 275.807 179.259 275.775 179.238C275.262 178.891 274.759 178.537 274.265 178.174C274.18 178.112 274.093 178.05 274.009 177.987C273.515 177.621 273.032 177.248 272.558 176.867C272.464 176.791 272.369 176.714 272.276 176.638C271.798 176.248 271.328 175.854 270.873 175.453C270.833 175.417 270.794 175.381 270.754 175.346C270.319 174.959 269.894 174.566 269.481 174.169C269.413 174.104 269.343 174.038 269.275 173.973C268.856 173.565 268.449 173.153 268.054 172.737C267.974 172.653 267.895 172.568 267.816 172.484C267.422 172.062 267.037 171.638 266.67 171.21C266.63 171.162 266.591 171.115 266.551 171.068C266.203 170.658 265.867 170.246 265.545 169.832C265.491 169.763 265.434 169.693 265.38 169.624C265.128 169.294 264.881 168.964 264.645 168.634C264.63 168.612 264.616 168.59 264.6 168.569C264.381 168.259 264.169 167.949 263.965 167.639C263.894 167.532 263.827 167.424 263.758 167.317C263.613 167.09 263.471 166.863 263.334 166.637C263.261 166.516 263.19 166.394 263.119 166.273C262.991 166.054 262.867 165.834 262.748 165.614C262.68 165.49 262.611 165.365 262.545 165.241C262.474 165.107 262.408 164.974 262.341 164.84C262.263 164.685 262.187 164.531 262.113 164.377C262.05 164.243 261.989 164.11 261.929 163.976C261.86 163.823 261.792 163.671 261.727 163.519C261.67 163.385 261.616 163.252 261.563 163.118C261.502 162.967 261.444 162.817 261.388 162.667C261.338 162.534 261.291 162.402 261.245 162.27C261.192 162.117 261.141 161.964 261.091 161.811C261.054 161.692 261.017 161.574 260.982 161.455C260.936 161.299 260.894 161.144 260.852 160.989C260.822 160.872 260.791 160.756 260.763 160.64C260.726 160.484 260.693 160.328 260.661 160.173C260.639 160.061 260.614 159.949 260.594 159.838C260.565 159.677 260.542 159.517 260.519 159.357C260.505 159.254 260.487 159.152 260.475 159.05C260.457 158.896 260.446 158.746 260.434 158.595C260.425 158.482 260.412 158.369 260.407 158.258C260.398 158.101 260.398 157.947 260.397 157.792C260.395 157.69 260.39 157.586 260.392 157.484C260.395 157.314 260.407 157.146 260.419 156.979C260.424 156.895 260.426 156.811 260.433 156.728C260.457 156.479 260.488 156.233 260.531 155.991C260.565 155.798 260.613 155.615 260.659 155.43C260.687 155.312 260.712 155.192 260.745 155.077C260.792 154.914 260.851 154.759 260.908 154.603C260.945 154.501 260.977 154.394 261.017 154.295C261.087 154.127 261.167 153.968 261.247 153.808C261.287 153.728 261.321 153.645 261.363 153.567C261.489 153.336 261.628 153.111 261.779 152.895L256.381 160.6C256.229 160.817 256.091 161.041 255.964 161.273C255.922 161.35 255.889 161.433 255.849 161.512C255.769 161.672 255.688 161.832 255.619 162C255.578 162.1 255.546 162.206 255.509 162.309C255.452 162.465 255.394 162.62 255.347 162.783C255.313 162.897 255.289 163.017 255.26 163.135C255.228 163.268 255.189 163.397 255.162 163.534C255.152 163.588 255.142 163.642 255.132 163.697C255.09 163.939 255.058 164.184 255.035 164.433C255.027 164.516 255.026 164.602 255.02 164.685C255.008 164.852 254.997 165.019 254.994 165.189C254.992 165.291 254.997 165.395 254.998 165.498C255 165.653 255 165.807 255.008 165.964C255.014 166.075 255.026 166.188 255.035 166.299C255.046 166.428 255.052 166.555 255.067 166.685C255.069 166.709 255.074 166.733 255.077 166.755C255.089 166.857 255.106 166.96 255.121 167.062C255.144 167.223 255.167 167.383 255.196 167.545C255.216 167.655 255.24 167.766 255.263 167.878C255.295 168.033 255.327 168.19 255.365 168.347C255.393 168.462 255.423 168.579 255.454 168.695C255.494 168.85 255.536 169.005 255.583 169.161C255.618 169.28 255.655 169.399 255.693 169.518C255.717 169.595 255.738 169.672 255.764 169.748C255.789 169.825 255.819 169.9 255.845 169.976C255.891 170.108 255.939 170.24 255.988 170.372C256.044 170.523 256.103 170.674 256.164 170.825C256.217 170.958 256.271 171.091 256.328 171.225C256.392 171.377 256.46 171.529 256.529 171.682C256.589 171.815 256.65 171.949 256.714 172.083C256.787 172.237 256.864 172.391 256.941 172.545C257.008 172.679 257.075 172.812 257.146 172.946C257.172 172.996 257.195 173.046 257.222 173.096C257.262 173.171 257.308 173.246 257.348 173.32C257.468 173.54 257.592 173.759 257.72 173.979C257.791 174.1 257.862 174.221 257.934 174.341C258.071 174.568 258.213 174.795 258.358 175.021C258.428 175.129 258.495 175.237 258.566 175.345C258.769 175.654 258.979 175.962 259.197 176.269C259.214 176.293 259.229 176.317 259.246 176.34C259.482 176.67 259.728 177 259.982 177.33C260.001 177.356 260.019 177.381 260.039 177.407C260.073 177.451 260.111 177.493 260.144 177.537C260.467 177.951 260.803 178.363 261.152 178.774C261.192 178.821 261.23 178.868 261.271 178.915C261.638 179.343 262.022 179.768 262.417 180.19C262.496 180.275 262.575 180.359 262.655 180.443C263.05 180.859 263.457 181.271 263.876 181.679C263.943 181.745 264.013 181.81 264.082 181.875C264.496 182.272 264.921 182.665 265.356 183.054C265.395 183.088 265.433 183.124 265.472 183.158C265.928 183.56 266.397 183.954 266.875 184.344C266.97 184.421 267.063 184.497 267.159 184.574C267.632 184.954 268.116 185.327 268.609 185.693C268.694 185.756 268.78 185.818 268.866 185.881C269.36 186.242 269.863 186.596 270.374 186.943C270.407 186.965 270.438 186.987 270.47 187.009C270.999 187.364 271.54 187.707 272.086 188.043C272.147 188.081 272.205 188.121 272.266 188.158C272.327 188.195 272.389 188.229 272.449 188.266C272.728 188.434 273.01 188.598 273.293 188.762C273.426 188.838 273.558 188.917 273.693 188.992C274.11 189.227 274.532 189.457 274.958 189.681C275.348 189.885 275.736 190.079 276.124 190.268C276.24 190.324 276.355 190.379 276.471 190.434C276.754 190.569 277.035 190.7 277.316 190.827C277.387 190.859 277.459 190.894 277.529 190.925C277.584 190.949 277.637 190.971 277.691 190.995C277.891 191.083 278.09 191.167 278.289 191.251C278.427 191.309 278.566 191.369 278.704 191.425C278.912 191.51 279.12 191.591 279.327 191.671C279.453 191.721 279.579 191.771 279.705 191.819C279.943 191.909 280.179 191.993 280.415 192.077C280.508 192.11 280.602 192.145 280.694 192.177C281.022 192.291 281.348 192.398 281.671 192.5L281.687 192.505C281.754 192.526 281.82 192.544 281.887 192.565C282.135 192.641 282.383 192.716 282.628 192.785C282.745 192.818 282.861 192.848 282.978 192.88C283.176 192.934 283.375 192.987 283.572 193.037C283.7 193.069 283.827 193.097 283.954 193.128C284.137 193.171 284.32 193.214 284.502 193.254C284.633 193.282 284.763 193.308 284.893 193.335C285.068 193.37 285.243 193.405 285.416 193.437C285.467 193.446 285.519 193.458 285.57 193.467C285.637 193.479 285.701 193.487 285.768 193.498C285.993 193.536 286.218 193.572 286.44 193.604C286.549 193.619 286.657 193.635 286.765 193.65C287.018 193.682 287.269 193.711 287.517 193.735C287.584 193.742 287.652 193.751 287.719 193.757C288.032 193.785 288.34 193.806 288.643 193.821C288.721 193.825 288.798 193.826 288.875 193.829C289.102 193.837 289.326 193.843 289.548 193.844C289.591 193.844 289.636 193.847 289.678 193.847C289.757 193.847 289.834 193.842 289.912 193.841C290.032 193.84 290.152 193.837 290.271 193.834C290.4 193.829 290.527 193.822 290.655 193.815C290.772 193.809 290.888 193.802 291.004 193.793C291.129 193.784 291.253 193.772 291.376 193.759C291.489 193.748 291.603 193.737 291.714 193.723C291.836 193.709 291.955 193.691 292.075 193.674C292.184 193.658 292.294 193.642 292.402 193.624C292.52 193.604 292.635 193.581 292.751 193.559C292.857 193.538 292.962 193.518 293.066 193.495C293.18 193.47 293.291 193.442 293.403 193.414C293.504 193.389 293.606 193.364 293.705 193.337C293.815 193.306 293.922 193.273 294.029 193.24C294.126 193.21 294.223 193.181 294.318 193.149C294.424 193.114 294.527 193.074 294.63 193.036C294.722 193.002 294.815 192.968 294.905 192.932C295.007 192.891 295.106 192.846 295.205 192.802C295.291 192.764 295.379 192.727 295.464 192.687C295.562 192.639 295.656 192.589 295.752 192.539C295.833 192.497 295.916 192.456 295.995 192.411C296.089 192.358 296.179 192.301 296.269 192.246Z" fill="#FF9763"/>
<mask id="mask23_107_11317" style="mask-type:luminance" maskUnits="userSpaceOnUse" x="254" y="152" width="50" height="42">
<path fill-rule="evenodd" clip-rule="evenodd" d="M296.269 192.246C296.345 192.2 296.423 192.155 296.496 192.107C296.586 192.047 296.671 191.985 296.758 191.923C296.828 191.874 296.899 191.825 296.968 191.774C297.054 191.708 297.135 191.638 297.217 191.57C297.281 191.517 297.346 191.467 297.408 191.412C297.492 191.337 297.572 191.257 297.653 191.178C297.707 191.126 297.763 191.076 297.815 191.023C297.903 190.932 297.985 190.836 298.068 190.74C298.108 190.694 298.151 190.651 298.19 190.604C298.309 190.46 298.423 190.311 298.531 190.157L303.929 182.451C303.821 182.605 303.708 182.754 303.588 182.898C303.549 182.945 303.506 182.989 303.466 183.036C303.383 183.13 303.301 183.226 303.214 183.317C303.161 183.371 303.105 183.421 303.051 183.473C302.97 183.552 302.891 183.631 302.806 183.707C302.745 183.76 302.68 183.811 302.617 183.863C302.535 183.932 302.452 184.002 302.366 184.068C302.299 184.119 302.227 184.167 302.157 184.217C302.07 184.279 301.985 184.342 301.895 184.401C301.821 184.449 301.744 184.494 301.668 184.54C301.577 184.596 301.487 184.652 301.394 184.704C301.314 184.749 301.231 184.79 301.15 184.833C301.055 184.882 300.961 184.933 300.863 184.979C300.778 185.02 300.69 185.057 300.603 185.095C300.504 185.139 300.405 185.184 300.303 185.225C300.214 185.261 300.122 185.294 300.031 185.328C299.926 185.367 299.823 185.406 299.716 185.442C299.622 185.474 299.525 185.503 299.429 185.532C299.321 185.566 299.214 185.599 299.103 185.63C299.004 185.657 298.902 185.682 298.802 185.707C298.69 185.735 298.578 185.763 298.464 185.788C298.361 185.811 298.256 185.831 298.151 185.852C298.034 185.874 297.918 185.897 297.8 185.917C297.693 185.935 297.584 185.951 297.475 185.967C297.355 185.984 297.235 186.002 297.112 186.017C297.001 186.03 296.889 186.041 296.776 186.052C296.652 186.064 296.528 186.077 296.402 186.086C296.286 186.095 296.17 186.102 296.053 186.108C295.926 186.115 295.799 186.122 295.67 186.126C295.551 186.13 295.43 186.132 295.309 186.134C295.189 186.136 295.068 186.137 294.947 186.136C294.725 186.135 294.501 186.13 294.275 186.121C294.197 186.118 294.12 186.118 294.042 186.114C293.739 186.099 293.431 186.078 293.119 186.05C293.051 186.044 292.981 186.035 292.912 186.028C292.665 186.003 292.416 185.975 292.164 185.942C292.057 185.928 291.948 185.912 291.84 185.897C291.617 185.865 291.393 185.829 291.167 185.79C291.05 185.771 290.934 185.751 290.816 185.729C290.642 185.697 290.467 185.662 290.291 185.627C290.161 185.6 290.033 185.575 289.903 185.546C289.72 185.507 289.535 185.463 289.351 185.419C289.225 185.39 289.1 185.361 288.973 185.329C288.774 185.28 288.574 185.225 288.373 185.171C288.259 185.14 288.145 185.111 288.029 185.078C287.778 185.007 287.525 184.931 287.271 184.853C287.205 184.832 287.139 184.814 287.072 184.794C286.748 184.692 286.422 184.584 286.094 184.47C286.003 184.439 285.912 184.405 285.822 184.373C285.583 184.288 285.345 184.202 285.104 184.112C284.98 184.064 284.855 184.014 284.73 183.966C284.521 183.885 284.312 183.803 284.102 183.718C283.966 183.662 283.828 183.603 283.69 183.545C283.491 183.461 283.291 183.377 283.091 183.289C282.966 183.234 282.841 183.177 282.716 183.12C282.435 182.994 282.153 182.863 281.869 182.727C281.754 182.672 281.639 182.618 281.524 182.562C281.136 182.373 280.748 182.179 280.357 181.975C279.931 181.752 279.509 181.522 279.092 181.286C278.958 181.211 278.827 181.132 278.694 181.056C278.41 180.893 278.128 180.728 277.848 180.559C277.727 180.486 277.607 180.412 277.487 180.338C276.94 180.001 276.399 179.658 275.87 179.303C275.838 179.281 275.807 179.259 275.775 179.238C275.262 178.891 274.759 178.537 274.265 178.174C274.18 178.112 274.093 178.05 274.009 177.987C273.515 177.621 273.032 177.248 272.558 176.867C272.464 176.791 272.369 176.714 272.276 176.638C271.798 176.248 271.328 175.854 270.873 175.453C270.833 175.417 270.794 175.381 270.754 175.346C270.319 174.959 269.894 174.566 269.481 174.169C269.413 174.104 269.343 174.038 269.275 173.973C268.856 173.565 268.449 173.153 268.054 172.737C267.974 172.653 267.895 172.568 267.816 172.484C267.422 172.062 267.037 171.638 266.67 171.21C266.63 171.162 266.591 171.115 266.551 171.068C266.203 170.658 265.867 170.246 265.545 169.832C265.491 169.763 265.434 169.693 265.38 169.624C265.128 169.294 264.881 168.964 264.645 168.634C264.63 168.612 264.616 168.59 264.6 168.569C264.381 168.259 264.169 167.949 263.965 167.639C263.894 167.532 263.827 167.424 263.758 167.317C263.613 167.09 263.471 166.863 263.334 166.637C263.261 166.516 263.19 166.394 263.119 166.273C262.991 166.054 262.867 165.834 262.748 165.614C262.68 165.49 262.611 165.365 262.545 165.241C262.474 165.107 262.408 164.974 262.341 164.84C262.263 164.685 262.187 164.531 262.113 164.377C262.05 164.243 261.989 164.11 261.929 163.976C261.86 163.823 261.792 163.671 261.727 163.519C261.67 163.385 261.616 163.252 261.563 163.118C261.502 162.967 261.444 162.817 261.388 162.667C261.338 162.534 261.291 162.402 261.245 162.27C261.192 162.117 261.141 161.964 261.091 161.811C261.054 161.692 261.017 161.574 260.982 161.455C260.936 161.299 260.894 161.144 260.852 160.989C260.822 160.872 260.791 160.756 260.763 160.64C260.726 160.484 260.693 160.328 260.661 160.173C260.639 160.061 260.614 159.949 260.594 159.838C260.565 159.677 260.542 159.517 260.519 159.357C260.505 159.254 260.487 159.152 260.475 159.05C260.457 158.896 260.446 158.746 260.434 158.595C260.425 158.482 260.412 158.369 260.407 158.258C260.398 158.101 260.398 157.947 260.397 157.792C260.395 157.69 260.39 157.586 260.392 157.484C260.395 157.314 260.407 157.146 260.419 156.979C260.424 156.895 260.426 156.811 260.433 156.728C260.457 156.479 260.488 156.233 260.531 155.991C260.565 155.798 260.613 155.615 260.659 155.43C260.687 155.312 260.712 155.192 260.745 155.077C260.792 154.914 260.851 154.759 260.908 154.603C260.945 154.501 260.977 154.394 261.017 154.295C261.087 154.127 261.167 153.968 261.247 153.808C261.287 153.728 261.321 153.645 261.363 153.567C261.489 153.336 261.628 153.111 261.779 152.895L256.381 160.6C256.229 160.817 256.091 161.041 255.964 161.273C255.922 161.35 255.889 161.433 255.849 161.512C255.769 161.672 255.688 161.832 255.619 162C255.578 162.1 255.546 162.206 255.509 162.309C255.452 162.465 255.394 162.62 255.347 162.783C255.313 162.897 255.289 163.017 255.26 163.135C255.228 163.268 255.189 163.397 255.162 163.534C255.152 163.588 255.142 163.642 255.132 163.697C255.09 163.939 255.058 164.184 255.035 164.433C255.027 164.516 255.026 164.602 255.02 164.685C255.008 164.852 254.997 165.019 254.994 165.189C254.992 165.291 254.997 165.395 254.998 165.498C255 165.653 255 165.807 255.008 165.964C255.014 166.075 255.026 166.188 255.035 166.299C255.046 166.428 255.052 166.555 255.067 166.685C255.069 166.709 255.074 166.733 255.077 166.755C255.089 166.857 255.106 166.96 255.121 167.062C255.144 167.223 255.167 167.383 255.196 167.545C255.216 167.655 255.24 167.766 255.263 167.878C255.295 168.033 255.327 168.19 255.365 168.347C255.393 168.462 255.423 168.579 255.454 168.695C255.494 168.85 255.536 169.005 255.583 169.161C255.618 169.28 255.655 169.399 255.693 169.518C255.717 169.595 255.738 169.672 255.764 169.748C255.789 169.825 255.819 169.9 255.845 169.976C255.891 170.108 255.939 170.24 255.988 170.372C256.044 170.523 256.103 170.674 256.164 170.825C256.217 170.958 256.271 171.091 256.328 171.225C256.392 171.377 256.46 171.529 256.529 171.682C256.589 171.815 256.65 171.949 256.714 172.083C256.787 172.237 256.864 172.391 256.941 172.545C257.008 172.679 257.075 172.812 257.146 172.946C257.172 172.996 257.195 173.046 257.222 173.096C257.262 173.171 257.308 173.246 257.348 173.32C257.468 173.54 257.592 173.759 257.72 173.979C257.791 174.1 257.862 174.221 257.934 174.341C258.071 174.568 258.213 174.795 258.358 175.021C258.428 175.129 258.495 175.237 258.566 175.345C258.769 175.654 258.979 175.962 259.197 176.269C259.214 176.293 259.229 176.317 259.246 176.34C259.482 176.67 259.728 177 259.982 177.33C260.001 177.356 260.019 177.381 260.039 177.407C260.073 177.451 260.111 177.493 260.144 177.537C260.467 177.951 260.803 178.363 261.152 178.774C261.192 178.821 261.23 178.868 261.271 178.915C261.638 179.343 262.022 179.768 262.417 180.19C262.496 180.275 262.575 180.359 262.655 180.443C263.05 180.859 263.457 181.271 263.876 181.679C263.943 181.745 264.013 181.81 264.082 181.875C264.496 182.272 264.921 182.665 265.356 183.054C265.395 183.088 265.433 183.124 265.472 183.158C265.928 183.56 266.397 183.954 266.875 184.344C266.97 184.421 267.063 184.497 267.159 184.574C267.632 184.954 268.116 185.327 268.609 185.693C268.694 185.756 268.78 185.818 268.866 185.881C269.36 186.242 269.863 186.596 270.374 186.943C270.407 186.965 270.438 186.987 270.47 187.009C270.999 187.364 271.54 187.707 272.086 188.043C272.147 188.081 272.205 188.121 272.266 188.158C272.327 188.195 272.389 188.229 272.449 188.266C272.728 188.434 273.01 188.598 273.293 188.762C273.426 188.838 273.558 188.917 273.693 188.992C274.11 189.227 274.532 189.457 274.958 189.681C275.348 189.885 275.736 190.079 276.124 190.268C276.24 190.324 276.355 190.379 276.471 190.434C276.754 190.569 277.035 190.7 277.316 190.827C277.387 190.859 277.459 190.894 277.529 190.925C277.584 190.949 277.637 190.971 277.691 190.995C277.891 191.083 278.09 191.167 278.289 191.251C278.427 191.309 278.566 191.369 278.704 191.425C278.912 191.51 279.12 191.591 279.327 191.671C279.453 191.721 279.579 191.771 279.705 191.819C279.943 191.909 280.179 191.993 280.415 192.077C280.508 192.11 280.602 192.145 280.694 192.177C281.022 192.291 281.348 192.398 281.671 192.5L281.687 192.505C281.754 192.526 281.82 192.544 281.887 192.565C282.135 192.641 282.383 192.716 282.628 192.785C282.745 192.818 282.861 192.848 282.978 192.88C283.176 192.934 283.375 192.987 283.572 193.037C283.7 193.069 283.827 193.097 283.954 193.128C284.137 193.171 284.32 193.214 284.502 193.254C284.633 193.282 284.763 193.308 284.893 193.335C285.068 193.37 285.243 193.405 285.416 193.437C285.467 193.446 285.519 193.458 285.57 193.467C285.637 193.479 285.701 193.487 285.768 193.498C285.993 193.536 286.218 193.572 286.44 193.604C286.549 193.619 286.657 193.635 286.765 193.65C287.018 193.682 287.269 193.711 287.517 193.735C287.584 193.742 287.652 193.751 287.719 193.757C288.032 193.785 288.34 193.806 288.643 193.821C288.721 193.825 288.798 193.826 288.875 193.829C289.102 193.837 289.326 193.843 289.548 193.844C289.591 193.844 289.636 193.847 289.678 193.847C289.757 193.847 289.834 193.842 289.912 193.841C290.032 193.84 290.152 193.837 290.271 193.834C290.4 193.829 290.527 193.822 290.655 193.815C290.772 193.809 290.888 193.802 291.004 193.793C291.129 193.784 291.253 193.772 291.376 193.759C291.489 193.748 291.603 193.737 291.714 193.723C291.836 193.709 291.955 193.691 292.075 193.674C292.184 193.658 292.294 193.642 292.402 193.624C292.52 193.604 292.635 193.581 292.751 193.559C292.857 193.538 292.962 193.518 293.066 193.495C293.18 193.47 293.291 193.442 293.403 193.414C293.504 193.389 293.606 193.364 293.705 193.337C293.815 193.306 293.922 193.273 294.029 193.24C294.126 193.21 294.223 193.181 294.318 193.149C294.424 193.114 294.527 193.074 294.63 193.036C294.722 193.002 294.815 192.968 294.905 192.932C295.007 192.891 295.106 192.846 295.205 192.802C295.291 192.764 295.379 192.727 295.464 192.687C295.562 192.639 295.656 192.589 295.752 192.539C295.833 192.497 295.916 192.456 295.995 192.411C296.089 192.358 296.179 192.301 296.269 192.246Z" fill="white"/>
</mask>
<g mask="url(#mask23_107_11317)">
<path d="M306.518 184.758C294.42 195.938 270.471 187.009 270.471 187.009L274.734 201.235C274.734 201.235 292.973 203.902 299.328 198.353L305.683 192.805" fill="#E84B23"/>
</g>
<path d="M286.502 162.301C287.523 164.175 288.324 166.161 288.889 168.219C288.958 168.442 289.191 168.569 289.416 168.507C289.64 168.445 289.775 168.216 289.721 167.99C289.135 165.86 288.305 163.805 287.248 161.866C286.982 161.378 286.236 161.813 286.502 162.301Z" fill="#E84B23"/>
<path d="M268.508 182.87L271.396 184.16C271.603 184.273 271.861 184.205 271.986 184.005C272.104 183.799 272.035 183.537 271.831 183.415L268.944 182.125C268.737 182.012 268.478 182.08 268.353 182.279C268.235 182.485 268.304 182.748 268.508 182.87H268.508Z" fill="#E84B23"/>
</g>
<path d="M70.3639 100.131C70.3639 96.6436 67.5367 93.8164 64.0492 93.8164C60.5616 93.8164 57.7344 96.6436 57.7344 100.131V107.704C57.7344 111.191 60.5616 114.018 64.0492 114.018C67.5367 114.018 70.3639 111.191 70.3639 107.704V100.131Z" fill="#FFC562"/>
<path d="M64.0491 112V119.075" stroke="#FFC562" stroke-width="2" stroke-miterlimit="10" stroke-linecap="round"/>
<path d="M60.4277 119.074H67.6648" stroke="#FFC562" stroke-width="2" stroke-miterlimit="10" stroke-linecap="round"/>
</svg>
