<svg width="360" height="228" viewBox="0 0 360 228" fill="none" xmlns="http://www.w3.org/2000/svg">
<rect width="360" height="228" fill="#FA7662"/>
<path d="M179.971 199.23C232.19 199.23 274.522 161.534 274.522 115.032C274.522 68.5308 232.19 30.834 179.971 30.834C127.752 30.834 85.4204 68.5308 85.4204 115.032C85.4204 161.534 127.752 199.23 179.971 199.23Z" fill="#FF8A78"/>
<path d="M118.576 59.7098L106.104 60.0002L107.996 70.682L125.698 70.1213L118.576 59.7098Z" fill="white"/>
<path d="M122.25 62.2954C122.25 62.2954 126.701 60.7864 128.696 61.4385C130.467 62.0195 130.283 64.4071 129.377 64.4071C128.933 64.4071 128.007 63.2699 128.007 63.2699L125.477 65.476L122.25 62.2954Z" fill="white"/>
<path d="M132.666 66.8332C131.911 67.1236 128.033 68.1664 128.033 68.1664L125.843 65.2386C129.007 64.6039 131.428 64.2873 132.684 64.7404C133.254 64.9452 134.055 66.3031 132.666 66.8332Z" fill="white"/>
<path d="M124.376 67.5976C124.376 67.5976 136.668 67.1618 137.093 68.4689C137.517 69.776 127.085 69.9924 127.085 69.9924L124.376 67.5976Z" fill="white"/>
<path d="M126.108 62.5628C125.515 63.1771 126.075 64.14 126.709 64.6846C127.344 65.2292 128.142 65.556 128.928 64.8879C129.749 64.1879 128.608 62.9506 128.37 62.7095C128.247 62.5528 128.085 62.4223 127.896 62.3275C127.707 62.2328 127.497 62.1763 127.279 62.1622C127.062 62.1481 126.844 62.1768 126.641 62.2462C126.439 62.3155 126.257 62.4237 126.108 62.5628Z" fill="#0A1A29"/>
<path d="M128.696 61.4403C130.467 62.0212 130.285 64.4088 129.378 64.4088C128.933 64.4088 128.18 63.4924 127.879 63.016C127.577 62.5397 126.701 60.7882 128.696 61.4403Z" fill="white"/>
<path d="M120.564 59.8181C120.564 59.8181 123.973 57.7544 125.969 58.4064C127.739 58.9874 127.556 61.375 126.65 61.375C126.205 61.375 125.441 60.4571 125.441 60.4571L123.131 62.7909L120.564 59.8181Z" fill="white"/>
<path d="M123.379 59.5279C122.787 60.1422 123.346 61.1051 123.981 61.6497C124.615 62.1943 125.413 62.5211 126.199 61.853C127.022 61.153 125.879 59.9157 125.641 59.6746C125.518 59.5179 125.356 59.3873 125.167 59.2926C124.979 59.1979 124.768 59.1414 124.551 59.1273C124.333 59.1132 124.116 59.1419 123.913 59.2112C123.71 59.2806 123.528 59.3888 123.379 59.5279Z" fill="#0A1A29"/>
<path d="M125.969 58.4041C127.738 58.9851 127.557 61.3727 126.651 61.3727C126.206 61.3727 125.453 60.4563 125.152 59.9799C124.85 59.5036 123.973 57.7521 125.969 58.4041Z" fill="white"/>
<path d="M128.79 65.5774C128.197 66.1917 128.756 67.1546 129.391 67.6992C130.025 68.2438 130.822 68.5706 131.609 67.9025C132.432 67.2025 131.289 65.9652 131.051 65.7241C130.928 65.5674 130.766 65.4368 130.578 65.3421C130.389 65.2474 130.178 65.1909 129.961 65.1768C129.744 65.1627 129.526 65.1914 129.323 65.2607C129.12 65.3301 128.938 65.4383 128.79 65.5774Z" fill="#0A1A29"/>
<path d="M133.426 65.9294C133.439 66.334 133.308 66.7322 133.052 67.0694C132.997 67.172 132.913 67.2603 132.807 67.3255C132.701 67.3907 132.577 67.4305 132.448 67.4409C132.319 67.4513 132.189 67.4321 132.071 67.385C131.953 67.3379 131.851 67.2646 131.776 67.1725C131.287 66.5785 130.895 65.9285 130.61 65.2409L133.426 65.9294Z" fill="white"/>
<path d="M112.962 53.4336C112.962 53.4336 109.631 52.8018 109.223 55.0602C108.604 58.444 114.219 67.4047 117.384 72.2351C120.548 77.0655 123.416 82.5653 128.105 82.025C131.278 81.6605 131.899 79.1699 131.786 77.0147L129.746 74.5588C129.746 74.5588 130.43 79.0972 127.784 79.3804C125.607 79.6128 123.604 77.8686 121.675 74.8274C117.235 67.8302 112.707 60.9958 112.104 57.6162C111.566 54.6013 114.188 55.1473 114.188 55.1473L112.962 53.4336Z" fill="#D44631"/>
<path d="M78.4861 154.203C78.7493 154.672 76.0744 157.365 74.5573 158.835C77.9247 163.324 83.1207 169.253 85.5722 171.789C86.5581 172.806 88.152 174.722 89.3661 173.667C90.5801 172.613 92.5301 158.54 92.237 158.04C91.9439 157.541 82.1449 145.025 81.5087 144.994C78.3861 144.842 70.3507 149.932 69.8111 151.373C69.5846 151.964 71.6146 154.789 73.0102 156.717C74.8654 155.628 78.223 153.736 78.4861 154.203Z" fill="#D44631"/>
<path d="M76.5696 156.813C75.8801 157.539 75.1389 158.274 74.561 158.834C77.9285 163.323 83.1245 169.253 85.5759 171.789C86.5619 172.806 88.1558 174.721 89.3698 173.667C89.5909 173.398 89.7475 173.093 89.8309 172.771L76.5696 156.813Z" fill="#0A1A29"/>
<path d="M73.0146 156.717C73.6808 156.325 74.5383 155.831 75.3777 155.378L70.9943 150.099C70.5063 150.449 70.1051 150.882 69.8152 151.371C69.587 151.964 71.619 154.788 73.0146 156.717Z" fill="#0A1A29"/>
<path d="M112.441 118.647L95.9953 96.1914L112.657 92.4154L114.156 91.7125C114.156 91.7125 131.705 109.399 134.736 115.626C137.767 121.854 133.653 126.382 128.677 130.912C123.701 135.442 93.4057 158.84 93.4057 158.84C93.4057 158.84 83.2351 154.31 80.6388 145.064L112.441 118.647Z" fill="#0A1A29"/>
<path d="M90.0311 157.908C90.0652 157.908 90.0981 157.898 90.1242 157.879C90.2308 157.802 100.949 150.074 111.495 141.561C125.687 130.109 132.847 122.759 132.772 119.717C132.712 117.233 128.941 111.847 121.578 103.703C116.103 97.6517 110.574 92.2549 110.519 92.1997C110.493 92.1749 110.456 92.16 110.418 92.1581C110.379 92.1562 110.341 92.1675 110.312 92.1896C110.283 92.2122 110.266 92.2438 110.264 92.2775C110.262 92.3113 110.275 92.3445 110.3 92.3697C110.52 92.5847 132.339 113.916 132.48 119.721C132.647 126.824 90.366 157.375 89.938 157.683C89.9233 157.693 89.9111 157.707 89.9022 157.721C89.8933 157.736 89.8877 157.752 89.886 157.769C89.8843 157.785 89.8863 157.802 89.8921 157.818C89.8978 157.834 89.907 157.849 89.9193 157.861C89.9327 157.876 89.95 157.888 89.9693 157.896C89.9886 157.904 90.0097 157.908 90.0311 157.908Z" fill="#F7CEC1"/>
<path d="M85.1673 154.115C85.2021 154.115 85.2361 154.104 85.2625 154.084C86.9995 152.8 127.806 122.622 127.38 119.084C126.85 114.696 112.173 101.53 111.549 100.972C111.521 100.948 111.484 100.935 111.446 100.935C111.407 100.935 111.37 100.948 111.342 100.972C111.329 100.984 111.318 100.998 111.31 101.013C111.303 101.029 111.299 101.045 111.299 101.062C111.299 101.079 111.303 101.096 111.31 101.111C111.318 101.126 111.329 101.14 111.342 101.152C111.494 101.289 126.572 114.813 127.092 119.113C127.209 120.083 123.691 124.106 106.264 137.76C95.8174 145.947 85.1824 153.807 85.0758 153.881C85.0612 153.892 85.0492 153.905 85.0405 153.92C85.0317 153.935 85.0266 153.951 85.025 153.967C85.0235 153.984 85.0256 154.001 85.0315 154.016C85.0374 154.032 85.0468 154.047 85.0592 154.06C85.0713 154.075 85.0872 154.088 85.1059 154.098C85.1247 154.107 85.1457 154.113 85.1673 154.115Z" fill="#F7CEC1"/>
<path d="M81.9751 150.459C81.9947 150.459 82.014 150.455 82.032 150.448C82.0501 150.442 82.0664 150.432 82.08 150.42L104.924 129.495C104.938 129.483 104.949 129.469 104.956 129.454C104.964 129.438 104.967 129.421 104.967 129.405C104.967 129.388 104.964 129.371 104.956 129.356C104.949 129.34 104.938 129.326 104.924 129.315C104.911 129.303 104.895 129.293 104.877 129.287C104.859 129.28 104.84 129.277 104.821 129.277C104.802 129.277 104.783 129.28 104.765 129.287C104.747 129.293 104.731 129.303 104.718 129.315L81.8735 150.239C81.8462 150.263 81.8312 150.296 81.8312 150.33C81.8312 150.363 81.8462 150.396 81.8735 150.42C81.8866 150.432 81.9024 150.441 81.9198 150.448C81.9372 150.455 81.9561 150.458 81.9751 150.459Z" fill="#F7CEC1"/>
<path d="M107.172 174.975C107.763 175.045 108.838 178.481 109.399 180.398C115.551 180.456 124.091 179.991 127.871 179.625C129.39 179.48 132.099 179.387 131.771 177.921C131.443 176.456 119.114 167.212 118.48 167.145C117.845 167.079 101.085 165.952 100.702 166.396C98.8183 168.575 98.5821 178.492 99.648 179.685C100.083 180.178 103.906 180.279 106.519 180.341C106.513 178.389 106.579 174.904 107.172 174.975Z" fill="#D44631"/>
<path d="M108.588 177.815C108.892 178.717 109.184 179.664 109.396 180.395C115.547 180.453 124.087 179.988 127.868 179.622C129.387 179.477 132.098 179.384 131.768 177.918C131.635 177.609 131.432 177.326 131.172 177.086L108.588 177.815Z" fill="#0A1A29"/>
<path d="M99.173 178.114C99.2159 178.616 99.3481 179.109 99.5645 179.575C99.5891 179.612 99.6165 179.647 99.6462 179.681C100.078 180.17 103.901 180.271 106.516 180.333C106.516 179.855 106.516 179.279 106.534 178.685C106.534 178.539 106.534 178.394 106.546 178.249C106.557 178.104 106.546 177.999 106.557 177.877L99.173 178.114Z" fill="#0A1A29"/>
<path d="M79.7885 95.3917C79.7885 95.3917 80.8442 101.475 88.4167 111.666C95.0782 120.63 110.057 136.952 110.057 136.952L100.536 166.579C107.214 169.319 114.725 170.112 121.96 168.843C121.96 168.843 134.077 139.028 132.563 131.858C131.049 124.688 105.947 93.1725 105.947 93.1725L79.7885 95.3917Z" fill="#3F1E18"/>
<path d="M116.772 171.341C116.803 171.341 116.834 171.332 116.859 171.315C116.884 171.298 116.903 171.275 116.912 171.248C117.365 169.87 128 137.41 127.199 132.343C126.398 127.275 102.588 94.9849 101.573 93.6139C101.563 93.5999 101.549 93.5877 101.534 93.5781C101.518 93.5686 101.5 93.5618 101.482 93.5583C101.463 93.5548 101.443 93.5545 101.425 93.5576C101.406 93.5606 101.388 93.567 101.372 93.5762C101.339 93.5946 101.317 93.6232 101.309 93.6561C101.301 93.689 101.307 93.7235 101.328 93.7519C101.575 94.0874 126.116 127.365 126.909 132.383C127.702 137.401 116.75 170.846 116.632 171.184C116.622 171.217 116.626 171.251 116.645 171.281C116.664 171.31 116.695 171.332 116.731 171.341C116.745 171.343 116.758 171.343 116.772 171.341Z" fill="#D44631"/>
<path d="M110.375 170.903C110.406 170.903 110.437 170.894 110.462 170.878C110.487 170.862 110.506 170.839 110.515 170.813C110.624 170.502 121.395 139.667 120.905 132.985C120.739 130.725 117.112 126.172 112.912 120.897C111.08 118.592 109.178 116.211 107.361 113.769C100.664 104.775 94.9804 95.4701 94.9238 95.383C94.9055 95.3535 94.8744 95.3316 94.8376 95.3218C94.8009 95.312 94.7611 95.3152 94.727 95.3307C94.7101 95.3385 94.6953 95.3492 94.6831 95.3621C94.671 95.3749 94.6618 95.3898 94.6563 95.4057C94.6507 95.4216 94.6487 95.4382 94.6506 95.4548C94.6525 95.4714 94.6582 95.4874 94.6673 95.5021C94.7239 95.5951 100.411 104.903 107.116 113.906C108.936 116.35 110.837 118.735 112.673 121.041C116.85 126.284 120.458 130.81 120.617 132.999C121.104 139.635 110.347 170.427 110.237 170.737C110.225 170.77 110.229 170.805 110.247 170.835C110.265 170.864 110.296 170.887 110.334 170.897C110.347 170.901 110.361 170.902 110.375 170.903Z" fill="#3F1E18"/>
<path d="M104.469 169.11C104.5 169.109 104.529 169.101 104.554 169.085C104.579 169.07 104.598 169.048 104.607 169.023C105.072 167.803 115.975 139.105 114.829 134.538C114.32 132.504 111.154 128.849 107.145 124.215C105.052 121.795 102.679 119.053 100.484 116.288C95.0414 109.575 90.1262 102.549 85.7716 95.2571C85.7634 95.2419 85.7518 95.2282 85.7374 95.217C85.7231 95.2059 85.7064 95.1975 85.6882 95.192C85.6701 95.1866 85.6509 95.1845 85.6317 95.1857C85.6126 95.1869 85.5939 95.1913 85.5768 95.1989C85.5595 95.2061 85.5438 95.2161 85.5309 95.2286C85.518 95.241 85.5084 95.2556 85.502 95.2715C85.4957 95.2873 85.4928 95.304 85.4939 95.3207C85.495 95.3375 85.5001 95.3537 85.5085 95.3688C89.8691 102.67 94.7915 109.706 100.242 116.427C102.439 119.197 104.814 121.946 106.904 124.363C110.734 128.789 114.042 132.613 114.536 134.587C115.665 139.089 104.436 168.639 104.321 168.937C104.309 168.969 104.312 169.004 104.329 169.034C104.347 169.064 104.377 169.087 104.414 169.098C104.431 169.105 104.45 169.109 104.469 169.11Z" fill="#3F1E18"/>
<path d="M132.562 132.113H132.605C132.643 132.108 132.68 132.096 132.713 132.079C132.746 132.061 132.774 132.039 132.797 132.012C132.82 131.985 132.836 131.954 132.845 131.921C132.854 131.889 132.856 131.855 132.85 131.822C132.281 128.498 126.566 120.189 121.652 113.321C116.156 105.624 110.743 98.5396 110.689 98.467C110.667 98.4391 110.64 98.4151 110.608 98.3964C110.577 98.3778 110.541 98.3648 110.503 98.3582C110.466 98.3515 110.427 98.3515 110.389 98.358C110.352 98.3644 110.316 98.3772 110.284 98.3957C110.252 98.4142 110.224 98.438 110.203 98.4658C110.182 98.4935 110.167 98.5246 110.159 98.5574C110.152 98.5902 110.151 98.6241 110.159 98.6569C110.166 98.6897 110.181 98.7209 110.202 98.7487C110.256 98.8199 115.658 105.906 121.157 113.59C126.042 120.416 131.719 128.665 132.274 131.889C132.282 131.95 132.316 132.007 132.37 132.048C132.423 132.089 132.491 132.112 132.562 132.113Z" fill="#D44631"/>
<path d="M105.773 150.388C105.835 150.389 105.895 150.371 105.945 150.34C105.995 150.308 106.032 150.263 106.051 150.211C106.218 149.744 110.181 138.738 110.084 137.305C109.988 135.871 101.862 127.307 100.938 126.337C100.888 126.285 100.817 126.253 100.74 126.247C100.663 126.241 100.587 126.261 100.527 126.303C100.467 126.347 100.43 126.409 100.423 126.476C100.416 126.543 100.439 126.61 100.488 126.662C103.939 130.278 109.438 136.372 109.503 137.334C109.578 138.448 106.637 146.896 105.496 150.057C105.473 150.121 105.48 150.191 105.516 150.251C105.552 150.31 105.613 150.355 105.686 150.375C105.714 150.384 105.743 150.388 105.773 150.388Z" fill="#D44631"/>
<path d="M91.3668 39.2096C91.3668 39.2096 81.2878 38.0986 76.9011 39.9358C70.8658 42.4657 74.0981 84.1788 79.7887 95.392C86.7039 97.0724 93.954 97.4311 101.043 96.4435C111.065 95.1611 114.149 91.7147 114.149 91.7147C114.149 91.7147 109.684 68.9295 107.614 61.5678C105.928 55.6411 103.151 49.992 99.392 44.8401L91.3668 39.2096Z" fill="#D44631"/>
<path d="M106.968 75.6372C108.267 79.0472 110.692 81.413 112.382 80.9236C114.072 80.4342 114.39 77.2725 113.093 73.8639C111.796 70.4554 109.369 68.0881 107.679 68.5775C105.989 69.0669 105.669 72.2257 106.968 75.6372Z" fill="#3F1E18"/>
<path d="M107.916 68.5134C110.638 67.459 113.455 66.6021 116.338 65.9515C118.17 65.8367 120.427 67.2919 122.569 69.4878C123.814 70.7659 124.922 73.1375 123.483 72.9661C123.483 72.9661 124.629 74.5636 124.064 75.0618C123.583 75.4815 122.699 75.0197 122.699 75.0197C122.699 75.0197 123.883 76.4981 123.228 77.1981C122.852 77.6019 122.111 77.2402 122.111 77.2402C122.111 77.2402 123.008 78.2714 122.152 78.4849C121.153 78.7347 117.847 76.3994 117.847 76.3994C117.03 76.6468 116.195 76.85 115.349 77.0079C113.324 77.4044 108.443 77.7529 108.443 77.7529L105.5 71.4238C105.974 70.2741 106.812 69.2652 107.916 68.5134Z" fill="white"/>
<path d="M123.482 73.0917C123.502 73.0918 123.521 73.0883 123.54 73.0816C123.558 73.0749 123.575 73.0649 123.589 73.0524C123.616 73.0285 123.631 72.9962 123.631 72.9625C123.631 72.9287 123.616 72.8963 123.589 72.8724L119.547 69.5321C119.519 69.5084 119.482 69.495 119.443 69.495C119.405 69.495 119.368 69.5084 119.34 69.5321C119.313 69.5561 119.298 69.5884 119.298 69.6221C119.298 69.6558 119.313 69.6882 119.34 69.7122L123.382 73.0524C123.408 73.0764 123.444 73.0905 123.482 73.0917Z" fill="#0A1A29"/>
<path d="M122.694 75.1467C122.715 75.1467 122.735 75.143 122.754 75.1357C122.772 75.1285 122.789 75.1179 122.803 75.1046C122.829 75.0795 122.842 75.0465 122.84 75.0128C122.838 74.979 122.821 74.9473 122.793 74.9245L118.553 71.5842C118.539 71.5728 118.522 71.564 118.504 71.5582C118.486 71.5525 118.466 71.55 118.447 71.5508C118.428 71.5516 118.409 71.5557 118.392 71.5629C118.375 71.5702 118.359 71.5804 118.346 71.5929C118.32 71.618 118.307 71.651 118.309 71.6847C118.31 71.7185 118.327 71.7502 118.356 71.773L122.596 75.1133C122.623 75.1346 122.658 75.1465 122.694 75.1467Z" fill="#0A1A29"/>
<path d="M122.107 77.37C122.127 77.37 122.147 77.3665 122.165 77.3595C122.184 77.3525 122.2 77.3423 122.214 77.3294C122.228 77.3177 122.239 77.3037 122.246 77.2882C122.253 77.2728 122.257 77.2561 122.257 77.2394C122.257 77.2226 122.253 77.206 122.246 77.1905C122.239 77.1751 122.228 77.1611 122.214 77.1493L118.169 73.8729C118.141 73.8492 118.104 73.8358 118.065 73.8358C118.027 73.8358 117.99 73.8492 117.962 73.8729C117.935 73.8969 117.92 73.9293 117.92 73.963C117.92 73.9967 117.935 74.029 117.962 74.053L122.008 77.3294C122.033 77.3538 122.069 77.3683 122.107 77.37Z" fill="#0A1A29"/>
<path d="M79.6095 39.4595C74.1287 39.6309 70.678 43.0903 70.678 51.428C70.678 59.7657 70.8729 77.4635 72.8248 82.7383C74.7766 88.013 79.0683 88.5242 83.9462 87.843C88.8241 87.1619 112.375 80.9257 112.375 80.9257C112.375 80.9257 109.961 80.7965 107.991 75.9516C105.518 69.865 107.277 68.9006 107.918 68.5172C107.918 68.5172 89.2003 72.3804 88.0995 71.9389C86.9987 71.4974 88.0997 52.4867 87.5352 47.4806C87.2421 44.8389 85.6099 39.2707 79.6095 39.4595Z" fill="#D44631"/>
<path d="M88.4197 72.0913C91.1842 72.0913 106.096 68.982 107.888 68.6058C107.926 68.5979 107.958 68.5772 107.979 68.5484C107.999 68.5195 108.005 68.4848 107.996 68.4518C107.986 68.4193 107.962 68.3913 107.929 68.3738C107.897 68.3562 107.857 68.3503 107.82 68.3574C100.37 69.9201 88.9907 72.1335 88.168 71.8169C87.6484 71.5961 87.6417 65.7796 88.6543 55.4363C88.6561 55.4196 88.6539 55.4027 88.6482 55.3867C88.6424 55.3707 88.6333 55.3558 88.6209 55.3429C88.6085 55.3301 88.5933 55.3195 88.5762 55.3119C88.5591 55.3042 88.5401 55.2996 88.5209 55.2983C88.5017 55.2965 88.4825 55.2982 88.464 55.3031C88.4455 55.308 88.4284 55.3161 88.4136 55.327C88.3988 55.3378 88.3865 55.3512 88.3778 55.3662C88.3691 55.3813 88.364 55.3977 88.3627 55.4145C88.098 58.1129 86.8422 71.5947 88.0513 72.0507C88.1703 72.0828 88.2952 72.0965 88.4197 72.0913Z" fill="#183C61"/>
<path d="M82.4731 88.1258C83.6169 88.1286 84.7586 88.0475 85.8868 87.8833C94.888 85.9507 103.772 83.6241 112.505 80.9122C112.523 80.9066 112.539 80.8978 112.553 80.8865C112.567 80.8753 112.579 80.8617 112.587 80.8465C112.595 80.8314 112.6 80.8151 112.601 80.7984C112.601 80.7818 112.598 80.7652 112.592 80.7496C112.578 80.7181 112.551 80.6926 112.516 80.6785C112.481 80.6643 112.441 80.6628 112.405 80.674C103.684 83.3796 94.8123 85.7009 85.8238 87.6291C85.7638 87.6378 78.9108 88.7052 75.2402 86.0925C75.2255 86.0819 75.2085 86.0739 75.1902 86.069C75.1719 86.0641 75.1524 86.0625 75.1333 86.0641C75.1143 86.0657 75.0961 86.0705 75.0792 86.0784C75.0624 86.0863 75.0474 86.0971 75.0353 86.11C75.0231 86.1228 75.0137 86.1376 75.0081 86.1536C75.0025 86.1696 75.0005 86.1864 75.0024 86.203C75.0043 86.2196 75.01 86.2357 75.0191 86.2504C75.0281 86.2651 75.0404 86.2781 75.0552 86.2886C77.2266 87.5999 79.8355 88.246 82.4731 88.1258Z" fill="#183C61"/>
<path d="M101.527 45.8055C102.584 45.1193 101.927 42.7901 100.06 40.6029C98.1932 38.4158 95.8228 37.1991 94.7658 37.8852C93.7087 38.5714 94.3653 40.9007 96.2322 43.0878C98.0992 45.275 100.47 46.4917 101.527 45.8055Z" fill="#183C61"/>
<path d="M102.163 33.53C98.8948 35.8617 95.2613 37.774 91.3726 39.2086C90.8766 41.3621 91.2678 43.5992 92.4769 45.5261C93.1142 46.3527 94.0327 46.9844 95.103 47.3322C96.1734 47.6799 97.3418 47.7264 98.444 47.4649C100.016 45.5956 102.198 44.1838 104.706 43.4145L102.163 33.53Z" fill="white"/>
<path d="M102.632 31.9497C101.802 32.5524 101.053 33.2344 100.397 33.983C100.154 34.3512 100.02 34.766 100.005 35.1905C99.9895 35.6151 100.094 36.0364 100.311 36.417L104.464 33.023L102.632 31.9497Z" fill="#3F1E18"/>
<path d="M110.97 43.2069C109.931 43.8721 109.313 44.6171 108.507 45.1486C107.976 45.4995 107.364 45.7461 106.713 45.8714C106.063 45.9968 105.388 45.9979 104.737 45.8748C103.697 45.6886 102.728 45.2752 101.921 44.6735C101.114 44.0717 100.496 43.3013 100.124 42.4343C99.2573 40.6155 99.1611 38.5873 99.8522 36.7123C100.543 34.8373 101.976 33.2378 103.896 32.1999C108.137 29.6177 112.599 30.8318 114.184 32.6646C115.095 33.6617 115.665 34.8629 115.827 36.1299C115.99 37.3969 115.738 38.6781 115.102 39.8259C113.996 41.1808 112.591 42.3301 110.97 43.2069Z" fill="white"/>
<path d="M111.524 30.4749C111.407 30.0346 111.114 29.6449 110.698 29.3754C110.282 29.1059 109.769 28.9741 109.252 29.0037C107.999 29.0125 106.768 29.288 105.665 29.8064C104.562 30.3247 103.621 31.0702 102.924 31.9781C103.067 32.2481 103.283 32.4843 103.553 32.6665C103.823 32.8487 104.139 32.9717 104.474 33.0252C105.845 33.2241 107.514 34.1594 109.898 32.9816C110.518 35.2588 113.108 35.8238 115.108 39.8249C115.108 39.8249 116.257 42.3069 117.07 42.0847C117.764 41.8959 118.543 40.5786 117.426 38.4539C117.426 38.4539 118.345 39.5489 119.001 39.517C119.866 39.4763 118.848 37.568 117.884 36.8143C117.884 36.8143 120.78 37.523 120.272 35.7976C119.764 34.0723 116.259 33.1835 116.259 33.1835C116.259 33.1835 117.579 32.8291 116.925 31.8546C116.27 30.8801 112.691 29.7647 111.524 30.4749Z" fill="#3F1E18"/>
<path d="M104.879 33.1741C104.145 34.0818 102.992 34.4811 102.303 34.0454C101.613 33.6097 101.65 32.5423 102.384 31.6346C103.119 30.7269 104.271 30.3275 104.961 30.7632C105.65 31.1989 105.614 32.2649 104.879 33.1741Z" fill="white"/>
<path d="M103.504 33.4033C103.519 33.4033 103.535 33.3989 103.547 33.3908C103.56 33.3827 103.569 33.3713 103.574 33.3583L104.32 31.222C104.326 31.2058 104.324 31.1883 104.315 31.1733C104.305 31.1584 104.29 31.1471 104.271 31.1421C104.253 31.1379 104.234 31.1399 104.217 31.1477C104.2 31.1555 104.188 31.1686 104.182 31.1842L103.435 33.3205C103.43 33.3367 103.432 33.3542 103.441 33.3692C103.45 33.3842 103.465 33.3954 103.484 33.4004L103.504 33.4033Z" fill="#0A1A29"/>
<path d="M111.628 42.7175C111.628 42.7175 110.78 44.2642 110.183 44.4385C109.342 44.684 108.734 43.6441 108.734 43.6441L111.628 42.7175Z" fill="white"/>
<path d="M109.921 44.5405C110.018 44.54 110.115 44.5258 110.207 44.4984C110.826 44.3184 111.659 42.8079 111.694 42.744C111.698 42.7365 111.701 42.7284 111.701 42.72C111.702 42.7117 111.7 42.7033 111.697 42.6955C111.694 42.6876 111.689 42.6804 111.682 42.6743C111.676 42.6682 111.668 42.6633 111.659 42.6598C111.642 42.6529 111.622 42.6521 111.604 42.6578C111.586 42.6635 111.571 42.6752 111.562 42.6903C111.331 43.1144 110.626 44.2428 110.16 44.3779C109.392 44.603 108.805 43.6256 108.8 43.6154C108.79 43.6007 108.775 43.5897 108.757 43.5845C108.739 43.5794 108.719 43.5806 108.701 43.5878C108.684 43.5956 108.671 43.6089 108.665 43.625C108.66 43.641 108.661 43.6585 108.67 43.6735C108.692 43.7127 109.185 44.5405 109.921 44.5405Z" fill="#0A1A29"/>
<path d="M112.085 40.131C112.11 40.1311 112.135 40.1253 112.157 40.1144C112.18 40.1034 112.198 40.0877 112.211 40.0686C112.231 40.0395 112.236 40.0048 112.226 39.9721C112.217 39.9395 112.193 39.9114 112.159 39.8942C110.826 39.2392 109.825 38.1699 109.355 36.8996C109.343 36.8677 109.316 36.8413 109.282 36.8261C109.247 36.8109 109.207 36.8081 109.17 36.8183C109.134 36.8289 109.103 36.8515 109.086 36.8814C109.068 36.9112 109.064 36.9458 109.075 36.978C109.567 38.3076 110.615 39.4271 112.01 40.1135C112.033 40.1251 112.058 40.1311 112.085 40.131Z" fill="#0A1A29"/>
<path d="M110.074 40.572C110.083 40.5716 110.093 40.5695 110.101 40.566C110.11 40.5624 110.118 40.5574 110.125 40.5512C110.131 40.545 110.136 40.5377 110.139 40.5298C110.142 40.5219 110.144 40.5135 110.144 40.5052C110.077 39.8475 109.84 39.2117 109.449 38.6462C109.444 38.6389 109.438 38.6326 109.43 38.6275C109.422 38.6225 109.414 38.6189 109.404 38.6168C109.395 38.6148 109.385 38.6144 109.376 38.6157C109.366 38.617 109.357 38.62 109.349 38.6244C109.333 38.6332 109.321 38.6472 109.316 38.6635C109.312 38.6798 109.314 38.6971 109.324 38.7116C109.703 39.2582 109.934 39.8732 109.998 40.5095C109.999 40.5179 110.001 40.5262 110.005 40.5339C110.009 40.5416 110.014 40.5485 110.021 40.5543C110.028 40.5601 110.036 40.5646 110.045 40.5676C110.054 40.5707 110.064 40.5722 110.074 40.572Z" fill="#0A1A29"/>
<path d="M107.66 44.4367C107.676 44.4364 107.691 44.4317 107.704 44.4233C107.716 44.415 107.725 44.4035 107.73 44.3903C107.732 44.3822 107.733 44.3737 107.732 44.3654C107.73 44.357 107.728 44.349 107.723 44.3417C107.718 44.3344 107.712 44.328 107.704 44.3229C107.696 44.3178 107.687 44.314 107.678 44.3118C107.392 44.2345 107.128 44.1053 106.904 43.9325C106.679 43.7598 106.499 43.5475 106.376 43.3097C105.833 42.3139 105.703 41.1848 106.008 40.1147C106.014 40.0987 106.013 40.0812 106.004 40.0659C105.996 40.0507 105.981 40.039 105.963 40.0334C105.945 40.0282 105.925 40.0293 105.907 40.0367C105.89 40.044 105.876 40.0568 105.87 40.0726C105.546 41.1769 105.679 42.3455 106.248 43.3721C106.38 43.6258 106.573 43.852 106.813 44.0358C107.054 44.2196 107.336 44.3567 107.641 44.4382L107.66 44.4367Z" fill="#0A1A29"/>
<path d="M101.582 45.7608C99.3124 46.1965 97.3523 44.7878 95.6286 42.5483C94.0832 40.5398 94.0832 38.4819 94.8642 37.824L90.2844 39.2545L90.8488 46.4042L98.6512 48.3764L101.582 45.7608Z" fill="#D44631"/>
<path d="M110.142 46.0488C110.142 46.0488 126.103 64.7661 135.346 74.7899C139.898 79.7277 142.316 82.1386 144.714 83.3005C147.187 84.4986 151.982 84.4071 154.373 86.3285C157.814 89.098 155.217 94.3888 146.577 96.528C137.662 98.7355 134.188 96.467 133.669 94.6226C133.108 92.63 134.9 91.0804 134.908 88.0175C134.916 84.9546 127.562 72.7073 121.237 64.4147C114.911 56.122 107.685 47.1424 107.685 47.1424L110.142 46.0488Z" fill="#D44631"/>
<path d="M110.093 45.0347C109.551 44.3855 108.344 44.628 107.595 45.0347C106.845 45.4413 106.279 46.0368 106.837 46.8646C107.42 47.7287 109.07 47.0577 109.401 46.9154C109.604 46.8475 109.787 46.7408 109.937 46.603C110.086 46.4653 110.198 46.3001 110.264 46.1196C110.331 45.9391 110.35 45.7478 110.32 45.5601C110.29 45.3723 110.213 45.1928 110.093 45.0347Z" fill="#D44631"/>
<path d="M107.878 47.3589C107.891 47.3588 107.904 47.3558 107.915 47.3502L109.014 46.8056C109.023 46.8015 109.03 46.7959 109.036 46.7894C109.042 46.7828 109.046 46.7752 109.049 46.7671C109.051 46.759 109.052 46.7506 109.051 46.7422C109.05 46.7338 109.047 46.7257 109.042 46.7183C109.037 46.711 109.031 46.7045 109.024 46.6993C109.016 46.6941 109.008 46.6902 108.998 46.6879C108.989 46.6857 108.979 46.685 108.97 46.686C108.96 46.687 108.951 46.6896 108.942 46.6937L107.843 47.2383C107.826 47.2468 107.814 47.2607 107.809 47.2771C107.804 47.2934 107.807 47.3108 107.817 47.3255C107.823 47.3352 107.831 47.3434 107.842 47.3493C107.853 47.3552 107.865 47.3584 107.878 47.3589Z" fill="#0A1A29"/>
<path d="M133.7 92.705C133.73 92.7047 133.76 92.696 133.785 92.6801C133.81 92.6642 133.828 92.642 133.838 92.6165C136.114 86.3716 143.728 85.6453 143.805 85.6381C143.825 85.6365 143.844 85.6315 143.862 85.6232C143.879 85.6149 143.894 85.6036 143.907 85.59C143.919 85.5765 143.928 85.5608 143.933 85.5441C143.938 85.5274 143.939 85.51 143.937 85.4929C143.936 85.4754 143.93 85.4583 143.921 85.4427C143.912 85.4272 143.899 85.4135 143.883 85.4027C143.867 85.3918 143.849 85.384 143.83 85.3798C143.81 85.3755 143.79 85.3751 143.77 85.3782C143.692 85.3782 135.889 86.1216 133.553 92.5321C133.541 92.5643 133.545 92.5992 133.563 92.6291C133.58 92.659 133.611 92.6815 133.648 92.6918C133.664 92.6989 133.682 92.7034 133.7 92.705Z" fill="#0A1A29"/>
<path d="M136.681 92.7877C137.214 94.6118 141.105 95.3221 145.371 94.3737C149.638 93.4254 152.663 91.1786 152.13 89.3531C151.597 87.5275 147.706 86.8189 143.441 87.7673C139.176 88.7156 136.149 90.968 136.681 92.7877Z" fill="#0A1A29"/>
<path d="M140.901 105.759C140.92 105.759 140.939 105.755 140.957 105.748C140.974 105.741 140.99 105.732 141.003 105.719C141.016 105.707 141.027 105.693 141.034 105.677C141.04 105.662 141.043 105.645 141.043 105.628L140.628 92.7942C140.629 92.777 140.626 92.7599 140.619 92.7438C140.612 92.7278 140.601 92.7134 140.587 92.7016C140.572 92.6898 140.555 92.6809 140.536 92.6756C140.518 92.6703 140.498 92.6686 140.478 92.6708C140.44 92.6719 140.403 92.6864 140.377 92.7109C140.35 92.7353 140.336 92.7678 140.337 92.8014L140.751 105.636C140.753 105.669 140.769 105.701 140.797 105.724C140.825 105.747 140.863 105.76 140.901 105.759Z" fill="#0A1A29"/>
<path d="M146.769 100.911H146.801C146.837 100.903 146.868 100.884 146.889 100.857C146.909 100.83 146.917 100.798 146.911 100.766L144.771 92.4195C144.763 92.3877 144.741 92.3599 144.71 92.342C144.679 92.3241 144.641 92.3175 144.604 92.3235C144.568 92.3312 144.537 92.3505 144.517 92.3774C144.496 92.4044 144.488 92.4369 144.494 92.4687L146.634 100.815C146.642 100.842 146.659 100.865 146.684 100.882C146.708 100.9 146.738 100.91 146.769 100.911Z" fill="#0A1A29"/>
<path d="M155.176 100.814C155.203 100.814 155.231 100.807 155.254 100.794C155.27 100.785 155.284 100.773 155.295 100.759C155.306 100.746 155.314 100.73 155.318 100.714C155.322 100.698 155.322 100.681 155.319 100.664C155.315 100.648 155.308 100.632 155.297 100.618L148.274 91.0954C148.264 91.0811 148.251 91.0689 148.235 91.0592C148.219 91.0496 148.202 91.0427 148.183 91.0392C148.164 91.0357 148.144 91.0355 148.126 91.0386C148.107 91.0418 148.089 91.0483 148.073 91.0576C148.057 91.0666 148.043 91.0783 148.032 91.092C148.021 91.1057 148.013 91.1212 148.009 91.1376C148.005 91.1539 148.005 91.1709 148.008 91.1874C148.012 91.2038 148.019 91.2195 148.029 91.2335L155.052 100.756C155.066 100.774 155.084 100.789 155.105 100.799C155.127 100.809 155.151 100.815 155.176 100.814Z" fill="#0A1A29"/>
<path d="M155.488 93.3098C155.509 93.3099 155.529 93.306 155.548 93.2985C155.567 93.291 155.584 93.28 155.598 93.2662C155.611 93.2537 155.621 93.239 155.627 93.2231C155.633 93.2073 155.636 93.1905 155.635 93.1737C155.633 93.1569 155.628 93.1405 155.62 93.1255C155.611 93.1104 155.599 93.0971 155.585 93.0861L150.535 89.2665C150.506 89.2444 150.467 89.2334 150.429 89.2359C150.39 89.2383 150.354 89.2541 150.329 89.2797C150.316 89.2923 150.306 89.307 150.3 89.3229C150.294 89.3389 150.291 89.3556 150.293 89.3724C150.294 89.3892 150.299 89.4056 150.308 89.4206C150.317 89.4356 150.329 89.4489 150.343 89.4598L155.393 93.2792C155.419 93.299 155.453 93.3099 155.488 93.3098Z" fill="#0A1A29"/>
<path d="M67.1463 141.902C67.1658 141.902 67.1849 141.899 67.2028 141.892L84.4528 135.515C84.4885 135.502 84.517 135.477 84.5317 135.446C84.5463 135.414 84.5462 135.379 84.5312 135.348C84.5238 135.333 84.5128 135.318 84.4991 135.307C84.4854 135.295 84.4694 135.286 84.4516 135.28C84.4337 135.273 84.4146 135.27 84.3955 135.271C84.3763 135.271 84.3573 135.274 84.3397 135.281L67.0894 141.658C67.0536 141.671 67.0256 141.696 67.0109 141.728C66.9962 141.759 66.9964 141.794 67.0113 141.825C67.0229 141.848 67.0419 141.867 67.0658 141.881C67.0897 141.895 67.1177 141.902 67.1463 141.902Z" fill="#0A1A29"/>
<path d="M112.436 118.651L95.9908 96.1957L112.653 92.4197L114.152 91.7168C114.152 91.7168 131.7 109.403 134.731 115.631C137.762 121.858 133.649 126.386 128.672 130.916C123.696 135.446 93.4012 158.844 93.4012 158.844C93.4012 158.844 83.2306 154.314 80.6343 145.069L112.436 118.651Z" fill="#3F1E18"/>
<path d="M285.567 133.199C285.591 133.199 285.614 133.193 285.633 133.182C285.653 133.172 285.669 133.156 285.679 133.138C285.731 133.045 290.842 123.834 285.662 118.594C285.641 118.575 285.612 118.562 285.582 118.56C285.551 118.558 285.52 118.566 285.496 118.583C285.473 118.601 285.459 118.626 285.457 118.653C285.454 118.68 285.463 118.707 285.482 118.728C290.55 123.86 285.517 132.945 285.466 133.035C285.451 133.061 285.449 133.09 285.46 133.117C285.47 133.145 285.493 133.167 285.522 133.18C285.536 133.189 285.551 133.195 285.567 133.199Z" fill="#3F1E18"/>
<path d="M213.008 115.889C215.179 115.955 217.336 115.56 219.293 114.739C221.25 113.917 222.95 112.694 224.246 111.174C224.263 111.151 224.269 111.123 224.263 111.095C224.257 111.068 224.239 111.045 224.213 111.029C224.186 111.014 224.154 111.009 224.123 111.014C224.092 111.02 224.064 111.035 224.046 111.058C222.718 112.606 220.967 113.839 218.952 114.645C216.936 115.451 214.722 115.804 212.51 115.672C210.73 115.72 208.965 115.377 207.377 114.674C205.789 113.97 204.43 112.93 203.425 111.647C203.409 111.623 203.382 111.605 203.351 111.598C203.32 111.591 203.287 111.594 203.259 111.608C203.231 111.622 203.211 111.646 203.202 111.673C203.194 111.7 203.198 111.729 203.214 111.753C204.239 113.068 205.628 114.135 207.252 114.857C208.876 115.579 210.683 115.933 212.505 115.885C212.667 115.888 212.838 115.889 213.008 115.889Z" fill="#3F1E18"/>
<path d="M209.645 119.934C210.612 119.928 211.575 119.827 212.516 119.632C212.548 119.626 212.576 119.609 212.593 119.585C212.61 119.56 212.616 119.531 212.609 119.503C212.602 119.475 212.582 119.451 212.554 119.436C212.527 119.421 212.493 119.416 212.461 119.422C208.499 120.212 205.506 119.473 203.311 117.164C203.291 117.143 203.262 117.131 203.231 117.128C203.201 117.125 203.17 117.133 203.145 117.149C203.122 117.167 203.108 117.192 203.105 117.219C203.102 117.246 203.11 117.273 203.128 117.294C203.908 118.142 204.902 118.822 206.032 119.28C207.163 119.738 208.399 119.962 209.645 119.934Z" fill="#3F1E18"/>
<path d="M220.145 170.776C214.785 166.332 209.001 164.05 207.225 165.68C205.45 167.309 208.355 172.231 213.721 176.675C219.086 181.119 224.865 183.401 226.641 181.771C228.416 180.142 225.513 175.22 220.145 170.776Z" fill="#D44631"/>
<path d="M209.512 165.681L199.881 176.876C199.881 176.876 197.915 179.925 198.881 182.32C200.245 184.97 202.684 187.086 205.729 188.262C209.087 189.246 210.777 189.213 212.173 187.777C213.568 186.34 225.416 174.38 225.416 174.38C225.416 174.38 216.824 162.631 209.512 165.681Z" fill="white"/>
<path d="M213.188 186.776C213.223 186.244 211.114 187.454 207.315 186.097C203.517 184.741 200.752 182.176 200.406 180.072C200.059 177.967 200.492 176.682 199.974 176.381C199.456 176.081 197.125 178.641 193.324 178.19C189.524 177.738 184.43 175.403 183.134 176.302C181.838 177.201 183.858 179.138 184.774 180.067C188.993 184.358 193.585 188.359 198.509 192.034C200.377 193.323 204.118 196.027 204.897 195.883C206.543 195.587 213.014 189.41 213.188 186.776Z" fill="#D44631"/>
<path d="M195.351 181.89C195.369 181.89 195.387 181.887 195.403 181.88C195.42 181.874 195.434 181.865 195.447 181.854C195.459 181.843 195.469 181.83 195.475 181.815C195.482 181.8 195.485 181.785 195.484 181.769L195.416 178.275C195.416 178.244 195.401 178.215 195.376 178.193C195.351 178.171 195.317 178.159 195.281 178.159C195.263 178.159 195.246 178.162 195.23 178.169C195.213 178.175 195.198 178.184 195.186 178.195C195.173 178.206 195.164 178.22 195.157 178.234C195.151 178.249 195.148 178.264 195.148 178.28L195.218 181.774C195.219 181.805 195.233 181.834 195.258 181.856C195.282 181.877 195.316 181.89 195.351 181.89Z" fill="#3F1E18"/>
<path d="M192.728 181.347C192.763 181.347 192.797 181.335 192.823 181.313C192.848 181.291 192.862 181.262 192.863 181.231L192.933 178.158C192.933 178.142 192.93 178.127 192.924 178.112C192.917 178.098 192.907 178.085 192.895 178.073C192.883 178.062 192.868 178.053 192.851 178.047C192.835 178.041 192.817 178.038 192.8 178.037C192.781 178.036 192.763 178.038 192.746 178.044C192.729 178.049 192.714 178.058 192.701 178.069C192.688 178.08 192.678 178.093 192.671 178.108C192.664 178.122 192.661 178.138 192.661 178.153L192.591 181.226C192.591 181.242 192.594 181.258 192.6 181.272C192.607 181.287 192.617 181.3 192.629 181.311C192.642 181.322 192.656 181.331 192.673 181.337C192.689 181.344 192.707 181.347 192.725 181.347H192.728Z" fill="#3F1E18"/>
<path d="M206.959 194.661C206.982 194.661 207.005 194.656 207.026 194.646C207.046 194.635 207.063 194.621 207.075 194.603C207.084 194.59 207.09 194.575 207.093 194.56C207.095 194.544 207.094 194.529 207.089 194.514C207.085 194.499 207.077 194.485 207.066 194.472C207.056 194.46 207.042 194.45 207.027 194.442C202.438 191.904 198.144 188.983 194.203 185.721C190.531 182.775 187.185 179.534 184.211 176.04C184.201 176.027 184.188 176.016 184.173 176.008C184.158 176 184.141 175.994 184.124 175.991C184.106 175.988 184.089 175.989 184.071 175.992C184.054 175.995 184.037 176.002 184.023 176.011C184.008 176.02 183.996 176.031 183.986 176.044C183.977 176.057 183.97 176.071 183.967 176.087C183.964 176.102 183.964 176.118 183.968 176.133C183.972 176.148 183.979 176.162 183.989 176.175C186.976 179.683 190.337 182.937 194.025 185.894C197.981 189.168 202.293 192.099 206.9 194.645C206.918 194.655 206.938 194.66 206.959 194.661Z" fill="#3F1E18"/>
<path d="M208.132 182.612C208.151 182.612 208.17 182.608 208.188 182.601L211.158 181.457C211.175 181.451 211.189 181.442 211.202 181.431C211.214 181.419 211.223 181.406 211.23 181.392C211.236 181.377 211.239 181.362 211.238 181.347C211.238 181.331 211.234 181.316 211.227 181.302C211.22 181.288 211.21 181.275 211.197 181.264C211.184 181.253 211.169 181.244 211.152 181.239C211.136 181.233 211.118 181.23 211.1 181.231C211.082 181.231 211.065 181.235 211.049 181.241L208.078 182.385C208.061 182.391 208.046 182.4 208.034 182.411C208.022 182.423 208.012 182.436 208.005 182.45C207.999 182.464 207.996 182.48 207.996 182.495C207.997 182.511 208 182.526 208.008 182.54C208.018 182.562 208.036 182.58 208.058 182.593C208.08 182.605 208.106 182.612 208.132 182.612Z" fill="#3F1E18"/>
<path d="M236.63 168.591C236.254 171.295 235.088 173.87 233.244 176.068C231.218 178.096 229.021 179.989 226.672 181.732C226.672 181.732 227.463 178.441 219.922 171.438C212.382 164.435 206.907 166.076 206.907 166.076C206.907 166.076 217.246 152.106 221.879 146.47C226.513 140.834 230.291 140.979 235.249 140.495C240.207 140.012 237.098 165.424 236.63 168.591Z" fill="#3F1E18"/>
<path d="M228.636 169.384C228.657 169.384 228.677 169.38 228.695 169.372C228.727 169.359 228.752 169.335 228.764 169.305C228.776 169.276 228.773 169.244 228.758 169.215C227.077 166.559 224.81 164.219 222.086 162.331C219.362 160.443 216.236 159.045 212.889 158.217C212.854 158.209 212.817 158.213 212.786 158.229C212.755 158.244 212.732 158.27 212.722 158.3C212.717 158.315 212.716 158.33 212.718 158.346C212.72 158.361 212.726 158.376 212.735 158.39C212.744 158.403 212.755 158.415 212.769 158.425C212.784 158.434 212.8 158.441 212.817 158.445C216.127 159.263 219.218 160.645 221.912 162.511C224.607 164.378 226.85 166.691 228.513 169.317C228.524 169.337 228.542 169.354 228.564 169.366C228.585 169.378 228.611 169.384 228.636 169.384Z" fill="#D44631"/>
<path d="M242.819 167.256C235.512 168.242 229.906 170.843 230.3 173.065C230.695 175.287 236.939 176.288 244.248 175.3C251.557 174.313 257.162 171.713 256.767 169.491C256.372 167.269 250.127 166.27 242.819 167.256Z" fill="#D44631"/>
<path d="M230.302 173.062L234.367 185.346C234.367 185.346 235.959 188.549 238.741 189.326C241.985 189.982 245.393 189.568 248.308 188.164C251.238 186.422 252.229 185.234 251.761 183.395C251.293 181.556 247.531 166.097 247.531 166.097C247.531 166.097 231.934 166.136 230.302 173.062Z" fill="white"/>
<path d="M251.868 183.392C251.435 183.015 251.076 185.194 247.39 186.774C243.705 188.354 239.676 188.458 237.638 187.285C235.599 186.112 234.787 184.98 234.185 185.118C233.584 185.256 234.234 188.477 231.324 190.656C228.415 192.834 223.255 195.578 223.164 197.023C223.072 198.468 225.689 198.228 227.161 198.185C233.684 197.927 240.185 197.352 246.634 196.461C248.979 196.096 253.78 195.444 254.175 194.846C255.016 193.576 254.015 185.252 251.868 183.392Z" fill="#D44631"/>
<path d="M235.741 191.831C235.761 191.831 235.78 191.828 235.798 191.821C235.816 191.814 235.832 191.803 235.845 191.79C235.856 191.778 235.865 191.765 235.871 191.75C235.876 191.735 235.878 191.72 235.877 191.704C235.876 191.688 235.871 191.673 235.863 191.659C235.854 191.645 235.843 191.633 235.829 191.623L232.785 189.35C232.758 189.33 232.722 189.32 232.686 189.323C232.65 189.325 232.617 189.34 232.594 189.363C232.571 189.387 232.559 189.418 232.562 189.449C232.565 189.48 232.582 189.509 232.609 189.529L235.653 191.802C235.677 191.821 235.709 191.831 235.741 191.831Z" fill="#3F1E18"/>
<path d="M233.535 193.179C233.553 193.179 233.572 193.176 233.588 193.17C233.605 193.163 233.621 193.153 233.633 193.142C233.646 193.131 233.656 193.118 233.662 193.103C233.669 193.089 233.673 193.074 233.673 193.058C233.673 193.043 233.669 193.027 233.662 193.013C233.656 192.998 233.646 192.985 233.633 192.975L231.043 190.892C231.031 190.881 231.016 190.872 230.999 190.866C230.983 190.86 230.965 190.857 230.947 190.857C230.93 190.857 230.912 190.86 230.896 190.866C230.879 190.872 230.864 190.881 230.852 190.892C230.839 190.903 230.829 190.916 230.822 190.93C230.815 190.945 230.812 190.96 230.812 190.975C230.812 190.991 230.815 191.007 230.822 191.021C230.829 191.035 230.839 191.048 230.852 191.059L233.443 193.142C233.467 193.164 233.5 193.178 233.535 193.179Z" fill="#3F1E18"/>
<path d="M229.344 195.691C231.749 195.691 234.868 195.608 238.392 195.315C243.826 194.906 249.201 194.037 254.442 192.721C254.475 192.712 254.502 192.691 254.519 192.664C254.535 192.637 254.538 192.605 254.528 192.576C254.517 192.547 254.493 192.523 254.462 192.509C254.431 192.495 254.395 192.492 254.362 192.501C249.141 193.812 243.787 194.677 238.374 195.084C233.755 195.484 229.108 195.566 224.474 195.33C224.457 195.328 224.439 195.33 224.422 195.334C224.404 195.339 224.389 195.347 224.375 195.357C224.361 195.367 224.351 195.38 224.343 195.394C224.335 195.408 224.33 195.423 224.329 195.438C224.328 195.454 224.33 195.469 224.336 195.484C224.342 195.499 224.35 195.513 224.362 195.524C224.373 195.536 224.388 195.546 224.403 195.553C224.419 195.56 224.437 195.564 224.455 195.565C224.989 195.596 226.751 195.691 229.344 195.691Z" fill="#3F1E18"/>
<path d="M275.72 122.539C275.868 125.639 274.943 128.706 273.065 131.341C269.934 135.685 263.081 136.083 261.407 138.739C259.733 141.396 260.951 143.784 257.449 146.043C254.853 147.593 252.038 148.843 249.073 149.761C248.892 150.628 248.965 151.521 249.285 152.356C249.605 153.192 250.163 153.944 250.905 154.542C253.131 156.453 254.756 158.831 255.625 161.447C256.231 164.086 256.61 166.76 256.759 169.448C256.759 169.448 254.261 166.892 243.291 167.822C232.321 168.751 230.468 173.534 230.468 173.534C230.468 173.534 224.099 157.863 221.808 151.223C219.516 144.583 221.961 142.061 224.549 138.343C227.137 134.625 244.034 113.909 244.034 113.909L275.72 122.539Z" fill="#3F1E18"/>
<path d="M244.235 167.551H244.266C244.284 167.547 244.301 167.541 244.316 167.532C244.331 167.522 244.343 167.511 244.353 167.497C244.362 167.483 244.369 167.468 244.371 167.452C244.374 167.437 244.373 167.421 244.368 167.405C244.316 167.212 239.25 148.114 239.25 145.34C239.25 142.597 257.893 124.217 258.081 124.032C258.093 124.021 258.102 124.007 258.108 123.993C258.114 123.978 258.116 123.962 258.115 123.947C258.114 123.931 258.109 123.916 258.101 123.902C258.094 123.888 258.083 123.875 258.069 123.865C258.042 123.845 258.007 123.834 257.971 123.836C257.935 123.838 257.902 123.852 257.878 123.876C257.107 124.635 238.979 142.508 238.979 145.34C238.979 148.142 243.893 166.672 244.103 167.459C244.11 167.485 244.127 167.508 244.151 167.525C244.174 167.542 244.204 167.551 244.235 167.551Z" fill="#D44631"/>
<path d="M247.113 150.835C247.136 150.835 247.158 150.83 247.178 150.821L249.138 149.868C249.154 149.86 249.167 149.85 249.179 149.838C249.19 149.826 249.198 149.812 249.203 149.797C249.207 149.782 249.209 149.766 249.206 149.751C249.204 149.735 249.199 149.72 249.19 149.707C249.172 149.679 249.143 149.659 249.109 149.651C249.074 149.643 249.038 149.646 249.007 149.662L247.046 150.614C247.031 150.622 247.017 150.632 247.006 150.644C246.995 150.656 246.987 150.671 246.982 150.686C246.977 150.701 246.976 150.716 246.978 150.732C246.98 150.747 246.986 150.762 246.995 150.776C247.007 150.794 247.024 150.809 247.045 150.819C247.065 150.83 247.089 150.835 247.113 150.835Z" fill="#D44631"/>
<path d="M228.278 168.333C228.298 168.333 228.318 168.329 228.336 168.322C228.354 168.314 228.37 168.303 228.383 168.289C232.041 164.781 236.956 162.46 242.324 161.706C251.101 160.562 255.705 163.333 255.75 163.36C255.765 163.369 255.781 163.375 255.799 163.379C255.816 163.382 255.834 163.382 255.851 163.38C255.869 163.377 255.886 163.371 255.901 163.363C255.915 163.355 255.928 163.344 255.939 163.331C255.949 163.319 255.956 163.304 255.96 163.289C255.964 163.274 255.965 163.259 255.962 163.243C255.959 163.228 255.952 163.214 255.943 163.2C255.934 163.187 255.921 163.176 255.907 163.167C254.839 162.583 253.674 162.148 252.453 161.876C249.135 161.111 245.668 160.973 242.284 161.472C236.85 162.236 231.874 164.587 228.173 168.14C228.151 168.164 228.14 168.196 228.144 168.227C228.147 168.258 228.165 168.287 228.193 168.307C228.217 168.324 228.247 168.333 228.278 168.333Z" fill="#D44631"/>
<path d="M221.818 151.224C222.256 152.502 222.851 154.12 223.517 155.894C227.141 154.54 230.255 150.433 231.178 145.263C232.022 140.47 230.74 136.048 228.165 133.644C226.473 135.791 225.153 137.508 224.57 138.347C221.972 142.066 219.532 144.585 221.818 151.224Z" fill="#D44631"/>
<path d="M230.367 173.685C230.382 173.688 230.398 173.688 230.413 173.685C230.446 173.675 230.472 173.654 230.487 173.627C230.503 173.6 230.505 173.569 230.495 173.54C228.308 168.18 226.045 162.223 223.765 155.837C223.754 155.808 223.731 155.783 223.7 155.769C223.669 155.754 223.632 155.751 223.598 155.76C223.565 155.769 223.537 155.79 223.52 155.817C223.504 155.844 223.5 155.876 223.51 155.905C225.79 162.295 228.057 168.25 230.243 173.623C230.255 173.642 230.273 173.659 230.295 173.67C230.317 173.681 230.342 173.686 230.367 173.685Z" fill="#D44631"/>
<path d="M279.828 73.8708C278.79 74.5011 277.953 75.3522 277.398 76.3434C276.843 77.3347 276.587 78.4332 276.655 79.5348C276.655 79.5348 270.439 81.7002 266.96 81.0931C263.481 80.4861 265.794 77.6657 265.794 77.6657C267.341 76.0717 268.224 74.0685 268.3 71.9814L279.828 73.8708Z" fill="white"/>
<path d="M280.178 74.1322C278.565 75.381 276.539 76.1514 274.393 76.3325C272.314 76.3479 270.243 76.1268 268.23 75.6746C268.23 75.6746 265.041 79.0948 265.156 80.4251C265.271 81.7554 261.426 76.0246 261.426 76.0246L266.205 69.9118L275.075 69.8088L280.178 74.1322Z" fill="#3F1E18"/>
<path d="M276.575 61.8166C275.725 61.8247 274.899 62.064 274.212 62.5011C273.525 62.9383 273.012 63.5514 272.744 64.255L276.818 63.9761L277.895 63.0365L276.575 61.8166Z" fill="#3F1E18"/>
<path d="M285.724 66.4627C285.724 66.4627 286.136 64.884 283.814 63.7803C281.492 62.6765 280.941 63.0904 279.159 62.328C277.096 61.4479 275.645 60.0188 274.959 60.2947C274.273 60.5707 275.434 62.3192 276.067 62.8711C276.699 63.423 281.766 67.6115 281.766 67.6115L282.347 72.404C283.723 71.5149 284.948 70.4613 285.987 69.2743C287.043 67.8888 286.464 66.4627 285.724 66.4627Z" fill="#3F1E18"/>
<path d="M270.982 65.4853C270.137 66.2216 269.27 66.6109 268.598 67.1816C268.156 67.5563 267.812 68.0097 267.589 68.511C267.367 69.0123 267.271 69.5496 267.308 70.0862C267.358 70.9429 267.657 71.7745 268.176 72.503C268.695 73.2315 269.418 73.8331 270.277 74.2514C272.067 75.1975 274.184 75.5576 276.249 75.2673C278.315 74.9771 280.196 74.0553 281.554 72.667C284.858 69.6403 284.207 65.9051 282.503 64.3889C281.551 63.5979 280.368 63.0506 279.084 62.807C277.799 62.5634 276.462 62.6328 275.22 63.0077C273.538 63.4127 272.051 64.2819 270.982 65.4853Z" fill="white"/>
<path d="M282.611 71.7093C282.348 70.3282 283.665 67.5616 283.244 66.5101C282.606 64.9126 277.887 64.5045 276.04 62.8489L277.757 62.0937C279.578 62.6739 281.343 63.382 283.033 64.2111L285.198 67.4788C284.826 69.0785 283.927 70.5488 282.611 71.7093Z" fill="#3F1E18"/>
<path d="M281.562 71.647C280.506 72.1059 279.931 72.9729 280.281 73.5829C280.631 74.1929 281.768 74.309 282.824 73.8544C283.88 73.3998 284.455 72.5285 284.105 71.9186C283.755 71.3086 282.618 71.188 281.562 71.647Z" fill="white"/>
<path d="M280.911 72.5091L283.541 72.4828C283.559 72.4824 283.576 72.4759 283.588 72.4647C283.601 72.4536 283.608 72.4386 283.608 72.4229C283.607 72.4073 283.6 72.3924 283.587 72.3815C283.574 72.3705 283.557 72.3644 283.539 72.3644L280.91 72.3907C280.901 72.3907 280.892 72.3924 280.884 72.3954C280.876 72.3984 280.868 72.4028 280.862 72.4084C280.856 72.414 280.851 72.4206 280.848 72.4278C280.844 72.4351 280.843 72.4429 280.843 72.4507C280.844 72.4663 280.851 72.4811 280.864 72.492C280.877 72.503 280.894 72.5091 280.911 72.5091Z" fill="#3F1E18"/>
<path d="M271.94 68.4763C271.949 68.4762 271.958 68.4745 271.966 68.4713C271.975 68.468 271.982 68.4633 271.988 68.4575C271.994 68.452 271.999 68.4456 272.003 68.4385C272.006 68.4314 272.008 68.4238 272.008 68.4161C272.008 68.4084 272.006 68.4007 272.003 68.3936C271.999 68.3865 271.994 68.3801 271.988 68.3747C271.98 68.3674 271.137 67.6587 271.57 67.1184C271.83 66.7931 273.166 66.5447 273.659 66.4765C273.676 66.474 273.692 66.4657 273.702 66.4532C273.713 66.4407 273.718 66.4251 273.715 66.4097C273.714 66.402 273.711 66.3946 273.706 66.3879C273.701 66.3813 273.695 66.3754 273.688 66.3708C273.68 66.3662 273.672 66.363 273.664 66.3612C273.655 66.3594 273.646 66.359 273.637 66.3603C273.562 66.3704 271.805 66.6188 271.458 67.0502C270.959 67.6718 271.855 68.4269 271.893 68.4589C271.906 68.4697 271.922 68.476 271.94 68.4763Z" fill="#3F1E18"/>
<path d="M272.008 70.2736C272.025 70.2737 272.041 70.2681 272.054 70.2582C272.066 70.2482 272.074 70.2346 272.076 70.2198C272.077 70.2042 272.072 70.1888 272.06 70.1769C272.048 70.1649 272.032 70.1574 272.014 70.1559C271.499 70.1232 270.997 70.0039 270.534 69.8044C270.518 69.7973 270.499 69.7961 270.482 69.801C270.465 69.8059 270.45 69.8165 270.442 69.8306C270.434 69.8446 270.433 69.861 270.438 69.8759C270.444 69.8909 270.456 69.9034 270.472 69.9105C270.95 70.117 271.469 70.2408 272.001 70.275L272.008 70.2736Z" fill="#3F1E18"/>
<path d="M273.335 70.4336C273.343 70.4338 273.352 70.4325 273.36 70.4298C273.368 70.427 273.376 70.4229 273.382 70.4176C273.389 70.4123 273.394 70.4061 273.397 70.3991C273.401 70.3921 273.403 70.3846 273.403 70.3769C273.403 70.3614 273.397 70.3463 273.385 70.3349C273.373 70.3235 273.356 70.3167 273.338 70.3159C273.115 70.3083 272.892 70.288 272.672 70.255C272.663 70.253 272.654 70.2528 272.645 70.2542C272.636 70.2557 272.628 70.2587 272.62 70.2633C272.613 70.2678 272.607 70.2737 272.602 70.2806C272.597 70.2874 272.594 70.295 272.594 70.3029C272.591 70.3183 272.595 70.334 272.605 70.3468C272.615 70.3595 272.631 70.3683 272.649 70.3712C272.874 70.405 273.102 70.4258 273.331 70.4336H273.335Z" fill="#3F1E18"/>
<path d="M279.384 68.3978C279.411 68.3978 279.437 68.3906 279.459 68.3775C279.481 68.3643 279.499 68.3455 279.509 68.3237C279.675 67.9827 279.744 67.6118 279.709 67.2425C279.675 66.8732 279.539 66.5167 279.312 66.2034C279.171 65.9985 278.974 65.8268 278.739 65.7035C278.503 65.5802 278.237 65.509 277.963 65.4962C277.928 65.4962 277.894 65.5084 277.868 65.5301C277.843 65.5519 277.829 65.5813 277.828 65.6123C277.828 65.6278 277.831 65.6434 277.837 65.6579C277.844 65.6724 277.854 65.6856 277.866 65.6968C277.878 65.7081 277.893 65.7171 277.91 65.7233C277.926 65.7294 277.944 65.7326 277.962 65.7328C278.192 65.7457 278.414 65.8073 278.611 65.9123C278.807 66.0174 278.972 66.1627 279.089 66.3356C279.291 66.6174 279.411 66.9377 279.44 67.269C279.469 67.6003 279.406 67.9328 279.256 68.2381C279.249 68.2525 279.246 68.2679 279.246 68.2833C279.247 68.2988 279.251 68.314 279.258 68.3282C279.265 68.3423 279.275 68.3551 279.288 68.3658C279.301 68.3765 279.316 68.385 279.332 68.3906C279.349 68.3958 279.366 68.3983 279.384 68.3978Z" fill="#3F1E18"/>
<path d="M275.545 64.2872C275.564 64.287 275.582 64.2836 275.598 64.277C275.615 64.2709 275.63 64.262 275.642 64.2508C275.654 64.2397 275.664 64.2264 275.671 64.212C275.677 64.1975 275.68 64.1821 275.68 64.1666C275.68 64.1511 275.676 64.1359 275.668 64.1217C275.492 63.7833 275.183 63.5104 274.798 63.3509C274.413 63.1915 273.976 63.1558 273.563 63.2502C273.546 63.2541 273.53 63.2609 273.515 63.2703C273.501 63.2798 273.489 63.2916 273.48 63.3051C273.471 63.3186 273.465 63.3335 273.462 63.349C273.46 63.3645 273.461 63.3803 273.465 63.3955C273.47 63.4107 273.477 63.4249 273.488 63.4374C273.499 63.45 273.513 63.4605 273.528 63.4685C273.543 63.4764 273.561 63.4816 273.578 63.4838C273.596 63.486 273.614 63.4851 273.632 63.4811C273.982 63.3961 274.356 63.4239 274.684 63.5594C275.013 63.6949 275.275 63.9289 275.422 64.2189C275.433 64.2393 275.45 64.2565 275.472 64.2686C275.494 64.2807 275.519 64.2871 275.545 64.2872Z" fill="#3F1E18"/>
<path d="M275.109 66.2308C274.77 66.5857 274.593 67.0378 274.614 67.4996C274.635 67.9613 274.852 68.3998 275.222 68.7303C275.655 68.9964 276.187 69.1128 276.713 69.057C277.239 69.0012 277.722 68.7771 278.07 68.4282L275.109 66.2308Z" fill="#3F1E18"/>
<path d="M271.356 63.4396C271.017 63.7947 270.841 64.2468 270.862 64.7085C270.883 65.1702 271.1 65.6087 271.471 65.939C271.904 66.205 272.435 66.3215 272.961 66.2657C273.487 66.2099 273.971 65.9859 274.318 65.6369L271.356 63.4396Z" fill="#3F1E18"/>
<path d="M282.735 71.33C282.758 71.33 282.78 71.3251 282.8 71.3157C282.82 71.3064 282.836 71.2928 282.849 71.2763C282.868 71.2501 282.875 71.2182 282.867 71.1877C282.86 71.1572 282.839 71.1306 282.809 71.1136L277.881 68.3078C277.851 68.2912 277.814 68.2856 277.779 68.2921C277.744 68.2986 277.714 68.3167 277.694 68.3426C277.684 68.3556 277.677 68.3703 277.674 68.3856C277.671 68.4009 277.671 68.4167 277.675 68.432C277.678 68.4472 277.686 68.4618 277.696 68.4746C277.706 68.4874 277.719 68.4984 277.734 68.5068L282.662 71.3111C282.684 71.3236 282.709 71.3302 282.735 71.33Z" fill="#3F1E18"/>
<path d="M230.856 93.547C227.467 97.156 225.938 100.954 227.442 102.024C228.946 103.095 232.909 101.041 236.298 97.4306C239.687 93.8202 241.216 90.0238 239.713 88.9535C238.209 87.8831 234.243 89.9381 230.856 93.547Z" fill="#3F1E18"/>
<path d="M237.913 81.275C233.803 84.261 231.479 87.7349 232.722 89.0361C233.964 90.3374 238.304 88.9723 242.415 85.9863C246.525 83.0004 248.848 79.5265 247.605 78.2252C246.363 76.924 242.021 78.2906 237.913 81.275Z" fill="#3F1E18"/>
<path d="M246.28 82.7061L238.565 87.0978L234.108 81.5689L243.268 75.1192C244.094 78.2519 244.901 81.4397 246.28 82.7061Z" fill="white"/>
<path d="M231.804 70.8204C231.804 70.8204 223.752 67.83 223.251 68.9773C222.858 69.8778 228.019 72.2349 230.771 73.4359L231.804 70.8204Z" fill="white"/>
<path d="M254.217 86.9185C250.764 83.5782 249.945 80.8464 247.59 78.2047C247.642 78.5968 246.949 81.2225 242.917 84.0531C240.847 85.5054 237.245 87.5385 234.444 87.7345L239.088 95.0251L249.895 95.1515L254.217 86.9185Z" fill="#3F1E18"/>
<path d="M242.899 91.9932C242.922 91.9932 242.943 91.9882 242.963 91.9787C250.624 88.451 251.36 83.9228 251.366 83.8777C251.37 83.8468 251.361 83.8156 251.339 83.7909C251.317 83.7662 251.285 83.7498 251.25 83.7455C251.214 83.7422 251.178 83.7511 251.15 83.7703C251.122 83.7895 251.103 83.8177 251.098 83.8487C251.098 83.8922 250.367 88.3043 242.836 91.7709C242.82 91.7781 242.806 91.788 242.795 91.8C242.783 91.8119 242.775 91.8257 242.77 91.8406C242.764 91.8554 242.762 91.871 242.764 91.8865C242.766 91.902 242.771 91.9171 242.779 91.9308C242.791 91.9497 242.809 91.9654 242.83 91.9764C242.851 91.9874 242.875 91.9932 242.899 91.9932Z" fill="#3F1E18"/>
<path d="M274.144 79.7134L265.663 80.3423L265.794 77.6584L261.061 79.2298L253.719 89.4555L243.06 115.147C246.234 116.666 249.804 117.444 253.424 117.406L266.795 84.2939L274.144 79.7134Z" fill="white"/>
<path d="M261.838 86.2917C261.024 86.4369 259.325 86.1246 259.133 85.4101C258.969 84.5179 259.181 83.604 259.731 82.838C260.479 82.4169 265.658 80.4229 265.658 80.4229L264.326 85.0704C263.596 85.615 262.751 86.0298 261.838 86.2917Z" fill="#FEE4E0"/>
<path d="M263.997 85.8844C264.027 85.8843 264.056 85.8759 264.079 85.8601C264.103 85.8444 264.12 85.8223 264.127 85.7974L265.793 80.3714C265.799 80.3495 265.799 80.3264 265.791 80.3048C265.783 80.2831 265.768 80.2638 265.748 80.2495C265.727 80.2351 265.703 80.2262 265.677 80.2236C265.651 80.221 265.624 80.2249 265.601 80.2349L258.353 83.3691C258.337 83.3759 258.323 83.3853 258.311 83.397C258.299 83.4086 258.29 83.4223 258.285 83.437C258.279 83.4517 258.276 83.4673 258.278 83.4828C258.279 83.4983 258.284 83.5135 258.292 83.5274C258.299 83.5414 258.31 83.5539 258.324 83.5641C258.337 83.5744 258.353 83.5822 258.37 83.5872C258.386 83.5922 258.404 83.5943 258.422 83.5932C258.44 83.5922 258.457 83.5881 258.473 83.5812L265.453 80.5633L263.866 85.7364C263.861 85.7514 263.86 85.7669 263.862 85.7823C263.864 85.7977 263.87 85.8128 263.878 85.8263C263.887 85.8398 263.899 85.8515 263.913 85.861C263.927 85.8705 263.943 85.8776 263.961 85.8816L263.997 85.8844Z" fill="#3F1E18"/>
<path d="M239.144 120.128C240.272 120.772 241.611 121.075 242.956 120.991C242.956 120.991 244.713 117.558 246.265 113.912C248.785 108.013 248.698 103.989 251.901 95.712C256.827 82.9782 265.442 77.8617 265.778 77.6671C265.778 77.6583 265.788 77.6584 265.788 77.6584C266.124 77.3108 266.43 76.9419 266.703 76.5546C260.792 75.3332 257.12 79.4128 255.545 82.7095C253.879 86.1762 250.737 88.9211 248.422 92.8205C246.107 96.7199 239.144 120.128 239.144 120.128Z" fill="#D44631"/>
<path d="M250.68 99.1161C251.026 98.0588 251.431 96.9377 251.902 95.7105C256.829 82.9767 265.444 77.8602 265.78 77.6655C265.78 77.6568 265.79 77.6569 265.79 77.6569C266.053 77.3843 266.297 77.0976 266.519 76.7985C266.579 76.723 266.638 76.6533 266.698 76.5633C266.698 76.5633 266.698 76.5633 266.698 76.5546C260.787 75.3332 257.115 79.4127 255.539 82.7094C254.781 84.1919 253.852 85.6032 252.765 86.9212L250.68 99.1161Z" fill="#3F1E18"/>
<path d="M269.739 69.4816C269.168 69.8186 260.846 66.8138 259.124 66.1413C257.402 65.4689 253.004 63.3064 250.995 64.2228C248.987 65.1392 241.146 76.3975 238.851 81.1508C236.556 85.9042 226.85 101.021 222.132 104.786C219.954 106.522 217.259 107.688 214.356 108.15C211.453 108.613 208.46 108.352 205.718 107.4C199.503 105.076 198.444 98.686 201.242 91.5349C203.109 86.7684 208.921 77.9791 207.963 76.5616C207.006 75.1442 205.763 74.6431 205.763 72.9759C205.763 71.3086 208.727 68.8063 218.099 69.8069C218.099 69.8069 227.889 71.3667 227.137 74.5995C226.739 76.3147 224.319 76.197 223.406 77.3879C222.633 78.4045 221.872 80.9243 219.909 83.6953C217.169 87.5526 214.608 90.3192 215.511 90.784C216.813 91.4535 224.504 81.225 227.378 77.1324C230.253 73.0398 238.112 61.0626 242.931 58.5559C247.716 56.0667 251.953 57.3694 255.588 59.1208C259.224 60.8723 267.552 65.7884 268.598 67.1667C269.644 68.5449 269.919 69.3771 269.739 69.4816Z" fill="#D44631"/>
<path d="M211.043 73.3042C210.877 74.6562 213.13 75.9807 216.083 76.2639C219.036 76.5471 221.57 75.683 221.745 74.328C221.92 72.973 219.658 71.6514 216.706 71.3682C213.753 71.085 211.213 71.9521 211.043 73.3042Z" fill="#3F1E18"/>
<path d="M270.498 69.8778C270.123 70.177 266.479 68.716 266.479 68.716L267.931 66.5608C268.303 66.751 271.202 69.3114 270.498 69.8778Z" fill="#3F1E18"/>
<path d="M228.639 83.6563C228.639 84.1706 228.873 84.6637 229.29 85.0273C229.707 85.3909 230.272 85.5951 230.862 85.5951C231.452 85.5951 232.017 85.3909 232.434 85.0273C232.851 84.6637 233.085 84.1706 233.085 83.6563C233.086 83.4016 233.028 83.1493 232.916 82.9139C232.805 82.6785 232.641 82.4645 232.435 82.2844C232.228 82.1042 231.983 81.9612 231.713 81.8637C231.443 81.7661 231.154 81.716 230.862 81.716C230.57 81.716 230.281 81.7661 230.011 81.8637C229.741 81.9612 229.496 82.1042 229.289 82.2844C229.083 82.4645 228.919 82.6785 228.807 82.9139C228.696 83.1493 228.638 83.4016 228.639 83.6563Z" fill="#F7CEC1"/>
<path d="M210.374 81.4013C210.374 81.768 210.541 82.1196 210.838 82.3789C211.135 82.6382 211.538 82.784 211.959 82.784C212.379 82.784 212.783 82.6382 213.08 82.3789C213.377 82.1196 213.544 81.768 213.544 81.4013C213.544 81.0347 213.377 80.6829 213.08 80.4236C212.783 80.1643 212.379 80.0187 211.959 80.0187C211.538 80.0187 211.135 80.1643 210.838 80.4236C210.541 80.6829 210.374 81.0347 210.374 81.4013Z" fill="#3F1E18"/>
<path d="M209.599 88.2401C210.585 88.2401 211.384 87.543 211.384 86.6832C211.384 85.8234 210.585 85.1263 209.599 85.1263C208.613 85.1263 207.813 85.8234 207.813 86.6832C207.813 87.543 208.613 88.2401 209.599 88.2401Z" fill="#3F1E18"/>
<path d="M208.698 93.2312C208.935 92.1553 208.128 91.1151 206.894 90.9079C205.66 90.7007 204.468 91.4049 204.23 92.4808C203.992 93.5567 204.8 94.5968 206.034 94.804C207.267 95.0112 208.46 94.307 208.698 93.2312Z" fill="#3F1E18"/>
<path d="M221.954 99.3522C222.045 98.2353 221.08 97.2655 219.8 97.1862C218.519 97.1068 217.407 97.9479 217.316 99.0648C217.225 100.182 218.189 101.151 219.47 101.231C220.751 101.31 221.863 100.469 221.954 99.3522Z" fill="#F7CEC1"/>
<path d="M233.017 77.7229C233.017 78.1127 233.195 78.4865 233.511 78.7621C233.827 79.0377 234.255 79.1925 234.702 79.1925C235.149 79.1925 235.578 79.0377 235.894 78.7621C236.21 78.4865 236.388 78.1127 236.388 77.7229C236.388 77.3331 236.21 76.9592 235.894 76.6835C235.578 76.4079 235.149 76.2531 234.702 76.2531C234.255 76.2531 233.827 76.4079 233.511 76.6835C233.195 76.9592 233.017 77.3331 233.017 77.7229Z" fill="#F7CEC1"/>
<path d="M237.128 72.6395C237.128 72.8132 237.167 72.9853 237.244 73.1458C237.32 73.3063 237.432 73.4521 237.573 73.575C237.713 73.6979 237.881 73.7953 238.065 73.8618C238.249 73.9283 238.446 73.9625 238.645 73.9625C239.047 73.9622 239.433 73.8225 239.717 73.5745C240.001 73.3264 240.161 72.9901 240.161 72.6395C240.161 72.4658 240.122 72.2937 240.046 72.1332C239.97 71.9727 239.858 71.8269 239.718 71.704C239.577 71.5812 239.41 71.4837 239.226 71.4172C239.042 71.3507 238.845 71.3164 238.645 71.3164C238.243 71.3164 237.857 71.4558 237.573 71.7039C237.288 71.9521 237.128 72.2886 237.128 72.6395Z" fill="#F7CEC1"/>
<path d="M243.159 68.615C243.997 68.615 244.676 68.0227 244.676 67.292C244.676 66.5613 243.997 65.9689 243.159 65.9689C242.321 65.9689 241.642 66.5613 241.642 67.292C241.642 68.0227 242.321 68.615 243.159 68.615Z" fill="#F7CEC1"/>
<path d="M215.315 92.7678C215.35 92.7678 215.383 92.7561 215.409 92.735C215.434 92.7138 215.449 92.6849 215.45 92.6545L215.546 90.6212C215.547 90.6057 215.545 90.5902 215.539 90.5755C215.532 90.5608 215.523 90.5474 215.511 90.536C215.499 90.5245 215.484 90.5152 215.468 90.5087C215.452 90.5021 215.434 90.4984 215.417 90.4978C215.381 90.4974 215.347 90.509 215.321 90.5301C215.295 90.5512 215.279 90.5802 215.277 90.6111L215.18 92.6444C215.179 92.6757 215.192 92.7062 215.216 92.7293C215.24 92.7524 215.274 92.7663 215.31 92.7678H215.315Z" fill="#3F1E18"/>
<path d="M220.438 78.095H220.468C221.809 77.8195 223.109 77.4092 224.342 76.8722C224.358 76.8654 224.372 76.8559 224.384 76.8442C224.396 76.8326 224.404 76.819 224.41 76.8042C224.416 76.7895 224.418 76.774 224.417 76.7585C224.416 76.743 224.411 76.7278 224.403 76.7139C224.387 76.6862 224.359 76.6652 224.325 76.6554C224.291 76.6456 224.254 76.6479 224.222 76.6616C223.008 77.1908 221.727 77.5954 220.406 77.8671C220.388 77.8704 220.372 77.877 220.357 77.8862C220.342 77.8954 220.329 77.9071 220.32 77.9207C220.31 77.9343 220.304 77.9494 220.302 77.9651C220.299 77.9808 220.3 77.9969 220.305 78.0122C220.313 78.0369 220.331 78.0584 220.355 78.0733C220.379 78.0883 220.408 78.0959 220.438 78.095Z" fill="#3F1E18"/>
<path d="M239.64 93.805C238.109 91.6551 236.369 89.6236 234.44 87.7328C232.175 85.7577 224.494 78.3061 223.448 78.8086C222.127 79.4447 227.643 86.3431 227.643 86.3431C227.643 86.3431 220.332 79.9791 219.003 81.003C217.637 82.0559 224.959 88.3907 224.959 88.3907C224.959 88.3907 218.074 84.6598 217.073 85.7577C216.205 86.7104 223.884 91.3652 223.884 91.3652C223.884 91.3652 216.905 88.9761 216.653 90.2934C216.402 91.6106 223.363 93.5858 224.119 94.097C226.906 96.3715 230.147 98.1815 233.682 99.4371L239.64 93.805Z" fill="white"/>
<path d="M245.517 81.7268C245.052 80.1386 244.999 78.48 245.362 76.8718C245.891 75.0027 248.598 69.5811 246.98 68.8753C245.363 68.1695 241.723 75.2829 240.509 78.9282L240.842 81.8691C241.527 82.3041 242.36 82.5264 243.207 82.5006C244.055 82.4748 244.868 82.2024 245.517 81.7268Z" fill="white"/>
<path d="M237.769 67.965C236.519 68.7434 233.459 66.1482 233.029 65.1461C232.6 64.144 234.02 63.2856 234.815 63.4425C235.518 63.5833 238.773 67.339 237.769 67.965Z" fill="white"/>
<path d="M232.777 64.9385C232.207 64.9008 231.643 65.0574 231.203 65.3755C230.763 65.6935 230.481 66.1481 230.417 66.6435C230.484 67.4669 234.463 70.5821 235.878 70.1116C237.294 69.641 233.114 65.0024 232.777 64.9385Z" fill="white"/>
<path d="M229.611 66.1869C229.113 66.1987 228.642 66.3804 228.297 66.6928C227.952 67.0053 227.762 67.4234 227.767 67.8571C227.73 69.0857 232.8 71.9583 233.659 71.2612C234.702 70.4116 230.515 66.1564 229.611 66.1869Z" fill="white"/>
<path d="M223.274 66.9016C223.293 66.9017 223.312 66.8983 223.329 66.8918C223.346 66.8853 223.362 66.8758 223.375 66.8638L227.849 62.5911C227.862 62.5797 227.871 62.5664 227.877 62.5518C227.883 62.5372 227.886 62.5217 227.885 62.5061C227.884 62.4906 227.88 62.4753 227.873 62.4613C227.865 62.4472 227.854 62.4346 227.841 62.4241C227.828 62.4136 227.813 62.4054 227.796 62.4C227.779 62.3947 227.761 62.3923 227.744 62.3929C227.726 62.3936 227.708 62.3973 227.692 62.4039C227.676 62.4105 227.662 62.4199 227.65 62.4314L223.176 66.7041C223.164 66.7155 223.155 66.7289 223.149 66.7435C223.142 66.7581 223.14 66.7736 223.141 66.7891C223.141 66.8046 223.146 66.8199 223.153 66.834C223.161 66.848 223.171 66.8607 223.185 66.8711C223.209 66.8907 223.241 66.9016 223.274 66.9016Z" fill="#3F1E18"/>
<path d="M219.014 65.7887C219.045 65.7886 219.075 65.779 219.099 65.7618C219.123 65.7446 219.139 65.7208 219.145 65.6943L220.423 60.3062C220.428 60.2906 220.428 60.2744 220.426 60.2585C220.423 60.2426 220.416 60.2274 220.407 60.2138C220.397 60.2001 220.384 60.1884 220.369 60.1794C220.353 60.1703 220.336 60.1641 220.318 60.161C220.3 60.157 220.281 60.1561 220.263 60.1585C220.245 60.161 220.228 60.1667 220.212 60.1753C220.196 60.1839 220.183 60.1952 220.173 60.2084C220.162 60.2217 220.155 60.2367 220.151 60.2525L218.872 65.6405C218.868 65.6561 218.867 65.6724 218.87 65.6883C218.872 65.7042 218.879 65.7193 218.889 65.7329C218.899 65.7466 218.912 65.7583 218.927 65.7673C218.942 65.7764 218.959 65.7827 218.977 65.7858L219.014 65.7887Z" fill="#3F1E18"/>
<path d="M213.902 65.2314H213.916C213.933 65.2299 213.951 65.2255 213.966 65.2182C213.982 65.2109 213.996 65.2009 214.007 65.1889C214.019 65.1769 214.027 65.163 214.032 65.1481C214.037 65.1332 214.039 65.1176 214.037 65.1021L213.586 61.0168C213.581 60.986 213.563 60.9579 213.536 60.9382C213.508 60.9185 213.473 60.9087 213.438 60.9108C213.42 60.9122 213.403 60.9168 213.387 60.9241C213.371 60.9314 213.357 60.9413 213.346 60.9533C213.335 60.9654 213.326 60.9792 213.321 60.9941C213.316 61.009 213.314 61.0246 213.316 61.04L213.767 65.1253C213.771 65.1545 213.786 65.1815 213.811 65.2011C213.836 65.2207 213.869 65.2315 213.902 65.2314Z" fill="#3F1E18"/>
<path d="M276.656 79.5292C280.779 80.902 284.391 83.233 287.102 86.2694C290.661 90.8383 286.707 99.5433 285.52 103.164C284.332 106.785 283.345 113.076 284.729 116.611C286.113 120.146 288.089 123.333 287.002 127.385C286.335 129.846 285.234 132.201 283.739 134.367C280.328 133.002 276.745 131.989 273.064 131.35C268.71 130.737 264.481 129.576 260.511 127.903C257.107 126.198 253.838 124.298 250.725 122.214L257.15 102.474L269.9 82.9072L276.656 79.5292Z" fill="#D44631"/>
<path d="M257.154 102.474C258.965 101.899 260.472 100.767 261.394 99.291C262.978 96.7916 264.758 95.759 266.241 93.688C267.723 91.617 266.537 89.3776 268.221 88.1693C269.904 86.961 274.035 86.9899 277.014 85.0656C278.549 84.0557 279.793 82.7482 280.648 81.2462C279.656 80.7305 278.628 80.2687 277.57 79.8636L277.532 79.8491L276.673 79.5383H276.651C276.651 79.5383 269.501 79.1228 265.644 82.8262C261.787 86.5296 257.847 94.2864 257.154 102.474Z" fill="#3F1E18"/>
<path d="M285.059 87.0791C280.872 84.9994 276.594 86.4081 273.296 90.8173C269.999 95.2265 265.917 102.919 264.831 102.417C263.775 101.929 240.35 88.9482 239.377 88.7812C240.425 89.5524 240.167 92.6241 236.713 96.098C233.372 99.4572 230.895 102.488 227.513 102.065C228.72 103.136 230.272 103.861 231.963 104.142C235.26 104.909 236.361 104.334 238.669 105.868C240.978 107.401 241.417 110.66 245.156 112.195C248.895 113.73 250.212 113.058 254.501 114.687C258.789 116.317 263.584 119.862 269.011 119.29C275.625 118.591 285.106 100.522 286.711 96.281C288.288 92.1071 287.85 88.4588 285.059 87.0791Z" fill="#D44631"/>
<path d="M239.558 106.373C239.584 106.373 239.609 106.367 239.631 106.354C242.093 104.923 244.199 103.073 245.823 100.916C247.447 98.7586 248.556 96.3384 249.083 93.7992C249.088 93.7683 249.078 93.7371 249.056 93.7124C249.034 93.6876 249.002 93.6713 248.967 93.667C248.932 93.6632 248.896 93.6719 248.867 93.6909C248.839 93.7099 248.82 93.7379 248.815 93.7687C248.294 96.2736 247.199 98.6612 245.597 100.789C243.995 102.917 241.918 104.742 239.489 106.155C239.474 106.164 239.461 106.174 239.451 106.187C239.441 106.2 239.434 106.214 239.43 106.229C239.426 106.244 239.425 106.26 239.428 106.275C239.431 106.29 239.438 106.305 239.448 106.318C239.459 106.334 239.476 106.348 239.495 106.357C239.514 106.367 239.535 106.372 239.558 106.373Z" fill="#3F1E18"/>
<path d="M265.209 107.514C265.238 107.513 265.266 107.505 265.289 107.49C265.313 107.475 265.33 107.454 265.338 107.429C265.385 107.284 266.447 104.015 264.479 101.99C264.47 101.981 264.459 101.974 264.447 101.967L247.514 92.777C247.499 92.7688 247.482 92.7631 247.464 92.7605C247.447 92.758 247.429 92.7584 247.411 92.762C247.394 92.7655 247.378 92.7719 247.363 92.7809C247.349 92.79 247.337 92.8016 247.327 92.8148C247.318 92.8279 247.311 92.8426 247.308 92.8579C247.305 92.8732 247.306 92.8888 247.31 92.904C247.314 92.9191 247.321 92.9334 247.332 92.946C247.342 92.9586 247.355 92.9692 247.37 92.9774L264.286 102.159C266.141 104.086 265.09 107.332 265.079 107.365C265.069 107.395 265.074 107.427 265.091 107.454C265.109 107.482 265.138 107.502 265.172 107.51C265.184 107.513 265.196 107.514 265.209 107.514Z" fill="#3F1E18"/>
<path d="M267.918 104.55C267.939 104.55 267.96 104.546 267.979 104.537C268.011 104.523 268.035 104.498 268.046 104.468C268.057 104.439 268.054 104.407 268.037 104.379C267.458 103.374 266.636 102.491 265.628 101.789C265.612 101.781 265.596 101.776 265.578 101.773C265.56 101.771 265.542 101.771 265.525 101.775C265.508 101.779 265.491 101.785 265.477 101.794C265.462 101.804 265.45 101.815 265.441 101.828C265.423 101.855 265.417 101.887 265.425 101.917C265.434 101.947 265.456 101.974 265.486 101.99C266.448 102.672 267.236 103.522 267.798 104.486C267.809 104.505 267.826 104.522 267.847 104.533C267.868 104.544 267.893 104.55 267.918 104.55Z" fill="#3F1E18"/>
<path d="M260.718 117.553C263.219 118.844 266.107 119.451 269.008 119.295C271.405 119.041 274.185 116.502 276.824 113.164C275.973 112.255 274.9 111.523 273.684 111.02C272.468 110.518 271.139 110.258 269.793 110.259C267.508 110.265 265.309 111.017 263.629 112.367C261.949 113.717 260.911 115.567 260.718 117.553Z" fill="#3F1E18"/>
<path d="M260.923 117.639C260.951 117.639 260.978 117.631 261.001 117.617C261.024 117.603 261.042 117.583 261.051 117.56C261.061 117.531 261.058 117.5 261.042 117.473C261.027 117.446 261 117.425 260.968 117.415C259.932 117.053 258.925 116.628 257.957 116.144C256.436 115.389 254.848 114.742 253.207 114.21C252.099 113.888 250.97 113.621 249.827 113.411C248.232 113.143 246.682 112.704 245.212 112.104C243.522 111.225 242.149 109.949 241.253 108.422C240.635 107.4 239.779 106.501 238.74 105.783C238.709 105.767 238.673 105.762 238.638 105.769C238.603 105.776 238.573 105.795 238.553 105.821C238.544 105.834 238.538 105.849 238.535 105.864C238.532 105.879 238.532 105.895 238.536 105.91C238.54 105.925 238.548 105.94 238.558 105.952C238.568 105.965 238.582 105.976 238.597 105.984C239.599 106.685 240.426 107.558 241.025 108.55C241.946 110.117 243.358 111.423 245.097 112.317C246.583 112.924 248.149 113.371 249.76 113.648C250.894 113.857 252.014 114.121 253.114 114.441C254.74 114.969 256.314 115.61 257.822 116.359C258.803 116.849 259.823 117.279 260.873 117.644C260.89 117.645 260.907 117.643 260.923 117.639Z" fill="#3F1E18"/>
<path d="M276.553 113.421C276.575 113.422 276.596 113.417 276.615 113.409C276.634 113.401 276.65 113.389 276.663 113.374C279.483 109.893 281.906 106.18 283.897 102.288C283.912 102.26 283.913 102.228 283.901 102.198C283.888 102.169 283.863 102.146 283.831 102.133C283.798 102.12 283.761 102.119 283.728 102.13C283.695 102.141 283.668 102.163 283.653 102.191C281.668 106.066 279.254 109.763 276.445 113.228C276.434 113.241 276.427 113.255 276.422 113.27C276.418 113.285 276.417 113.301 276.42 113.317C276.423 113.332 276.429 113.347 276.439 113.36C276.448 113.373 276.46 113.385 276.475 113.394C276.497 113.41 276.524 113.42 276.553 113.421Z" fill="#3F1E18"/>
<path d="M261.857 86.0015C261.482 87.4682 261.561 88.9953 262.085 90.4267C262.497 91.2281 263.199 91.8895 264.084 92.3093C264.968 92.7291 265.986 92.884 266.982 92.7503C269.147 92.6284 272.787 91.1036 276.075 91.0426C279.362 90.9816 282.859 93.4215 286.776 91.7687C290.693 90.116 291.393 84.9428 292.512 84.693C293.631 84.4432 294.89 91.5188 291.743 96.0384C288.595 100.558 280.761 100.976 274.746 100.976C268.73 100.976 256.56 98.9634 255.862 92.6197C255.661 91.2572 255.863 89.8726 256.448 88.5973C257.034 87.322 257.984 86.1985 259.208 85.3335L261.857 86.0015Z" fill="#FEE4E0"/>
</svg>
