<svg width="262" height="226" viewBox="0 0 262 226" fill="none" xmlns="http://www.w3.org/2000/svg">
<circle cx="2.01545" cy="2.01545" r="2.01545" fill="#FAFAFA" fill-opacity="0.8"/>
<circle cx="19.1463" cy="2.01545" r="2.01545" fill="#FAFAFA" fill-opacity="0.8"/>
<circle cx="36.2772" cy="2.01545" r="2.01545" fill="#FAFAFA" fill-opacity="0.8"/>
<circle cx="53.408" cy="2.01545" r="2.01545" fill="#FAFAFA" fill-opacity="0.8"/>
<circle cx="2.01545" cy="22.1697" r="2.01545" fill="#FAFAFA" fill-opacity="0.8"/>
<circle cx="19.1463" cy="22.1697" r="2.01545" fill="#FAFAFA" fill-opacity="0.8"/>
<circle cx="36.2772" cy="22.1697" r="2.01545" fill="#FAFAFA" fill-opacity="0.8"/>
<circle cx="53.408" cy="22.1697" r="2.01545" fill="#FAFAFA" fill-opacity="0.8"/>
<circle cx="2.01545" cy="42.3245" r="2.01545" fill="#FAFAFA" fill-opacity="0.8"/>
<circle cx="19.1463" cy="42.324" r="2.01545" fill="#FAFAFA" fill-opacity="0.8"/>
<circle cx="36.2772" cy="42.3245" r="2.01545" fill="#FAFAFA" fill-opacity="0.8"/>
<circle cx="53.408" cy="42.324" r="2.01545" fill="#FAFAFA" fill-opacity="0.8"/>
<circle cx="2.01545" cy="62.4788" r="2.01545" fill="#FAFAFA" fill-opacity="0.8"/>
<circle cx="19.1463" cy="62.4788" r="2.01545" fill="#FAFAFA" fill-opacity="0.8"/>
<circle cx="36.2772" cy="62.4788" r="2.01545" fill="#FAFAFA" fill-opacity="0.8"/>
<circle cx="53.408" cy="62.4788" r="2.01545" fill="#FAFAFA" fill-opacity="0.8"/>
<circle cx="2.01545" cy="82.6336" r="2.01545" fill="#FAFAFA" fill-opacity="0.8"/>
<circle cx="19.1463" cy="82.6336" r="2.01545" fill="#FAFAFA" fill-opacity="0.8"/>
<circle cx="36.2772" cy="82.6336" r="2.01545" fill="#FAFAFA" fill-opacity="0.8"/>
<circle cx="53.408" cy="82.6336" r="2.01545" fill="#FAFAFA" fill-opacity="0.8"/>
<circle cx="2.01545" cy="102.787" r="2.01545" fill="#FAFAFA" fill-opacity="0.8"/>
<circle cx="19.1463" cy="102.788" r="2.01545" fill="#FAFAFA" fill-opacity="0.8"/>
<circle cx="36.2772" cy="102.787" r="2.01545" fill="#FAFAFA" fill-opacity="0.8"/>
<circle cx="53.408" cy="102.788" r="2.01545" fill="#FAFAFA" fill-opacity="0.8"/>
<circle cx="70.5428" cy="2.01545" r="2.01545" fill="#FAFAFA" fill-opacity="0.8"/>
<circle cx="87.6717" cy="2.01545" r="2.01545" fill="#FAFAFA" fill-opacity="0.8"/>
<circle cx="104.805" cy="2.01545" r="2.01545" fill="#FAFAFA" fill-opacity="0.8"/>
<circle cx="121.933" cy="2.01545" r="2.01545" fill="#FAFAFA" fill-opacity="0.8"/>
<circle cx="70.5428" cy="22.1697" r="2.01545" fill="#FAFAFA" fill-opacity="0.8"/>
<circle cx="87.6717" cy="22.1697" r="2.01545" fill="#FAFAFA" fill-opacity="0.8"/>
<circle cx="104.805" cy="22.1697" r="2.01545" fill="#FAFAFA" fill-opacity="0.8"/>
<circle cx="121.933" cy="22.1697" r="2.01545" fill="#FAFAFA" fill-opacity="0.8"/>
<circle cx="70.5428" cy="42.324" r="2.01545" fill="#FAFAFA" fill-opacity="0.8"/>
<circle cx="87.6717" cy="42.324" r="2.01545" fill="#FAFAFA" fill-opacity="0.8"/>
<circle cx="104.805" cy="42.324" r="2.01545" fill="#FAFAFA" fill-opacity="0.8"/>
<circle cx="121.933" cy="42.324" r="2.01545" fill="#FAFAFA" fill-opacity="0.8"/>
<circle cx="70.5428" cy="62.4788" r="2.01545" fill="#FAFAFA" fill-opacity="0.8"/>
<circle cx="87.6717" cy="62.4788" r="2.01545" fill="#FAFAFA" fill-opacity="0.8"/>
<circle cx="104.805" cy="62.4788" r="2.01545" fill="#FAFAFA" fill-opacity="0.8"/>
<circle cx="121.933" cy="62.4788" r="2.01545" fill="#FAFAFA" fill-opacity="0.8"/>
<circle cx="70.5428" cy="82.6336" r="2.01545" fill="#FAFAFA" fill-opacity="0.8"/>
<circle cx="87.6717" cy="82.6336" r="2.01545" fill="#FAFAFA" fill-opacity="0.8"/>
<circle cx="104.805" cy="82.6336" r="2.01545" fill="#FAFAFA" fill-opacity="0.8"/>
<circle cx="121.933" cy="82.6336" r="2.01545" fill="#FAFAFA" fill-opacity="0.8"/>
<circle cx="70.5428" cy="102.788" r="2.01545" fill="#FAFAFA" fill-opacity="0.8"/>
<circle cx="87.6717" cy="102.788" r="2.01545" fill="#FAFAFA" fill-opacity="0.8"/>
<circle cx="104.805" cy="102.788" r="2.01545" fill="#FAFAFA" fill-opacity="0.8"/>
<circle cx="121.933" cy="102.788" r="2.01545" fill="#FAFAFA" fill-opacity="0.8"/>
<circle cx="139.066" cy="2.01545" r="2.01545" fill="#FAFAFA" fill-opacity="0.8"/>
<circle cx="156.197" cy="2.01545" r="2.01545" fill="#FAFAFA" fill-opacity="0.8"/>
<circle cx="173.328" cy="2.01545" r="2.01545" fill="#FAFAFA" fill-opacity="0.8"/>
<circle cx="190.461" cy="2.01545" r="2.01545" fill="#FAFAFA" fill-opacity="0.8"/>
<circle cx="139.066" cy="22.1697" r="2.01545" fill="#FAFAFA" fill-opacity="0.8"/>
<circle cx="156.197" cy="22.1697" r="2.01545" fill="#FAFAFA" fill-opacity="0.8"/>
<circle cx="173.328" cy="22.1697" r="2.01545" fill="#FAFAFA" fill-opacity="0.8"/>
<circle cx="190.461" cy="22.1697" r="2.01545" fill="#FAFAFA" fill-opacity="0.8"/>
<circle cx="139.066" cy="42.324" r="2.01545" fill="#FAFAFA" fill-opacity="0.8"/>
<circle cx="156.197" cy="42.3245" r="2.01545" fill="#FAFAFA" fill-opacity="0.8"/>
<circle cx="173.328" cy="42.324" r="2.01545" fill="#FAFAFA" fill-opacity="0.8"/>
<circle cx="190.461" cy="42.324" r="2.01545" fill="#FAFAFA" fill-opacity="0.8"/>
<circle cx="139.066" cy="62.4788" r="2.01545" fill="#FAFAFA" fill-opacity="0.8"/>
<circle cx="156.197" cy="62.4788" r="2.01545" fill="#FAFAFA" fill-opacity="0.8"/>
<circle cx="173.328" cy="62.4788" r="2.01545" fill="#FAFAFA" fill-opacity="0.8"/>
<circle cx="190.461" cy="62.4788" r="2.01545" fill="#FAFAFA" fill-opacity="0.8"/>
<circle cx="139.066" cy="82.6336" r="2.01545" fill="#FAFAFA" fill-opacity="0.8"/>
<circle cx="156.197" cy="82.6336" r="2.01545" fill="#FAFAFA" fill-opacity="0.8"/>
<circle cx="173.328" cy="82.6336" r="2.01545" fill="#FAFAFA" fill-opacity="0.8"/>
<circle cx="190.461" cy="82.6336" r="2.01545" fill="#FAFAFA" fill-opacity="0.8"/>
<circle cx="139.066" cy="102.788" r="2.01545" fill="#FAFAFA" fill-opacity="0.8"/>
<circle cx="156.197" cy="102.787" r="2.01545" fill="#FAFAFA" fill-opacity="0.8"/>
<circle cx="173.328" cy="102.788" r="2.01545" fill="#FAFAFA" fill-opacity="0.8"/>
<circle cx="190.461" cy="102.788" r="2.01545" fill="#FAFAFA" fill-opacity="0.8"/>
<circle cx="207.592" cy="2.01545" r="2.01545" fill="#FAFAFA" fill-opacity="0.8"/>
<circle cx="224.722" cy="2.01545" r="2.01545" fill="#FAFAFA" fill-opacity="0.8"/>
<circle cx="241.853" cy="2.01545" r="2.01545" fill="#FAFAFA" fill-opacity="0.8"/>
<circle cx="258.986" cy="2.01545" r="2.01545" fill="#FAFAFA" fill-opacity="0.8"/>
<circle cx="207.592" cy="22.1697" r="2.01545" fill="#FAFAFA" fill-opacity="0.8"/>
<circle cx="224.722" cy="22.1697" r="2.01545" fill="#FAFAFA" fill-opacity="0.8"/>
<circle cx="241.853" cy="22.1697" r="2.01545" fill="#FAFAFA" fill-opacity="0.8"/>
<circle cx="258.986" cy="22.1697" r="2.01545" fill="#FAFAFA" fill-opacity="0.8"/>
<circle cx="207.592" cy="42.324" r="2.01545" fill="#FAFAFA" fill-opacity="0.8"/>
<circle cx="224.722" cy="42.324" r="2.01545" fill="#FAFAFA" fill-opacity="0.8"/>
<circle cx="241.853" cy="42.324" r="2.01545" fill="#FAFAFA" fill-opacity="0.8"/>
<circle cx="258.986" cy="42.324" r="2.01545" fill="#FAFAFA" fill-opacity="0.8"/>
<circle cx="207.592" cy="62.4788" r="2.01545" fill="#FAFAFA" fill-opacity="0.8"/>
<circle cx="224.722" cy="62.4788" r="2.01545" fill="#FAFAFA" fill-opacity="0.8"/>
<circle cx="241.853" cy="62.4788" r="2.01545" fill="#FAFAFA" fill-opacity="0.8"/>
<circle cx="258.986" cy="62.4788" r="2.01545" fill="#FAFAFA" fill-opacity="0.8"/>
<circle cx="207.592" cy="82.6336" r="2.01545" fill="#FAFAFA" fill-opacity="0.8"/>
<circle cx="224.722" cy="82.6336" r="2.01545" fill="#FAFAFA" fill-opacity="0.8"/>
<circle cx="241.853" cy="82.6336" r="2.01545" fill="#FAFAFA" fill-opacity="0.8"/>
<circle cx="258.986" cy="82.6336" r="2.01545" fill="#FAFAFA" fill-opacity="0.8"/>
<circle cx="207.592" cy="102.788" r="2.01545" fill="#FAFAFA" fill-opacity="0.8"/>
<circle cx="224.722" cy="102.788" r="2.01545" fill="#FAFAFA" fill-opacity="0.8"/>
<circle cx="241.853" cy="102.788" r="2.01545" fill="#FAFAFA" fill-opacity="0.8"/>
<circle cx="258.986" cy="102.788" r="2.01545" fill="#FAFAFA" fill-opacity="0.8"/>
<circle cx="2.01545" cy="122.942" r="2.01545" fill="#FAFAFA" fill-opacity="0.8"/>
<circle cx="19.1463" cy="122.942" r="2.01545" fill="#FAFAFA" fill-opacity="0.8"/>
<circle cx="36.2772" cy="122.942" r="2.01545" fill="#FAFAFA" fill-opacity="0.8"/>
<circle cx="53.408" cy="122.942" r="2.01545" fill="#FAFAFA" fill-opacity="0.8"/>
<circle cx="2.01545" cy="143.097" r="2.01545" fill="#FAFAFA" fill-opacity="0.8"/>
<circle cx="19.1463" cy="143.097" r="2.01545" fill="#FAFAFA" fill-opacity="0.8"/>
<circle cx="36.2772" cy="143.097" r="2.01545" fill="#FAFAFA" fill-opacity="0.8"/>
<circle cx="53.408" cy="143.097" r="2.01545" fill="#FAFAFA" fill-opacity="0.8"/>
<circle cx="2.01545" cy="163.251" r="2.01545" fill="#FAFAFA" fill-opacity="0.8"/>
<circle cx="19.1463" cy="163.251" r="2.01545" fill="#FAFAFA" fill-opacity="0.8"/>
<circle cx="36.2772" cy="163.251" r="2.01545" fill="#FAFAFA" fill-opacity="0.8"/>
<circle cx="53.408" cy="163.251" r="2.01545" fill="#FAFAFA" fill-opacity="0.8"/>
<circle cx="2.01545" cy="183.406" r="2.01545" fill="#FAFAFA" fill-opacity="0.8"/>
<circle cx="19.1463" cy="183.406" r="2.01545" fill="#FAFAFA" fill-opacity="0.8"/>
<circle cx="36.2772" cy="183.406" r="2.01545" fill="#FAFAFA" fill-opacity="0.8"/>
<circle cx="53.408" cy="183.406" r="2.01545" fill="#FAFAFA" fill-opacity="0.8"/>
<circle cx="2.01545" cy="203.56" r="2.01545" fill="#FAFAFA" fill-opacity="0.8"/>
<circle cx="19.1463" cy="203.56" r="2.01545" fill="#FAFAFA" fill-opacity="0.8"/>
<circle cx="36.2772" cy="203.56" r="2.01545" fill="#FAFAFA" fill-opacity="0.8"/>
<circle cx="53.408" cy="203.56" r="2.01545" fill="#FAFAFA" fill-opacity="0.8"/>
<circle cx="2.01545" cy="223.715" r="2.01545" fill="#FAFAFA" fill-opacity="0.8"/>
<circle cx="19.1463" cy="223.715" r="2.01545" fill="#FAFAFA" fill-opacity="0.8"/>
<circle cx="36.2772" cy="223.715" r="2.01545" fill="#FAFAFA" fill-opacity="0.8"/>
<circle cx="53.408" cy="223.715" r="2.01545" fill="#FAFAFA" fill-opacity="0.8"/>
<circle cx="70.5428" cy="122.942" r="2.01545" fill="#FAFAFA" fill-opacity="0.8"/>
<circle cx="87.6717" cy="122.942" r="2.01545" fill="#FAFAFA" fill-opacity="0.8"/>
<circle cx="104.805" cy="122.942" r="2.01545" fill="#FAFAFA" fill-opacity="0.8"/>
<circle cx="121.933" cy="122.942" r="2.01545" fill="#FAFAFA" fill-opacity="0.8"/>
<circle cx="70.5428" cy="143.097" r="2.01545" fill="#FAFAFA" fill-opacity="0.8"/>
<circle cx="87.6717" cy="143.097" r="2.01545" fill="#FAFAFA" fill-opacity="0.8"/>
<circle cx="104.805" cy="143.097" r="2.01545" fill="#FAFAFA" fill-opacity="0.8"/>
<circle cx="121.933" cy="143.097" r="2.01545" fill="#FAFAFA" fill-opacity="0.8"/>
<circle cx="70.5428" cy="163.251" r="2.01545" fill="#FAFAFA" fill-opacity="0.8"/>
<circle cx="87.6717" cy="163.251" r="2.01545" fill="#FAFAFA" fill-opacity="0.8"/>
<circle cx="104.805" cy="163.251" r="2.01545" fill="#FAFAFA" fill-opacity="0.8"/>
<circle cx="121.933" cy="163.251" r="2.01545" fill="#FAFAFA" fill-opacity="0.8"/>
<circle cx="70.5428" cy="183.406" r="2.01545" fill="#FAFAFA" fill-opacity="0.8"/>
<circle cx="87.6717" cy="183.406" r="2.01545" fill="#FAFAFA" fill-opacity="0.8"/>
<circle cx="104.805" cy="183.406" r="2.01545" fill="#FAFAFA" fill-opacity="0.8"/>
<circle cx="121.933" cy="183.406" r="2.01545" fill="#FAFAFA" fill-opacity="0.8"/>
<circle cx="70.5428" cy="203.56" r="2.01545" fill="#FAFAFA" fill-opacity="0.8"/>
<circle cx="87.6717" cy="203.56" r="2.01545" fill="#FAFAFA" fill-opacity="0.8"/>
<circle cx="104.805" cy="203.56" r="2.01545" fill="#FAFAFA" fill-opacity="0.8"/>
<circle cx="121.933" cy="203.56" r="2.01545" fill="#FAFAFA" fill-opacity="0.8"/>
<circle cx="70.5428" cy="223.715" r="2.01545" fill="#FAFAFA" fill-opacity="0.8"/>
<circle cx="87.6717" cy="223.715" r="2.01545" fill="#FAFAFA" fill-opacity="0.8"/>
<circle cx="104.805" cy="223.715" r="2.01545" fill="#FAFAFA" fill-opacity="0.8"/>
<circle cx="121.933" cy="223.715" r="2.01545" fill="#FAFAFA" fill-opacity="0.8"/>
<circle cx="139.066" cy="122.942" r="2.01545" fill="#FAFAFA" fill-opacity="0.8"/>
<circle cx="156.197" cy="122.942" r="2.01545" fill="#FAFAFA" fill-opacity="0.8"/>
<circle cx="173.328" cy="122.942" r="2.01545" fill="#FAFAFA" fill-opacity="0.8"/>
<circle cx="190.461" cy="122.942" r="2.01545" fill="#FAFAFA" fill-opacity="0.8"/>
<circle cx="139.066" cy="143.097" r="2.01545" fill="#FAFAFA" fill-opacity="0.8"/>
<circle cx="156.197" cy="143.097" r="2.01545" fill="#FAFAFA" fill-opacity="0.8"/>
<circle cx="173.328" cy="143.097" r="2.01545" fill="#FAFAFA" fill-opacity="0.8"/>
<circle cx="190.461" cy="143.097" r="2.01545" fill="#FAFAFA" fill-opacity="0.8"/>
<circle cx="139.066" cy="163.251" r="2.01545" fill="#FAFAFA" fill-opacity="0.8"/>
<circle cx="156.197" cy="163.251" r="2.01545" fill="#FAFAFA" fill-opacity="0.8"/>
<circle cx="173.328" cy="163.251" r="2.01545" fill="#FAFAFA" fill-opacity="0.8"/>
<circle cx="190.461" cy="163.251" r="2.01545" fill="#FAFAFA" fill-opacity="0.8"/>
<circle cx="139.066" cy="183.406" r="2.01545" fill="#FAFAFA" fill-opacity="0.8"/>
<circle cx="156.197" cy="183.406" r="2.01545" fill="#FAFAFA" fill-opacity="0.8"/>
<circle cx="173.328" cy="183.406" r="2.01545" fill="#FAFAFA" fill-opacity="0.8"/>
<circle cx="190.461" cy="183.406" r="2.01545" fill="#FAFAFA" fill-opacity="0.8"/>
<circle cx="139.066" cy="203.56" r="2.01545" fill="#FAFAFA" fill-opacity="0.8"/>
<circle cx="156.197" cy="203.56" r="2.01545" fill="#FAFAFA" fill-opacity="0.8"/>
<circle cx="173.328" cy="203.56" r="2.01545" fill="#FAFAFA" fill-opacity="0.8"/>
<circle cx="190.461" cy="203.56" r="2.01545" fill="#FAFAFA" fill-opacity="0.8"/>
<circle cx="139.066" cy="223.715" r="2.01545" fill="#FAFAFA" fill-opacity="0.8"/>
<circle cx="156.197" cy="223.715" r="2.01545" fill="#FAFAFA" fill-opacity="0.8"/>
<circle cx="173.328" cy="223.715" r="2.01545" fill="#FAFAFA" fill-opacity="0.8"/>
<circle cx="190.461" cy="223.715" r="2.01545" fill="#FAFAFA" fill-opacity="0.8"/>
<circle cx="207.592" cy="122.942" r="2.01545" fill="#FAFAFA" fill-opacity="0.8"/>
<circle cx="224.722" cy="122.942" r="2.01545" fill="#FAFAFA" fill-opacity="0.8"/>
<circle cx="241.853" cy="122.942" r="2.01545" fill="#FAFAFA" fill-opacity="0.8"/>
<circle cx="258.986" cy="122.942" r="2.01545" fill="#FAFAFA" fill-opacity="0.8"/>
<circle cx="207.592" cy="143.097" r="2.01545" fill="#FAFAFA" fill-opacity="0.8"/>
<circle cx="224.722" cy="143.097" r="2.01545" fill="#FAFAFA" fill-opacity="0.8"/>
<circle cx="241.853" cy="143.097" r="2.01545" fill="#FAFAFA" fill-opacity="0.8"/>
<circle cx="258.986" cy="143.097" r="2.01545" fill="#FAFAFA" fill-opacity="0.8"/>
<circle cx="207.592" cy="163.251" r="2.01545" fill="#FAFAFA" fill-opacity="0.8"/>
<circle cx="224.722" cy="163.251" r="2.01545" fill="#FAFAFA" fill-opacity="0.8"/>
<circle cx="241.853" cy="163.251" r="2.01545" fill="#FAFAFA" fill-opacity="0.8"/>
<circle cx="258.986" cy="163.251" r="2.01545" fill="#FAFAFA" fill-opacity="0.8"/>
<circle cx="207.592" cy="183.406" r="2.01545" fill="#FAFAFA" fill-opacity="0.8"/>
<circle cx="224.722" cy="183.406" r="2.01545" fill="#FAFAFA" fill-opacity="0.8"/>
<circle cx="241.853" cy="183.406" r="2.01545" fill="#FAFAFA" fill-opacity="0.8"/>
<circle cx="258.986" cy="183.406" r="2.01545" fill="#FAFAFA" fill-opacity="0.8"/>
<circle cx="207.592" cy="203.56" r="2.01545" fill="#FAFAFA" fill-opacity="0.8"/>
<circle cx="224.722" cy="203.56" r="2.01545" fill="#FAFAFA" fill-opacity="0.8"/>
<circle cx="241.853" cy="203.56" r="2.01545" fill="#FAFAFA" fill-opacity="0.8"/>
<circle cx="258.986" cy="203.56" r="2.01545" fill="#FAFAFA" fill-opacity="0.8"/>
<circle cx="207.592" cy="223.715" r="2.01545" fill="#FAFAFA" fill-opacity="0.8"/>
<circle cx="224.722" cy="223.715" r="2.01545" fill="#FAFAFA" fill-opacity="0.8"/>
<circle cx="241.853" cy="223.715" r="2.01545" fill="#FAFAFA" fill-opacity="0.8"/>
<circle cx="258.986" cy="223.715" r="2.01545" fill="#FAFAFA" fill-opacity="0.8"/>
</svg>
