<svg width="286" height="215" viewBox="0 0 286 215" fill="none" xmlns="http://www.w3.org/2000/svg">
<mask id="mask0_3_83670" style="mask-type:luminance" maskUnits="userSpaceOnUse" x="0" y="0" width="286" height="215">
<rect width="286" height="214.5" fill="white"/>
</mask>
<g mask="url(#mask0_3_83670)">
<path d="M101.594 32.3177C92.4683 23.1923 79.9549 20.9104 73.6442 27.2211C67.3334 33.5318 69.6153 46.0453 78.7407 55.1707C82.1159 58.6171 86.2572 61.2177 90.8276 62.7607C94.7282 64.0567 98.2428 66.3075 101.052 69.3084C101.202 69.466 101.355 69.6225 101.51 69.7779C107.991 76.2587 116.534 78.2236 120.59 74.1668C124.646 70.11 122.682 61.5675 116.201 55.0867C116.046 54.9313 115.889 54.7786 115.732 54.6285C112.731 51.8197 110.48 48.3051 109.184 44.4045C107.641 39.8341 105.04 35.6928 101.594 32.3177Z" fill="#97CC64"/>
<mask id="mask1_3_83670" style="mask-type:luminance" maskUnits="userSpaceOnUse" x="70" y="23" width="53" height="54">
<path fill-rule="evenodd" clip-rule="evenodd" d="M101.594 32.3177C92.4683 23.1923 79.9549 20.9104 73.6442 27.2211C67.3334 33.5318 69.6153 46.0453 78.7407 55.1707C82.1159 58.6171 86.2572 61.2177 90.8276 62.7607C94.7282 64.0567 98.2428 66.3075 101.052 69.3084C101.202 69.466 101.355 69.6225 101.51 69.7779C107.991 76.2587 116.534 78.2236 120.59 74.1668C124.646 70.11 122.682 61.5675 116.201 55.0867C116.046 54.9313 115.889 54.7786 115.732 54.6285C112.731 51.8197 110.48 48.3051 109.184 44.4045C107.641 39.8341 105.04 35.6928 101.594 32.3177Z" fill="white"/>
</mask>
<g mask="url(#mask1_3_83670)">
<path d="M80.2529 17.4908C64.6091 81.1531 109.639 43.8098 122.701 86.7041C135.763 129.598 53.507 87.2087 53.507 87.2087L50.479 3.43878" fill="#75AA3C"/>
</g>
<path d="M87.4994 35.8829C87.8648 37.7317 87.5871 39.65 86.7124 41.3193C86.4981 41.7274 87.1166 42.0902 87.3315 41.6812C88.296 39.8425 88.5994 37.7281 88.1908 35.6924C88.1004 35.2403 87.4093 35.4317 87.4994 35.883V35.8829Z" fill="#75AA3C"/>
<rect x="205.169" y="67.8142" width="42.5438" height="56.9653" rx="8.1863" fill="#589BF7"/>
<mask id="mask2_3_83670" style="mask-type:luminance" maskUnits="userSpaceOnUse" x="205" y="67" width="43" height="58">
<rect x="205.169" y="67.8142" width="42.5438" height="56.9653" rx="8.1863" fill="white"/>
</mask>
<g mask="url(#mask2_3_83670)">
<path d="M249.64 115.043C245.161 105.127 249.676 127.955 207.983 124.78C166.29 121.605 228.203 141.786 228.203 141.786L257.799 123.371" fill="#2976DF"/>
</g>
<rect x="208.834" y="72.4946" width="35.2123" height="31.9032" rx="4.88712" fill="#EFF3FC"/>
<mask id="mask3_3_83670" style="mask-type:luminance" maskUnits="userSpaceOnUse" x="208" y="72" width="37" height="33">
<rect x="208.834" y="72.4946" width="35.2123" height="31.9032" rx="4.88712" fill="white"/>
</mask>
<g mask="url(#mask3_3_83670)">
<path d="M194.447 83.3697C206.766 84.4896 207.071 72.4948 216.757 72.4948C226.443 72.4948 205.168 68.9719 205.168 68.9719L203.726 71.8515" fill="#D6DCF2"/>
<path d="M228.289 81H219.71C218.213 81 217 82.2612 217 83.817V92.1829C217 93.7387 218.213 95 219.71 95H228.289C229.786 95 231 93.7387 231 92.1829V83.817C231 82.2612 229.786 81 228.289 81Z" fill="#589BF7"/>
<path d="M228.517 89.562L233.773 93.704C233.975 93.8632 234.218 93.9628 234.475 93.9914C234.731 94.02 234.991 93.9764 235.223 93.8656C235.456 93.7548 235.652 93.5813 235.79 93.3651C235.927 93.1488 236 92.8987 236 92.6434V84.3565C236 84.1012 235.927 83.8511 235.79 83.6349C235.652 83.4186 235.456 83.2451 235.223 83.1343C234.991 83.0235 234.731 82.9799 234.475 83.0085C234.218 83.0371 233.975 83.1367 233.773 83.296L228.517 87.4408C228.355 87.5678 228.225 87.7291 228.136 87.9127C228.046 88.0963 228 88.2976 228 88.5014C228 88.7052 228.046 88.9065 228.136 89.0901C228.225 89.2737 228.355 89.435 228.517 89.562Z" fill="#589BF7"/>
</g>
<rect x="211.438" y="110.098" width="28.9843" height="3.23544" rx="1.61772" fill="#2976DF"/>
<rect x="211.438" y="115.043" width="21.0804" height="3.23544" rx="1.61772" fill="#2976DF"/>
<path d="M243.246 114.406C242.707 115.044 242.066 115.589 241.348 116.016C241.232 116.09 241.195 116.242 241.264 116.361C241.334 116.48 241.485 116.522 241.606 116.458C242.362 116.009 243.038 115.438 243.607 114.767C243.703 114.666 243.703 114.507 243.607 114.406C243.507 114.307 243.346 114.307 243.246 114.406Z" fill="#2976DF"/>
<rect x="32.1626" y="67.814" width="42.5438" height="56.9653" rx="8.1863" fill="#FFC562"/>
<mask id="mask4_3_83670" style="mask-type:luminance" maskUnits="userSpaceOnUse" x="32" y="67" width="43" height="58">
<rect x="32.1626" y="67.814" width="42.5438" height="56.9653" rx="8.1863" fill="white"/>
</mask>
<g mask="url(#mask4_3_83670)">
<path d="M77.0846 69.0232C82.3356 131.373 52.3264 131.151 31.6952 128.862C11.0641 126.573 62.7838 139.771 62.7838 139.771L77.3674 137.372L86.1805 101.878" fill="#D89D35"/>
</g>
<rect x="35.8281" y="72.4944" width="35.2123" height="31.9032" rx="4.88712" fill="#EFF3FC"/>
<rect x="38.4326" y="110.098" width="28.9843" height="3.23544" rx="1.61772" fill="#E84B23"/>
<rect x="38.4326" y="115.043" width="21.0804" height="3.23544" rx="1.61772" fill="#E84B23"/>
<path d="M70.1704 117.442C70.1484 117.473 70.126 117.504 70.1031 117.534C70.1184 117.514 70.1141 117.521 70.101 117.537L70.0648 117.581C70.0186 117.637 69.9702 117.691 69.9198 117.743C69.8668 117.798 69.8116 117.85 69.7543 117.901C69.7286 117.923 69.7024 117.946 69.6758 117.967L69.6313 118.003C69.6597 117.981 69.6343 118.001 69.6195 118.012C69.5033 118.099 69.3808 118.176 69.2531 118.245C69.1891 118.279 69.1237 118.31 69.0578 118.34C69.0142 118.36 69.0725 118.335 69.0451 118.346L68.9921 118.367C68.9564 118.38 68.9205 118.393 68.8841 118.406C68.7479 118.444 68.668 118.584 68.7056 118.721C68.7431 118.857 68.8839 118.937 69.0201 118.899C69.6642 118.678 70.2215 118.258 70.6116 117.7C70.682 117.578 70.6411 117.422 70.5198 117.35C70.3974 117.283 70.2436 117.323 70.17 117.442L70.1704 117.442Z" fill="#D89D35"/>
<rect x="66.4634" y="54.5309" width="62.3846" height="83.5319" rx="12.0041" fill="#FE7578"/>
<mask id="mask5_3_83670" style="mask-type:luminance" maskUnits="userSpaceOnUse" x="66" y="54" width="63" height="85">
<rect x="66.4634" y="54.5309" width="62.3846" height="83.5319" rx="12.0041" fill="white"/>
</mask>
<g mask="url(#mask5_3_83670)">
<path d="M131.812 86.6634C123.472 70.664 155.576 145.075 73.4746 138.064C-8.62735 131.052 138.281 163.914 138.281 163.914L148.681 105.501" fill="#E55A61"/>
</g>
<rect x="71.8384" y="61.3939" width="51.6338" height="46.7817" rx="7.16621" fill="#EFF3FC"/>
<mask id="mask6_3_83670" style="mask-type:luminance" maskUnits="userSpaceOnUse" x="71" y="61" width="53" height="48">
<rect x="71.8384" y="61.3939" width="51.6338" height="46.7817" rx="7.16621" fill="white"/>
</mask>
<g mask="url(#mask6_3_83670)">
<path d="M111.002 97H90.5786C88.3093 97 85.8752 95.1596 85.1363 92.8936L80.2119 77.7213C79.4764 75.4553 80.7166 73.6148 82.9858 73.6148H103.409C105.675 73.6148 108.109 75.4553 108.848 77.7213L113.773 92.8936C114.508 95.1596 113.268 97 111.002 97Z" fill="#FE7578"/>
<path d="M108.726 76.9953L100.672 85.5974C99.1114 87.2466 96.1396 87.2466 93.4976 85.5974L80.1987 77.213" stroke="#F5EBDD" stroke-width="2" stroke-miterlimit="10" stroke-linecap="round"/>
<path d="M100.988 85.3466L113.687 93.3517" stroke="#F5EBDD" stroke-width="2" stroke-miterlimit="10" stroke-linecap="round"/>
<path d="M85.3408 93.5469L92.9336 85.4362" stroke="#F5EBDD" stroke-width="2" stroke-miterlimit="10" stroke-linecap="round"/>
<path d="M109.508 79.5185C106.968 79.5185 104.231 77.4405 103.393 74.9008C103.004 73.7002 103.106 72.592 103.683 71.8037C104.214 71.0781 105.108 70.6756 106.203 70.6756C108.743 70.6756 111.48 72.7536 112.315 75.3098C112.707 76.5104 112.605 77.6187 112.025 78.4037C111.497 79.1161 110.603 79.5185 109.508 79.5185Z" fill="#C95053"/>
<path d="M106.203 71.3192C108.439 71.3192 110.953 73.2322 111.688 75.4949C112.018 76.4844 111.942 77.3816 111.494 78.0016C111.255 78.2913 110.952 78.5201 110.608 78.6692C110.264 78.8183 109.889 78.8834 109.515 78.8592C107.275 78.8592 104.765 76.9462 104.03 74.6802C103.7 73.6907 103.776 72.7969 104.224 72.1768C104.627 71.6227 105.329 71.3192 106.203 71.3192ZM106.203 69.9999C103.393 69.9999 101.853 72.279 102.766 75.0892C103.68 77.8994 106.698 80.1785 109.508 80.1785C112.318 80.1785 113.859 77.8994 112.945 75.0892C112.031 72.279 109.013 69.9999 106.203 69.9999Z" fill="#F5EBDD"/>
<path d="M65.82 94.2398C66.6844 46.7351 122.574 61.3938 122.574 61.3938L59.3017 57.18L55.5718 61.3938" fill="#D6DCF2"/>
</g>
<rect x="75.6572" y="116.534" width="42.5014" height="4.74429" rx="2.37214" fill="#FFC562"/>
<rect x="75.6572" y="123.785" width="30.9114" height="4.74429" rx="2.37214" fill="#FFC562"/>
<path d="M121.953 122.651C121.927 122.752 121.897 122.852 121.863 122.95C121.847 122.997 121.829 123.043 121.811 123.089C121.774 123.187 121.83 123.05 121.805 123.106C121.794 123.131 121.783 123.156 121.772 123.181C121.684 123.37 121.581 123.552 121.463 123.723C121.435 123.764 121.405 123.803 121.377 123.844C121.343 123.893 121.431 123.778 121.365 123.859L121.324 123.91C121.258 123.991 121.188 124.068 121.115 124.143C121.042 124.217 120.966 124.288 120.887 124.356C120.846 124.392 120.803 124.427 120.76 124.461C120.789 124.438 120.783 124.443 120.757 124.462C120.731 124.481 120.704 124.5 120.677 124.519C120.498 124.624 120.438 124.853 120.542 125.032C120.647 125.211 120.876 125.271 121.055 125.167C121.853 124.612 122.428 123.791 122.676 122.851C122.711 122.722 122.675 122.583 122.581 122.488C122.487 122.392 122.349 122.354 122.22 122.388C122.09 122.422 121.988 122.522 121.953 122.651L121.953 122.651Z" fill="#E55A61"/>
<rect x="151.025" y="54.5309" width="62.3846" height="83.5319" rx="12.0041" fill="#9A7ED9"/>
<mask id="mask7_3_83670" style="mask-type:luminance" maskUnits="userSpaceOnUse" x="151" y="54" width="63" height="85">
<rect x="151.025" y="54.5309" width="62.3846" height="83.5319" rx="12.0041" fill="white"/>
</mask>
<g mask="url(#mask7_3_83670)">
<path d="M213.41 99.96C209.909 91.1814 215.794 142.25 177.663 138.063C139.532 133.877 223.28 152.879 223.28 152.879L230.083 121.279" fill="#6F4EB9"/>
</g>
<rect x="156.401" y="61.3939" width="51.6338" height="46.7817" rx="7.16621" fill="#EFF3FC"/>
<mask id="mask8_3_83670" style="mask-type:luminance" maskUnits="userSpaceOnUse" x="156" y="61" width="53" height="48">
<rect x="156.401" y="61.3939" width="51.6338" height="46.7817" rx="7.16621" fill="white"/>
</mask>
<g mask="url(#mask8_3_83670)">
<path d="M182.514 68.3848L180.052 71.4496L191.366 81.3767C191.738 81.7032 192.225 81.8549 192.719 81.7985C193.213 81.742 193.674 81.4819 194 81.0755C194.326 80.6691 194.492 80.1495 194.459 79.6313C194.427 79.113 194.2 78.6383 193.828 78.3118L182.514 68.3848Z" fill="#30242A"/>
<path d="M191.442 76.218L188.98 79.2829L191.366 81.376C191.738 81.7025 192.225 81.8543 192.719 81.7978C193.213 81.7413 193.674 81.4812 194 81.0748C194.327 80.6684 194.492 80.1489 194.46 79.6306C194.427 79.1123 194.2 78.6376 193.828 78.3111L191.442 76.218Z" fill="#30242A"/>
<path d="M178.137 72.5254C176.034 71.7632 174.991 69.3219 175.806 67.0726C176.622 64.8233 178.987 63.6178 181.09 64.38C183.192 65.1423 184.235 67.5836 183.42 69.8329C182.605 72.0822 180.239 73.2877 178.137 72.5254Z" fill="#9A7ED9"/>
<path d="M193.969 81.032C197.904 84.4337 202.694 89.0876 208.253 85.4207C215.208 80.8327 208.434 71.0041 202.937 78.3589C196.737 86.6543 211.613 99.4662 204.127 106.307C197.318 112.527 187.649 99.6586 179.287 99.8027C172.353 99.9218 169.315 107.806 169.315 107.806" stroke="#30242A" stroke-width="2" stroke-miterlimit="10" stroke-linecap="round"/>
<path d="M154.78 84.7844C151.026 63.4993 166.527 61.2442 189.969 61.3935C213.41 61.5428 151.026 54.531 151.026 54.531L143.52 56.9308" fill="#D6DCF2"/>
</g>
<rect x="160.222" y="116.534" width="42.5014" height="4.74429" rx="2.37214" fill="#6F4EB9"/>
<rect x="160.222" y="123.785" width="30.9114" height="4.74429" rx="2.37214" fill="#6F4EB9"/>
<path d="M197.241 127.432L195.473 128.829C195.327 128.975 195.327 129.212 195.473 129.359C195.622 129.499 195.854 129.499 196.003 129.359L197.771 127.962C197.917 127.815 197.917 127.579 197.771 127.432C197.622 127.292 197.39 127.292 197.241 127.432Z" fill="#6F4EB9"/>
<path d="M135.789 65.3181C129.218 63.2426 130.388 48.3571 143.263 50.1079C156.139 51.8588 153.874 75.4996 173.992 74.1376C194.887 72.723 193.488 122.706 165.704 115.872C145.356 110.867 135.789 65.3181 135.789 65.3181Z" fill="#3A3530"/>
<mask id="mask9_3_83670" style="mask-type:luminance" maskUnits="userSpaceOnUse" x="131" y="49" width="58" height="68">
<path fill-rule="evenodd" clip-rule="evenodd" d="M135.789 65.3181C129.218 63.2426 130.388 48.3571 143.263 50.1079C156.139 51.8588 153.874 75.4996 173.992 74.1376C194.887 72.723 193.488 122.706 165.704 115.872C145.356 110.867 135.789 65.3181 135.789 65.3181Z" fill="white"/>
</mask>
<g mask="url(#mask9_3_83670)">
<path d="M178.589 115.966C180.546 103.914 155.196 100.144 157.081 95.026C158.966 89.9084 160.861 84.1433 155.24 81.8471C149.619 79.5509 145.486 92.0076 145.486 92.0076L143.474 102.023L146.963 109.717L179.028 117.85" fill="#190000"/>
</g>
<path d="M133.309 63.4363C133.309 63.4363 139.852 59.1236 145.486 62.4961L144.804 65.2634L135.058 65.8255L133.309 63.4363Z" fill="#FE7578"/>
<path d="M95.0864 174.749C93.7248 169.262 72.4695 97.2575 143.725 97.477C214.98 97.6965 188.284 180.661 188.284 180.661L95.0864 174.749Z" fill="#FE7578"/>
<mask id="mask10_3_83670" style="mask-type:luminance" maskUnits="userSpaceOnUse" x="91" y="97" width="103" height="84">
<path fill-rule="evenodd" clip-rule="evenodd" d="M95.0864 174.749C93.7248 169.262 72.4695 97.2575 143.725 97.477C214.98 97.6965 188.284 180.661 188.284 180.661L95.0864 174.749Z" fill="white"/>
</mask>
<g mask="url(#mask10_3_83670)">
<ellipse cx="142.35" cy="98.3692" rx="18.3291" ry="13.4125" fill="#F0F3FC"/>
<ellipse cx="142.35" cy="98.3696" rx="13.6657" ry="10" fill="#FF9763"/>
<mask id="mask11_3_83670" style="mask-type:luminance" maskUnits="userSpaceOnUse" x="128" y="88" width="29" height="21">
<ellipse cx="142.35" cy="98.3696" rx="13.6657" ry="10" fill="white"/>
</mask>
<g mask="url(#mask11_3_83670)">
<ellipse cx="134.426" cy="97.7651" rx="16.8502" ry="8.17217" fill="#E84B23"/>
</g>
<path d="M177.931 125.171C177.821 129.519 175.779 142.077 175.779 142.077L179.123 133.166L177.931 125.171Z" fill="#FE7578"/>
<path d="M83.7041 148.851C95.7766 151.43 97.8919 153.531 97.8919 153.531L83.7041 148.851Z" fill="#FE7578"/>
<path d="M85.8218 151.014C90.5842 150.584 95.2856 152.33 98.6131 155.765C98.6131 155.765 88.787 127.921 104.036 127.286C119.286 126.65 177.383 128.514 179.123 133.165C180.863 137.817 177.954 153.531 177.954 153.531C177.954 153.531 183.182 161.351 193.488 153.531C203.794 145.712 197.008 167.739 197.008 167.739L96.0412 178.117" fill="#BA393C"/>
</g>
<path d="M141.966 107.24C141.606 116.296 125.275 119.52 121.78 99.8375C121.78 99.8375 131.751 94.331 131.916 97.0524C132.441 105.736 141.966 107.24 141.966 107.24Z" fill="#F0F3FC"/>
<path d="M141.88 107.24C142.24 116.297 157.88 118.909 162.838 100.021C162.838 100.021 152.094 94.3315 151.929 97.0528C151.404 105.737 141.88 107.24 141.88 107.24Z" fill="#F0F3FC"/>
<path d="M176.358 187.248H102.435L97.9308 137.818C97.5226 133.34 100.311 129.644 104.165 129.644H174.628C178.482 129.644 181.27 133.34 180.862 137.818L176.358 187.248Z" fill="#F0F3FC"/>
<mask id="mask12_3_83670" style="mask-type:luminance" maskUnits="userSpaceOnUse" x="97" y="129" width="84" height="59">
<path fill-rule="evenodd" clip-rule="evenodd" d="M176.358 187.248H102.435L97.9308 137.818C97.5226 133.34 100.311 129.644 104.165 129.644H174.628C178.482 129.644 181.27 133.34 180.862 137.818L176.358 187.248Z" fill="white"/>
</mask>
<g mask="url(#mask12_3_83670)">
<path d="M89.2827 156.954C105.097 149.135 130.483 173.817 143.912 180.533C157.341 187.248 168.637 149.667 186.992 154.908C205.348 160.149 168.19 188.179 168.19 188.179L119.932 190.93" fill="#D6DCF2"/>
</g>
<path d="M144.715 155.437C144.498 157.581 142.33 159.172 139.858 159.127C137.386 159.083 135.281 157.415 135.147 155.265C135.003 152.944 137.177 150.964 140.015 151.016C142.852 151.067 144.948 153.123 144.715 155.437Z" fill="#FF9763"/>
<path d="M198.438 195.8L203.822 195.057C203.822 195.057 213.365 206.675 188.407 211.659L198.438 195.8Z" fill="#3A3530"/>
<path d="M191.213 194.356C194.768 193.965 198.352 193.909 201.918 194.191C208.898 195.293 202.33 208.965 188.407 211.659C188.407 211.658 197.645 199.417 191.213 194.356Z" fill="#F0F3FC"/>
<path d="M163.035 197.701C163.035 197.701 179.312 195.28 191.211 194.355C197.643 199.417 188.404 211.658 188.404 211.658C187.52 211.83 186.626 211.954 185.728 212.029C169.995 213.346 156.535 211.993 154.715 210.577C152.894 209.162 163.035 197.701 163.035 197.701Z" fill="#3A3530"/>
<path d="M152.451 189.376C160.686 194.636 166.061 198.287 166.061 198.287C168.484 201.037 168.559 205.137 166.238 207.974C164.869 209.833 162.641 210.858 160.338 210.689C156.953 210.458 153.557 210.141 150.17 209.743C151.393 204.138 152.977 195.351 152.451 189.376Z" fill="#FF9763"/>
<path d="M68.9369 153.807C76.9377 143.108 127.658 173.538 152.452 189.376C152.978 195.351 151.394 204.138 150.171 209.743C99.046 203.73 49.988 179.147 68.9369 153.807Z" fill="#274B69"/>
<mask id="mask13_3_83670" style="mask-type:luminance" maskUnits="userSpaceOnUse" x="64" y="151" width="89" height="59">
<path fill-rule="evenodd" clip-rule="evenodd" d="M68.9369 153.807C76.9377 143.108 127.658 173.538 152.452 189.376C152.978 195.351 151.394 204.138 150.171 209.743C99.046 203.73 49.988 179.147 68.9369 153.807Z" fill="white"/>
</mask>
<g mask="url(#mask13_3_83670)">
<path d="M71.4136 194.356C83.5952 190.259 87.4371 187.679 114.137 194.002C122.077 195.883 135.891 180.61 143.303 177.56C150.716 174.51 155.443 194.002 155.443 194.002L131.257 205.236L114.43 207.284L78.8335 202.831L71.4136 194.356Z" fill="#11314B"/>
<circle cx="66.9327" cy="156.954" r="11.0119" fill="#11314B"/>
<path d="M56.0694 155.232C47.3393 165.566 121.273 206.79 141.965 208.615" stroke="#11314B" stroke-width="1.28789" stroke-linecap="round" stroke-linejoin="round" stroke-dasharray="2.58"/>
</g>
<ellipse cx="141.964" cy="85.1313" rx="13.4789" ry="18.8731" fill="#FF9763"/>
<mask id="mask14_3_83670" style="mask-type:luminance" maskUnits="userSpaceOnUse" x="128" y="66" width="28" height="39">
<ellipse cx="141.964" cy="85.1313" rx="13.4789" ry="18.8731" fill="white"/>
</mask>
<g mask="url(#mask14_3_83670)">
<ellipse opacity="0.27" cx="133.875" cy="95.7736" rx="3.42945" ry="2.61143" transform="rotate(-2.5189 133.875 95.7736)" fill="#E84B23"/>
<ellipse opacity="0.27" cx="150.055" cy="95.062" rx="3.42945" ry="2.61143" transform="rotate(-2.5189 150.055 95.062)" fill="#E84B23"/>
<rect x="136.083" y="87.3212" width="2.4385" height="4.49773" rx="1.21925" transform="rotate(1.59305 136.083 87.3212)" fill="#190000"/>
<rect x="145.455" y="87.2226" width="2.43853" height="4.49779" rx="1.21926" transform="rotate(1.5948 145.455 87.2226)" fill="#190000"/>
<path d="M137.069 84.4951C134.562 85.1513 135.209 86.5264 136.803 86.218C138.398 85.9097 138.708 84.0661 137.069 84.4951Z" fill="#190000"/>
<path d="M146.683 84.2859C149.15 85.0807 148.619 86.3185 147.044 85.9223C145.469 85.526 145.071 83.7666 146.683 84.2859Z" fill="#190000"/>
<path d="M143.285 92.5959C143.278 93.4202 142.575 93.0875 141.705 93.08C140.834 93.0725 140.125 93.3933 140.132 92.5689C140.185 91.732 140.883 91.0825 141.722 91.0896C142.56 91.0968 143.247 91.7582 143.285 92.5959Z" fill="#E84B23"/>
<path d="M138.323 97.1864C139.809 103.045 145.241 100.209 145.106 96.5178C145.096 96.3268 144.967 96.1626 144.784 96.1067C142.723 95.5723 140.541 95.7622 138.603 96.6446C138.388 96.7302 138.269 96.9612 138.323 97.1864Z" fill="#C1525F"/>
<mask id="mask15_3_83670" style="mask-type:luminance" maskUnits="userSpaceOnUse" x="138" y="95" width="8" height="6">
<path fill-rule="evenodd" clip-rule="evenodd" d="M138.323 97.1864C139.809 103.045 145.241 100.209 145.106 96.5178C145.096 96.3268 144.967 96.1626 144.784 96.1067C142.723 95.5723 140.541 95.7622 138.603 96.6446C138.388 96.7302 138.269 96.9612 138.323 97.1864Z" fill="white"/>
</mask>
<g mask="url(#mask15_3_83670)">
<ellipse cx="142.775" cy="100.185" rx="3.02996" ry="2.70436" transform="rotate(-22.8319 142.775 100.185)" fill="#993443"/>
<path d="M139.301 96.1643C139.305 96.5129 139.383 96.8566 139.531 97.1726C140.212 97.7144 143.241 97.1865 143.629 96.8095C143.688 96.3553 143.692 95.8959 143.644 95.4407L139.747 95.9117" fill="#F0F3FC"/>
</g>
</g>
<path d="M129.47 82.9848C121.691 79.3591 119.992 85.1528 123.569 89.9089C126.251 93.476 129.235 93.0058 130.56 92.5478" fill="#FF9763"/>
<path d="M153.065 82.9848C160.844 79.3591 162.543 85.1528 158.966 89.9089C156.672 92.9592 154.158 93.0573 152.649 92.7351" fill="#FF9763"/>
<path d="M138.008 74.0408C135.997 89.2172 127.01 86.8827 127.01 86.8827C127.01 86.8827 121.78 64.4425 141.093 64.7019C160.406 64.9612 155.444 85.1316 155.444 85.1316C155.444 85.1316 140.154 85.4555 138.008 74.0408Z" fill="#3A3530"/>
<path d="M86.0094 195.8L80.6262 195.057C80.6262 195.057 71.0826 206.675 96.0411 211.658L86.0094 195.8Z" fill="#3A3530"/>
<path d="M93.2343 194.355C89.6792 193.965 86.0952 193.909 82.5297 194.19C75.5502 195.292 82.1176 208.964 96.041 211.659C96.0402 211.658 86.8025 199.417 93.2343 194.355Z" fill="#F0F3FC"/>
<path d="M121.409 197.701C121.409 197.701 105.132 195.28 93.2338 194.355C86.802 199.417 96.0403 211.658 96.0403 211.658C96.9251 211.83 97.8185 211.954 98.7165 212.029C114.45 213.346 127.909 211.993 129.73 210.577C131.55 209.162 121.409 197.701 121.409 197.701Z" fill="#3A3530"/>
<path d="M131.994 189.376C123.76 194.636 118.384 198.287 118.384 198.287C115.961 201.037 115.886 205.137 118.207 207.974C119.576 209.833 121.805 210.858 124.107 210.689C127.493 210.458 130.888 210.141 134.275 209.743C133.052 204.138 131.468 195.351 131.994 189.376Z" fill="#FF9763"/>
<mask id="mask16_3_83670" style="mask-type:luminance" maskUnits="userSpaceOnUse" x="116" y="189" width="19" height="22">
<path fill-rule="evenodd" clip-rule="evenodd" d="M131.994 189.376C123.76 194.636 118.384 198.287 118.384 198.287C115.961 201.037 115.886 205.137 118.207 207.974C119.576 209.833 121.805 210.858 124.107 210.689C127.493 210.458 130.888 210.141 134.275 209.743C133.052 204.138 131.468 195.351 131.994 189.376Z" fill="white"/>
</mask>
<g mask="url(#mask16_3_83670)">
<path d="M119.405 196.018C118.674 203.48 125.112 211.527 130.964 208.893C136.817 206.26 128.196 190.488 131.995 189.375C135.793 188.262 138.28 212.564 138.28 212.564C138.28 212.564 136.671 213.282 135.208 213.868C133.744 214.453 120.137 214.453 120.137 214.453L112.675 203.357L114.138 194.002L121.411 197.701" fill="#E84B23"/>
</g>
<path d="M215.508 153.807C207.508 143.108 156.787 173.538 131.993 189.376C131.467 195.351 133.052 204.138 134.274 209.743C185.399 203.73 234.457 179.147 215.508 153.807Z" fill="#274B69"/>
<mask id="mask17_3_83670" style="mask-type:luminance" maskUnits="userSpaceOnUse" x="131" y="151" width="89" height="59">
<path fill-rule="evenodd" clip-rule="evenodd" d="M215.508 153.807C207.508 143.108 156.787 173.538 131.993 189.376C131.467 195.351 133.052 204.138 134.274 209.743C185.399 203.73 234.457 179.147 215.508 153.807Z" fill="white"/>
</mask>
<g mask="url(#mask17_3_83670)">
<path d="M173.992 161.342C184.076 162.512 206.248 149.743 212.824 153.272C219.4 156.8 226.502 162.009 222.99 174.885C219.479 187.761 224.458 180.66 224.458 180.66L226.507 151.578L200.958 136.679L173.992 161.342Z" fill="#11314B"/>
<ellipse cx="221.72" cy="156.954" rx="12.2843" ry="13.3966" fill="#11314B"/>
<path d="M136.173 204.748C136.173 204.748 213.027 192.628 219.668 158.446" stroke="#11314B" stroke-width="1.28789" stroke-linecap="round" stroke-linejoin="round" stroke-dasharray="2.58"/>
<path d="M137.942 182.815C136.012 191.971 142.132 212.565 142.132 212.565L129.949 213.715L126.27 185.334" fill="#589BF7"/>
</g>
<circle cx="141.722" cy="115.794" r="1.1858" fill="#190000"/>
<circle cx="141.722" cy="122.661" r="1.1858" fill="#190000"/>
<path d="M144.612 69.2678C144.557 70.405 144.837 71.5335 145.418 72.5126C145.577 72.7801 145.921 72.8696 146.19 72.7127C146.458 72.5559 146.549 72.2117 146.394 71.9426C146.328 71.8317 146.265 71.7191 146.207 71.6038C146.18 71.55 146.154 71.4958 146.129 71.4411C146.115 71.4099 146.101 71.3785 146.087 71.347C146.11 71.4027 146.109 71.4001 146.085 71.339C145.997 71.115 145.923 70.8855 145.864 70.6521C145.835 70.5353 145.811 70.4176 145.79 70.2989C145.786 70.2767 145.756 70.0645 145.772 70.194C145.766 70.1428 145.76 70.0915 145.755 70.0402C145.732 69.7834 145.727 69.5252 145.741 69.2677C145.739 68.9567 145.488 68.705 145.177 68.7031C144.868 68.7098 144.619 68.9587 144.612 69.2677L144.612 69.2678Z" fill="#190000"/>
<path d="M171.471 85.3499C171.69 85.5517 171.896 85.7664 172.089 85.9928C172.138 86.0511 172.187 86.1106 172.235 86.1695C172.262 86.204 172.275 86.2211 172.24 86.1757C172.266 86.2096 172.292 86.2436 172.317 86.2778C172.407 86.4009 172.494 86.5268 172.577 86.6555C172.738 86.9055 172.884 87.165 173.014 87.4327C173.047 87.5015 173.079 87.5708 173.11 87.6406C173.115 87.6504 173.157 87.7458 173.133 87.6897C173.108 87.6336 173.149 87.7302 173.153 87.7399C173.214 87.8896 173.269 88.0413 173.32 88.1945C173.403 88.4953 173.714 88.6719 174.015 88.589C174.316 88.5061 174.492 88.1951 174.409 87.8943C173.988 86.6177 173.253 85.4677 172.27 84.5505C172.128 84.4056 171.919 84.3481 171.723 84.4C171.526 84.4519 171.373 84.6052 171.321 84.8015C171.269 84.9978 171.327 85.2068 171.472 85.349L171.471 85.3499Z" fill="#190000"/>
<path d="M113.214 149.251C115.113 151.148 117.281 152.754 119.647 154.019C120.288 154.362 120.859 153.387 120.217 153.044C117.935 151.827 115.844 150.28 114.013 148.453C113.79 148.245 113.443 148.251 113.227 148.466C113.012 148.681 113.006 149.029 113.214 149.251Z" fill="#D6DCF2"/>
<path d="M172.731 180.768L167.908 182.978C167.641 183.137 167.551 183.481 167.706 183.75C167.867 184.013 168.208 184.103 168.478 183.953L173.301 181.743C173.569 181.584 173.659 181.24 173.504 180.971C173.342 180.707 173.002 180.618 172.731 180.768Z" fill="#11314B"/>
<path d="M166.725 135.899C166.798 135.947 166.871 135.996 166.943 136.047C166.978 136.073 167.014 136.099 167.049 136.125C167.127 136.182 166.95 136.044 167.081 136.149C167.218 136.259 167.351 136.374 167.479 136.494C167.601 136.608 167.718 136.728 167.83 136.852C167.889 136.917 167.946 136.984 168.003 137.051C168.031 137.085 168.058 137.119 168.086 137.153C168.149 137.232 168.074 137.136 168.11 137.185C168.315 137.46 168.499 137.75 168.658 138.053C168.699 138.131 168.738 138.21 168.775 138.29C168.79 138.322 168.805 138.353 168.819 138.385C168.822 138.392 168.887 138.549 168.845 138.444C168.911 138.608 168.97 138.773 169.023 138.94C169.106 139.241 169.417 139.418 169.718 139.335C170.019 139.252 170.195 138.941 170.113 138.64C169.63 137.114 168.635 135.801 167.295 134.924C167.025 134.769 166.681 134.859 166.522 135.126C166.372 135.397 166.462 135.737 166.725 135.899H166.725Z" fill="#D6DCF2"/>
<path d="M93.4754 166.073C92.6666 167.065 92.206 168.295 92.1646 169.575C92.167 169.886 92.4183 170.137 92.7291 170.139C93.0384 170.133 93.2877 169.884 93.2937 169.575C93.2979 169.437 93.3063 169.299 93.3212 169.161C93.3248 169.127 93.329 169.093 93.3334 169.059C93.3249 169.123 93.3255 169.122 93.3353 169.055C93.3479 168.987 93.3585 168.919 93.3721 168.851C93.4234 168.597 93.4937 168.347 93.5822 168.104C93.6058 168.039 93.6307 167.974 93.6569 167.91C93.6126 168.019 93.6953 167.827 93.704 167.808C93.7553 167.699 93.8104 167.591 93.8693 167.485C93.9365 167.365 94.0084 167.247 94.0852 167.132C94.1236 167.075 94.1632 167.018 94.2039 166.962C94.2242 166.934 94.2449 166.907 94.2658 166.879C94.2305 166.925 94.2331 166.922 94.2737 166.871C94.4866 166.648 94.4866 166.297 94.2737 166.073C94.0518 165.856 93.6971 165.856 93.4752 166.073L93.4754 166.073Z" fill="#11314B"/>
<path d="M173.211 112.475C174.845 113.448 176.013 115.044 176.447 116.895C176.612 117.603 177.701 117.303 177.536 116.595C177.024 114.459 175.67 112.622 173.781 111.5C173.513 111.355 173.178 111.449 173.025 111.712C172.871 111.975 172.953 112.313 173.211 112.475H173.211Z" fill="#BA393C"/>
<path d="M106.345 120.704L106.062 121.269C106.021 121.331 105.998 121.404 105.995 121.478C105.968 121.702 106.073 121.922 106.265 122.041L106.399 122.098C106.498 122.125 106.601 122.125 106.7 122.098L106.834 122.041C106.918 121.992 106.988 121.922 107.037 121.838L107.32 121.274C107.361 121.211 107.384 121.139 107.387 121.064C107.415 120.84 107.309 120.621 107.118 120.502L106.983 120.445C106.885 120.418 106.781 120.418 106.683 120.445L106.548 120.502C106.464 120.551 106.394 120.621 106.345 120.704Z" fill="#BA393C"/>
<path d="M232.836 18.2009L228.278 18.0717L227.87 18.0601C220.761 17.8641 213.788 16.0612 207.475 12.7866L207.42 12.758L203.046 10.4938C203.616 8.88966 204.223 7.29996 204.868 5.72471C204.913 5.61451 204.957 5.50392 205.004 5.39431C206.031 2.96715 208.596 1.56825 211.193 2.01864C211.343 2.0448 211.493 2.07725 211.643 2.11598L218.979 4.01283L229.375 6.70091C232.097 7.40285 233.892 9.99404 233.593 12.7886C233.559 13.1037 233.517 13.4181 233.479 13.7327C233.298 15.2276 233.083 16.7169 232.836 18.2009Z" fill="#FF999A"/>
<path d="M224.194 43.9756C222.835 44.9311 221.125 45.2416 219.517 44.8247L216.719 44.1013L209.768 42.3041L203.602 40.7097L201.823 40.2496C199.096 39.5451 197.301 36.946 197.607 34.1469C197.661 33.6477 197.731 33.1496 197.793 32.6513C197.951 31.3883 198.132 30.1284 198.336 28.8716C198.727 26.4669 199.2 24.0776 199.756 21.7035C200.317 19.3104 200.961 16.9389 201.688 14.589C202.112 13.2148 202.565 11.8498 203.046 10.4939L206.298 12.1773L207.475 12.7867C208.252 13.1891 209.038 13.569 209.833 13.9266C214.347 15.9598 219.155 17.2675 224.077 17.8012C225.372 17.9418 226.671 18.0262 227.973 18.0631L232.836 18.2005C232.602 19.6205 232.338 21.0349 232.046 22.4436C231.548 24.8498 230.966 27.2362 230.3 29.6025C229.641 31.9468 228.9 34.2671 228.079 36.5636C227.587 37.9401 227.065 39.3066 226.515 40.6633C226.397 40.9537 226.283 41.2457 226.161 41.5346C225.749 42.5176 225.067 43.3638 224.194 43.9756Z" fill="#FE7578"/>
<mask id="mask18_3_83670" style="mask-type:luminance" maskUnits="userSpaceOnUse" x="197" y="10" width="36" height="36">
<path fill-rule="evenodd" clip-rule="evenodd" d="M224.194 43.9759C222.835 44.9314 221.125 45.2418 219.517 44.8249L216.719 44.1016L209.768 42.3043L203.602 40.7099L201.823 40.2499C199.096 39.5454 197.301 36.9463 197.607 34.1472C197.661 33.6479 197.731 33.1499 197.793 32.6516C197.951 31.3886 198.132 30.1287 198.336 28.8718C198.727 26.4672 199.2 24.0778 199.756 21.7037C200.317 19.3106 200.961 16.9392 201.688 14.5893C202.112 13.2151 202.565 11.85 203.046 10.4941L206.298 12.1775L207.475 12.7869C208.252 13.1893 209.038 13.5693 209.833 13.9268C214.347 15.9601 219.155 17.2677 224.077 17.8015C225.372 17.942 226.671 18.0265 227.973 18.0634L232.836 18.2008C232.602 19.6208 232.338 21.0351 232.046 22.4438C231.548 24.8501 230.966 27.2364 230.3 29.6028C229.641 31.947 228.9 34.2674 228.079 36.5638C227.587 37.9403 227.065 39.3069 226.515 40.6635C226.397 40.954 226.283 41.2459 226.161 41.5348C225.749 42.5178 225.067 43.3641 224.194 43.9759Z" fill="white"/>
</mask>
<g mask="url(#mask18_3_83670)">
<path d="M196.667 37.5608C226.856 44.2893 226.809 36.9851 229.926 31.1207C233.043 25.2564 232.643 44.1524 232.643 44.1524C232.643 44.1524 225.035 50.1829 224.469 50.3437C223.903 50.5045 197.615 44.1754 197.615 44.1754L195.332 43.4786" fill="#E55A61"/>
<path d="M221.541 23.085C219.848 24.0841 217.81 24.3145 215.937 23.7185C214.906 23.3931 213.965 22.8289 213.193 22.0716C211.423 20.3386 210.714 17.792 211.334 15.3939C211.954 12.9958 213.809 11.112 216.197 10.454C219.542 9.53257 223.052 11.232 224.404 14.4275C225.756 17.6231 224.532 21.3258 221.541 23.085H221.541Z" fill="#E55A61"/>
</g>
<path d="M221.113 21.6533C218.011 23.4763 214.028 22.6083 211.966 19.6597C209.903 16.711 210.454 12.6723 213.23 10.383C216.006 8.09375 220.076 8.32305 222.577 10.9097C225.079 13.4963 225.172 17.5713 222.791 20.2696C222.308 20.8161 221.742 21.2831 221.113 21.6533Z" fill="#FFC562"/>
<path d="M220.085 19.9084C218.889 20.6148 217.447 20.7777 216.123 20.3563C214.471 19.8335 213.22 18.4756 212.833 16.7869C212.446 15.0982 212.981 13.3307 214.24 12.1408C214.824 11.5901 215.533 11.1905 216.307 10.9769C217.999 10.5129 219.81 10.99 221.054 12.2275C222.129 13.2961 222.647 14.8026 222.458 16.3061C222.268 17.8096 221.392 19.1402 220.085 19.9084Z" fill="#FF9763"/>
<path d="M225.321 9.92234C225.473 9.95631 225.617 10.0191 225.746 10.1073C225.807 10.1455 225.865 10.1902 225.917 10.2406C225.978 10.2972 226.035 10.358 226.088 10.4224C226.114 10.4536 226.082 10.4126 226.108 10.4485L226.139 10.4929C226.162 10.5256 226.183 10.5592 226.203 10.5938C226.225 10.6313 226.246 10.6696 226.265 10.7088C226.28 10.7374 226.292 10.7671 226.303 10.7977C226.361 10.9416 226.392 11.0948 226.394 11.2497C226.392 11.3265 226.432 11.3981 226.499 11.437C226.565 11.4759 226.647 11.4759 226.713 11.437C226.779 11.3981 226.819 11.3265 226.818 11.2497C226.788 10.4299 226.226 9.72567 225.433 9.51392C225.36 9.49209 225.28 9.51169 225.225 9.56517C225.17 9.61865 225.149 9.69766 225.168 9.77174C225.188 9.84583 225.246 9.90343 225.321 9.92234H225.321Z" fill="#FE7578"/>
<path d="M205.852 32.7289C206.541 33.9495 207.748 34.7901 209.131 35.0128C209.244 35.0399 209.358 34.9751 209.392 34.8648C209.422 34.7521 209.356 34.636 209.244 34.6043C207.968 34.409 206.853 33.6388 206.218 32.5151C206.085 32.2772 205.719 32.4905 205.852 32.7289Z" fill="#E55A61"/>
<ellipse cx="60.1653" cy="153" rx="13.2208" ry="6.95614" transform="rotate(-41.6109 60.1653 153)" fill="#FFC562"/>
<mask id="mask19_3_83670" style="mask-type:luminance" maskUnits="userSpaceOnUse" x="49" y="142" width="23" height="22">
<ellipse cx="60.1653" cy="152.999" rx="13.2208" ry="6.95614" transform="rotate(-41.6109 60.1653 152.999)" fill="white"/>
</mask>
<g mask="url(#mask19_3_83670)">
<path d="M59.5908 142.236C73.5815 142.697 71.4138 150.783 69.9966 154.206C68.5794 157.629 74.3379 148.248 74.3379 148.248L72.3742 139.149L69.3374 138.553" fill="#D89D35"/>
</g>
<path d="M67.171 145.507C70.1074 146.787 69.5468 151.241 65.9191 155.455C62.2901 159.67 56.9681 162.049 54.0316 160.769C51.0952 159.488 51.6547 155.034 55.2838 150.819C58.9128 146.604 64.2339 144.227 67.171 145.507Z" fill="#E84B23"/>
<mask id="mask20_3_83670" style="mask-type:luminance" maskUnits="userSpaceOnUse" x="52" y="145" width="18" height="17">
<path fill-rule="evenodd" clip-rule="evenodd" d="M67.171 145.507C70.1074 146.787 69.5468 151.241 65.9191 155.455C62.2901 159.67 56.9681 162.049 54.0316 160.769C51.0952 159.488 51.6547 155.034 55.2838 150.819C58.9128 146.604 64.2339 144.227 67.171 145.507Z" fill="white"/>
</mask>
<g mask="url(#mask20_3_83670)">
<path d="M65.2525 145.297C68.1888 146.577 67.6283 151.031 64.0005 155.245C60.3715 159.46 55.0495 161.839 52.1132 160.559C49.1768 159.279 49.7362 154.825 53.3653 150.609C56.993 146.396 62.3151 144.017 65.2525 145.297Z" fill="#FF9763"/>
</g>
<path d="M46.2884 156.784C46.3026 156.828 46.3157 156.872 46.3311 156.914C46.3497 156.966 46.371 157.016 46.3915 157.067C46.4081 157.108 46.4236 157.149 46.4415 157.19C46.464 157.24 46.4892 157.289 46.5137 157.339C46.5324 157.376 46.5499 157.415 46.5698 157.452C46.5974 157.504 46.6278 157.553 46.6576 157.603C46.6772 157.636 46.6955 157.67 46.7164 157.702C46.7515 157.757 46.7896 157.809 46.8273 157.862C46.8456 157.888 46.8623 157.914 46.8812 157.939C46.9391 158.016 47.0001 158.091 47.0641 158.163L50.274 161.777C50.21 161.705 50.149 161.63 50.0911 161.553C50.0721 161.528 50.0553 161.501 50.037 161.476C49.9993 161.423 49.9613 161.371 49.9265 161.316C49.9057 161.284 49.8872 161.25 49.8676 161.216C49.8382 161.167 49.8075 161.118 49.7802 161.066C49.7605 161.029 49.7431 160.991 49.7243 160.953C49.6998 160.904 49.6744 160.854 49.6517 160.803C49.6339 160.764 49.6186 160.722 49.6026 160.681C49.582 160.631 49.5606 160.58 49.5419 160.529C49.5265 160.486 49.5134 160.442 49.4993 160.398C49.4823 160.346 49.4648 160.295 49.4497 160.241C49.4368 160.196 49.4261 160.15 49.4145 160.104C49.4011 160.051 49.3871 159.998 49.3753 159.943C49.3655 159.896 49.3569 159.848 49.3481 159.8C49.3383 159.745 49.3272 159.69 49.3187 159.634C49.3113 159.585 49.3058 159.535 49.2996 159.486C49.2926 159.429 49.2854 159.373 49.28 159.315C49.2754 159.264 49.2725 159.213 49.2691 159.161C49.2653 159.103 49.2612 159.045 49.2593 158.986C49.2574 158.934 49.2572 158.88 49.2566 158.827C49.2559 158.768 49.2552 158.708 49.2566 158.648C49.2575 158.594 49.26 158.539 49.2622 158.484C49.2646 158.423 49.267 158.362 49.2711 158.301C49.2748 158.245 49.2799 158.189 49.2849 158.133C49.2904 158.071 49.296 158.008 49.3031 157.945C49.3095 157.888 49.3175 157.831 49.3251 157.773C49.3338 157.71 49.3425 157.646 49.3526 157.582C49.3619 157.523 49.3722 157.464 49.3831 157.405C49.3946 157.341 49.4065 157.277 49.4195 157.212C49.4317 157.152 49.4449 157.091 49.4588 157.031C49.4726 156.97 49.4861 156.91 49.5008 156.849C49.5276 156.738 49.557 156.627 49.5881 156.515C49.5988 156.477 49.6084 156.439 49.6196 156.4C49.6631 156.25 49.7104 156.099 49.7613 155.946C49.7725 155.913 49.7854 155.879 49.7969 155.845C49.8386 155.725 49.8821 155.604 49.9285 155.482C49.9482 155.43 49.9692 155.378 49.9899 155.325C50.0323 155.218 50.0766 155.11 50.1227 155.001C50.1466 154.945 50.1703 154.889 50.1951 154.833C50.2317 154.75 50.27 154.666 50.3087 154.583C50.3372 154.522 50.3654 154.46 50.3949 154.398C50.4366 154.312 50.4803 154.225 50.5241 154.138C50.5535 154.079 50.583 154.019 50.6141 153.959C50.6624 153.866 50.7135 153.772 50.7645 153.678C50.7939 153.625 50.8217 153.571 50.8517 153.517C50.917 153.4 50.9854 153.283 51.0546 153.165C51.0727 153.134 51.0895 153.104 51.108 153.073C51.1973 152.923 51.29 152.773 51.386 152.622C51.4122 152.581 51.4403 152.539 51.4671 152.498C51.5378 152.389 51.6088 152.28 51.683 152.17C51.7212 152.114 51.7615 152.057 51.8008 152C51.8661 151.906 51.9316 151.811 51.9995 151.716C52.0436 151.655 52.0896 151.593 52.1348 151.531C52.2004 151.441 52.2665 151.351 52.3344 151.262C52.3766 151.206 52.42 151.15 52.463 151.094C52.5598 150.969 52.6588 150.843 52.76 150.718C52.8012 150.667 52.8419 150.616 52.8837 150.565C53.0242 150.394 53.1675 150.222 53.3155 150.052C53.4777 149.865 53.6427 149.681 53.8103 149.501C53.8636 149.443 53.9182 149.387 53.9721 149.33C54.0875 149.207 54.2038 149.086 54.321 148.966C54.372 148.914 54.4235 148.863 54.4748 148.811C54.708 148.578 54.944 148.348 55.1843 148.126L55.228 148.087C55.462 147.872 55.699 147.662 55.9392 147.459C55.9804 147.424 56.0214 147.388 56.0628 147.353C56.3046 147.15 56.5487 146.952 56.7952 146.761C56.8442 146.723 56.8939 146.685 56.9434 146.647C57.1948 146.455 57.4476 146.267 57.7024 146.087C57.7249 146.071 57.7475 146.056 57.7701 146.04C58.0152 145.869 58.2617 145.703 58.5094 145.544C58.5502 145.518 58.5912 145.49 58.6321 145.464C58.8856 145.303 59.1399 145.148 59.3948 145.001C59.4465 144.971 59.4981 144.941 59.5497 144.912C59.8073 144.765 60.0651 144.623 60.3226 144.491C60.351 144.476 60.3795 144.462 60.4078 144.448C60.6541 144.322 60.8998 144.204 61.145 144.092C61.1862 144.073 61.2276 144.053 61.2688 144.034C61.4634 143.947 61.6577 143.863 61.8511 143.784L61.8887 143.77C62.0697 143.697 62.2498 143.628 62.429 143.563C62.4911 143.54 62.5528 143.519 62.6147 143.498C62.7452 143.452 62.8754 143.408 63.0049 143.367C63.0742 143.345 63.1432 143.323 63.2121 143.302C63.3372 143.264 63.4618 143.229 63.5857 143.195C63.656 143.175 63.7265 143.156 63.7964 143.138C63.8716 143.119 63.9463 143.101 64.0211 143.084C64.1074 143.063 64.1937 143.043 64.2794 143.025C64.3538 143.009 64.4277 142.994 64.5016 142.98C64.5861 142.964 64.6703 142.948 64.754 142.934C64.8276 142.921 64.9007 142.91 64.9736 142.899C65.0562 142.887 65.1385 142.875 65.2202 142.865C65.2922 142.856 65.364 142.848 65.4355 142.841C65.5185 142.833 65.601 142.825 65.683 142.819C65.7469 142.815 65.8105 142.81 65.8738 142.807C65.9573 142.802 66.0399 142.8 66.1222 142.798C66.1841 142.796 66.246 142.795 66.3071 142.795C66.3898 142.795 66.4714 142.797 66.5524 142.799C66.6113 142.801 66.6702 142.802 66.7277 142.806C66.812 142.81 66.8945 142.818 66.9772 142.825C67.0301 142.83 67.0837 142.834 67.1359 142.84C67.2144 142.849 67.2913 142.861 67.3683 142.873C67.4255 142.882 67.4836 142.889 67.5399 142.899C67.6192 142.914 67.6962 142.932 67.7738 142.95C67.8253 142.962 67.8779 142.971 67.9285 142.984C68.0133 143.006 68.0953 143.032 68.1779 143.058C68.2188 143.07 68.2611 143.081 68.3015 143.095C68.4231 143.136 68.542 143.181 68.658 143.231C68.7506 143.271 68.8362 143.317 68.923 143.362C68.9783 143.39 69.0358 143.417 69.0891 143.447C69.1648 143.49 69.2353 143.537 69.3067 143.584C69.3535 143.615 69.4027 143.643 69.4477 143.676C69.5234 143.73 69.5934 143.79 69.6636 143.849C69.6985 143.878 69.7363 143.905 69.7699 143.935C69.8707 144.025 69.9664 144.122 70.0565 144.223L66.8465 140.609C66.7564 140.507 66.6607 140.411 66.5599 140.321C66.5264 140.291 66.4889 140.264 66.454 140.235C66.3836 140.176 66.3134 140.116 66.2374 140.062C66.1925 140.029 66.1431 140.001 66.0963 139.97C66.025 139.923 65.9544 139.876 65.8788 139.833C65.8257 139.803 65.7684 139.776 65.7131 139.748C65.6504 139.716 65.5907 139.681 65.5252 139.651C65.4994 139.64 65.4735 139.628 65.4473 139.617C65.3314 139.567 65.2126 139.522 65.0908 139.481C65.0502 139.467 65.0078 139.456 64.9666 139.443C64.8843 139.418 64.8025 139.392 64.7179 139.37C64.6672 139.357 64.6146 139.347 64.563 139.336C64.4855 139.318 64.4084 139.3 64.3291 139.285C64.273 139.276 64.2152 139.268 64.1582 139.259C64.0925 139.249 64.028 139.237 63.9613 139.229L63.9251 139.226C63.873 139.22 63.8196 139.216 63.7668 139.211C63.684 139.204 63.6012 139.196 63.5168 139.192C63.4593 139.189 63.4007 139.187 63.3425 139.185C63.2608 139.183 63.1789 139.181 63.0958 139.181C63.0348 139.181 62.973 139.182 62.9112 139.184C62.8291 139.186 62.7466 139.189 62.6632 139.193C62.5996 139.196 62.5356 139.201 62.4714 139.205C62.4301 139.209 62.3897 139.21 62.3481 139.213C62.3065 139.217 62.2655 139.223 62.2245 139.227C62.1532 139.235 62.0816 139.243 62.0096 139.251C61.9276 139.261 61.845 139.273 61.7621 139.285C61.6894 139.296 61.6165 139.307 61.5431 139.32C61.4594 139.334 61.3751 139.35 61.2906 139.366C61.2167 139.381 61.1427 139.395 61.0682 139.411C60.9827 139.429 60.8966 139.449 60.8104 139.47C60.7355 139.487 60.6607 139.505 60.5854 139.524C60.5572 139.531 60.5295 139.537 60.5013 139.545C60.4594 139.556 60.4165 139.57 60.3744 139.581C60.2505 139.615 60.1262 139.651 60.0015 139.689C59.9328 139.709 59.8641 139.731 59.7948 139.753C59.6653 139.794 59.5352 139.838 59.4046 139.884C59.3423 139.906 59.2804 139.926 59.2181 139.949C59.0399 140.014 58.8609 140.083 58.6812 140.155L58.6404 140.171C58.4469 140.25 58.2527 140.334 58.0579 140.421L58.0126 140.441C57.9869 140.452 57.961 140.466 57.9353 140.478C57.6899 140.59 57.444 140.709 57.1974 140.835C57.169 140.849 57.1406 140.863 57.1122 140.877C56.8546 141.01 56.5969 141.152 56.3391 141.299C56.2876 141.328 56.236 141.357 56.1845 141.387C55.9294 141.535 55.6751 141.69 55.4216 141.851C55.3806 141.877 55.34 141.904 55.2991 141.93C55.0512 142.09 54.8043 142.256 54.5585 142.428C54.5365 142.443 54.5144 142.458 54.4925 142.473C54.2373 142.653 53.9845 142.841 53.733 143.034C53.684 143.072 53.6341 143.109 53.5847 143.148C53.3384 143.339 53.0944 143.537 52.8526 143.739C52.811 143.775 52.7699 143.81 52.7285 143.846C52.4892 144.05 52.2524 144.259 52.0181 144.474L51.9738 144.514C51.7335 144.736 51.4978 144.965 51.2647 145.199C51.2389 145.224 51.2117 145.249 51.1862 145.275C51.1607 145.301 51.136 145.328 51.1106 145.353C50.9934 145.473 50.8775 145.594 50.7627 145.716C50.7085 145.774 50.6536 145.83 50.5999 145.889C50.4327 146.069 50.2679 146.253 50.1054 146.439C49.957 146.61 49.8138 146.781 49.6736 146.952C49.6315 147.003 49.5906 147.055 49.5492 147.106C49.4482 147.231 49.3494 147.356 49.2526 147.482C49.2283 147.513 49.202 147.545 49.1778 147.577C49.1593 147.601 49.1422 147.625 49.124 147.649C49.0563 147.739 48.9904 147.828 48.925 147.917C48.8793 147.98 48.8333 148.042 48.7888 148.104C48.7213 148.198 48.6563 148.292 48.5914 148.386C48.5522 148.443 48.5113 148.5 48.4729 148.558C48.3996 148.666 48.3292 148.774 48.2593 148.882C48.2319 148.925 48.203 148.967 48.1759 149.01C48.0804 149.16 47.9879 149.31 47.8986 149.459L47.8942 149.467C47.8756 149.498 47.8587 149.529 47.8403 149.56C47.7728 149.675 47.706 149.79 47.6422 149.904C47.6117 149.958 47.5833 150.013 47.5539 150.067C47.5034 150.16 47.4528 150.253 47.4048 150.345C47.3736 150.406 47.3442 150.466 47.314 150.526C47.2705 150.612 47.2271 150.698 47.1858 150.784C47.1564 150.847 47.1276 150.908 47.099 150.97C47.0604 151.054 47.0222 151.137 46.9857 151.22C46.9749 151.244 46.9628 151.269 46.9522 151.293C46.9384 151.325 46.9268 151.356 46.913 151.388C46.8672 151.496 46.8229 151.604 46.7802 151.712C46.7595 151.764 46.7386 151.817 46.7188 151.869C46.6722 151.991 46.6281 152.113 46.5865 152.234C46.5752 152.267 46.5628 152.3 46.5518 152.333C46.5006 152.486 46.4532 152.637 46.4098 152.787C46.3986 152.826 46.3892 152.864 46.3785 152.902C46.3474 153.014 46.3179 153.126 46.291 153.236C46.2858 153.258 46.2792 153.28 46.2742 153.301C46.2648 153.341 46.2577 153.38 46.249 153.419C46.2356 153.479 46.2224 153.539 46.2103 153.599C46.1971 153.664 46.1853 153.729 46.1737 153.793C46.1631 153.852 46.1526 153.912 46.1433 153.97C46.1335 154.034 46.1245 154.097 46.116 154.16C46.1081 154.218 46.1003 154.276 46.0937 154.333C46.0866 154.396 46.0811 154.458 46.0757 154.52C46.0706 154.576 46.0658 154.633 46.0617 154.689C46.0577 154.75 46.0553 154.811 46.0529 154.871C46.0506 154.927 46.0482 154.982 46.0473 155.036C46.0463 155.096 46.0473 155.155 46.0478 155.215C46.0484 155.268 46.0486 155.322 46.0505 155.374C46.0527 155.433 46.0567 155.49 46.0603 155.548C46.0637 155.6 46.0665 155.652 46.0713 155.703C46.0765 155.761 46.0838 155.816 46.091 155.873C46.0971 155.923 46.1026 155.973 46.1106 156.022C46.119 156.078 46.1297 156.133 46.14 156.188C46.1489 156.236 46.157 156.284 46.1672 156.331C46.179 156.385 46.193 156.439 46.2065 156.492C46.218 156.538 46.2286 156.584 46.2415 156.629C46.2543 156.681 46.2718 156.732 46.2884 156.784Z" fill="#FF9763"/>
<mask id="mask21_3_83670" style="mask-type:luminance" maskUnits="userSpaceOnUse" x="46" y="139" width="25" height="23">
<path fill-rule="evenodd" clip-rule="evenodd" d="M46.2884 156.784C46.3026 156.828 46.3157 156.872 46.3311 156.914C46.3497 156.966 46.371 157.016 46.3915 157.067C46.4081 157.108 46.4236 157.149 46.4415 157.19C46.464 157.24 46.4892 157.289 46.5137 157.339C46.5324 157.376 46.5499 157.415 46.5698 157.452C46.5974 157.504 46.6278 157.553 46.6576 157.603C46.6772 157.636 46.6955 157.67 46.7164 157.702C46.7515 157.757 46.7896 157.809 46.8273 157.862C46.8456 157.888 46.8623 157.914 46.8812 157.939C46.9391 158.016 47.0001 158.091 47.0641 158.163L50.274 161.777C50.21 161.705 50.149 161.63 50.0911 161.553C50.0721 161.528 50.0553 161.501 50.037 161.476C49.9993 161.423 49.9613 161.371 49.9265 161.316C49.9057 161.284 49.8872 161.25 49.8676 161.216C49.8382 161.167 49.8075 161.118 49.7802 161.066C49.7605 161.029 49.7431 160.991 49.7243 160.953C49.6998 160.904 49.6744 160.854 49.6517 160.803C49.6339 160.764 49.6186 160.722 49.6026 160.681C49.582 160.631 49.5606 160.58 49.5419 160.529C49.5265 160.486 49.5134 160.442 49.4993 160.398C49.4823 160.346 49.4648 160.295 49.4497 160.241C49.4368 160.196 49.4261 160.15 49.4145 160.104C49.4011 160.051 49.3871 159.998 49.3753 159.943C49.3655 159.896 49.3569 159.848 49.3481 159.8C49.3383 159.745 49.3272 159.69 49.3187 159.634C49.3113 159.585 49.3058 159.535 49.2996 159.486C49.2926 159.429 49.2854 159.373 49.28 159.315C49.2754 159.264 49.2725 159.213 49.2691 159.161C49.2653 159.103 49.2612 159.045 49.2593 158.986C49.2574 158.934 49.2572 158.88 49.2566 158.827C49.2559 158.768 49.2552 158.708 49.2566 158.648C49.2575 158.594 49.26 158.539 49.2622 158.484C49.2646 158.423 49.267 158.362 49.2711 158.301C49.2748 158.245 49.2799 158.189 49.2849 158.133C49.2904 158.071 49.296 158.008 49.3031 157.945C49.3095 157.888 49.3175 157.831 49.3251 157.773C49.3338 157.71 49.3425 157.646 49.3526 157.582C49.3619 157.523 49.3722 157.464 49.3831 157.405C49.3946 157.341 49.4065 157.277 49.4195 157.212C49.4317 157.152 49.4449 157.091 49.4588 157.031C49.4726 156.97 49.4861 156.91 49.5008 156.849C49.5276 156.738 49.557 156.627 49.5881 156.515C49.5988 156.477 49.6084 156.439 49.6196 156.4C49.6631 156.25 49.7104 156.099 49.7613 155.946C49.7725 155.913 49.7854 155.879 49.7969 155.845C49.8386 155.725 49.8821 155.604 49.9285 155.482C49.9482 155.43 49.9692 155.378 49.9899 155.325C50.0323 155.218 50.0766 155.11 50.1227 155.001C50.1466 154.945 50.1703 154.889 50.1951 154.833C50.2317 154.75 50.27 154.666 50.3087 154.583C50.3372 154.522 50.3654 154.46 50.3949 154.398C50.4366 154.312 50.4803 154.225 50.5241 154.138C50.5535 154.079 50.583 154.019 50.6141 153.959C50.6624 153.866 50.7135 153.772 50.7645 153.678C50.7939 153.625 50.8217 153.571 50.8517 153.517C50.917 153.4 50.9854 153.283 51.0546 153.165C51.0727 153.134 51.0895 153.104 51.108 153.073C51.1973 152.923 51.29 152.773 51.386 152.622C51.4122 152.581 51.4403 152.539 51.4671 152.498C51.5378 152.389 51.6088 152.28 51.683 152.17C51.7212 152.114 51.7615 152.057 51.8008 152C51.8661 151.906 51.9316 151.811 51.9995 151.716C52.0436 151.655 52.0896 151.593 52.1348 151.531C52.2004 151.441 52.2665 151.351 52.3344 151.262C52.3766 151.206 52.42 151.15 52.463 151.094C52.5598 150.969 52.6588 150.843 52.76 150.718C52.8012 150.667 52.8419 150.616 52.8837 150.565C53.0242 150.394 53.1675 150.222 53.3155 150.052C53.4777 149.865 53.6427 149.681 53.8103 149.501C53.8636 149.443 53.9182 149.387 53.9721 149.33C54.0875 149.207 54.2038 149.086 54.321 148.966C54.372 148.914 54.4235 148.863 54.4748 148.811C54.708 148.578 54.944 148.348 55.1843 148.126L55.228 148.087C55.462 147.872 55.699 147.662 55.9392 147.459C55.9804 147.424 56.0214 147.388 56.0628 147.353C56.3046 147.15 56.5487 146.952 56.7952 146.761C56.8442 146.723 56.8939 146.685 56.9434 146.647C57.1948 146.455 57.4476 146.267 57.7024 146.087C57.7249 146.071 57.7475 146.056 57.7701 146.04C58.0152 145.869 58.2617 145.703 58.5094 145.544C58.5502 145.518 58.5912 145.49 58.6321 145.464C58.8856 145.303 59.1399 145.148 59.3948 145.001C59.4465 144.971 59.4981 144.941 59.5497 144.912C59.8073 144.765 60.0651 144.623 60.3226 144.491C60.351 144.476 60.3795 144.462 60.4078 144.448C60.6541 144.322 60.8998 144.204 61.145 144.092C61.1862 144.073 61.2276 144.053 61.2688 144.034C61.4634 143.947 61.6577 143.863 61.8511 143.784L61.8887 143.77C62.0697 143.697 62.2498 143.628 62.429 143.563C62.4911 143.54 62.5528 143.519 62.6147 143.498C62.7452 143.452 62.8754 143.408 63.0049 143.367C63.0742 143.345 63.1432 143.323 63.2121 143.302C63.3372 143.264 63.4618 143.229 63.5857 143.195C63.656 143.175 63.7265 143.156 63.7964 143.138C63.8716 143.119 63.9463 143.101 64.0211 143.084C64.1074 143.063 64.1937 143.043 64.2794 143.025C64.3538 143.009 64.4277 142.994 64.5016 142.98C64.5861 142.964 64.6703 142.948 64.754 142.934C64.8276 142.921 64.9007 142.91 64.9736 142.899C65.0562 142.887 65.1385 142.875 65.2202 142.865C65.2922 142.856 65.364 142.848 65.4355 142.841C65.5185 142.833 65.601 142.825 65.683 142.819C65.7469 142.815 65.8105 142.81 65.8738 142.807C65.9573 142.802 66.0399 142.8 66.1222 142.798C66.1841 142.796 66.246 142.795 66.3071 142.795C66.3898 142.795 66.4714 142.797 66.5524 142.799C66.6113 142.801 66.6702 142.802 66.7277 142.806C66.812 142.81 66.8945 142.818 66.9772 142.825C67.0301 142.83 67.0837 142.834 67.1359 142.84C67.2144 142.849 67.2913 142.861 67.3683 142.873C67.4255 142.882 67.4836 142.889 67.5399 142.899C67.6192 142.914 67.6962 142.932 67.7738 142.95C67.8253 142.962 67.8779 142.971 67.9285 142.984C68.0133 143.006 68.0953 143.032 68.1779 143.058C68.2188 143.07 68.2611 143.081 68.3015 143.095C68.4231 143.136 68.542 143.181 68.658 143.231C68.7506 143.271 68.8362 143.317 68.923 143.362C68.9783 143.39 69.0358 143.417 69.0891 143.447C69.1648 143.49 69.2353 143.537 69.3067 143.584C69.3535 143.615 69.4027 143.643 69.4477 143.676C69.5234 143.73 69.5934 143.79 69.6636 143.849C69.6985 143.878 69.7363 143.905 69.7699 143.935C69.8707 144.025 69.9664 144.122 70.0565 144.223L66.8465 140.609C66.7564 140.507 66.6607 140.411 66.5599 140.321C66.5264 140.291 66.4889 140.264 66.454 140.235C66.3836 140.176 66.3134 140.116 66.2374 140.062C66.1925 140.029 66.1431 140.001 66.0963 139.97C66.025 139.923 65.9544 139.876 65.8788 139.833C65.8257 139.803 65.7684 139.776 65.7131 139.748C65.6504 139.716 65.5907 139.681 65.5252 139.651C65.4994 139.64 65.4735 139.628 65.4473 139.617C65.3314 139.567 65.2126 139.522 65.0908 139.481C65.0502 139.467 65.0078 139.456 64.9666 139.443C64.8843 139.418 64.8025 139.392 64.7179 139.37C64.6672 139.357 64.6146 139.347 64.563 139.336C64.4855 139.318 64.4084 139.3 64.3291 139.285C64.273 139.276 64.2152 139.268 64.1582 139.259C64.0925 139.249 64.028 139.237 63.9613 139.229L63.9251 139.226C63.873 139.22 63.8196 139.216 63.7668 139.211C63.684 139.204 63.6012 139.196 63.5168 139.192C63.4593 139.189 63.4007 139.187 63.3425 139.185C63.2608 139.183 63.1789 139.181 63.0958 139.181C63.0348 139.181 62.973 139.182 62.9112 139.184C62.8291 139.186 62.7466 139.189 62.6632 139.193C62.5996 139.196 62.5356 139.201 62.4714 139.205C62.4301 139.209 62.3897 139.21 62.3481 139.213C62.3065 139.217 62.2655 139.223 62.2245 139.227C62.1532 139.235 62.0816 139.243 62.0096 139.251C61.9276 139.261 61.845 139.273 61.7621 139.285C61.6894 139.296 61.6165 139.307 61.5431 139.32C61.4594 139.334 61.3751 139.35 61.2906 139.366C61.2167 139.381 61.1427 139.395 61.0682 139.411C60.9827 139.429 60.8966 139.449 60.8104 139.47C60.7355 139.487 60.6607 139.505 60.5854 139.524C60.5572 139.531 60.5295 139.537 60.5013 139.545C60.4594 139.556 60.4165 139.57 60.3744 139.581C60.2505 139.615 60.1262 139.651 60.0015 139.689C59.9328 139.709 59.8641 139.731 59.7948 139.753C59.6653 139.794 59.5352 139.838 59.4046 139.884C59.3423 139.906 59.2804 139.926 59.2181 139.949C59.0399 140.014 58.8609 140.083 58.6812 140.155L58.6404 140.171C58.4469 140.25 58.2527 140.334 58.0579 140.421L58.0126 140.441C57.9869 140.452 57.961 140.466 57.9353 140.478C57.6899 140.59 57.444 140.709 57.1974 140.835C57.169 140.849 57.1406 140.863 57.1122 140.877C56.8546 141.01 56.5969 141.152 56.3391 141.299C56.2876 141.328 56.236 141.357 56.1845 141.387C55.9294 141.535 55.6751 141.69 55.4216 141.851C55.3806 141.877 55.34 141.904 55.2991 141.93C55.0512 142.09 54.8043 142.256 54.5585 142.428C54.5365 142.443 54.5144 142.458 54.4925 142.473C54.2373 142.653 53.9845 142.841 53.733 143.034C53.684 143.072 53.6341 143.109 53.5847 143.148C53.3384 143.339 53.0944 143.537 52.8526 143.739C52.811 143.775 52.7699 143.81 52.7285 143.846C52.4892 144.05 52.2524 144.259 52.0181 144.474L51.9738 144.514C51.7335 144.736 51.4978 144.965 51.2647 145.199C51.2389 145.224 51.2117 145.249 51.1862 145.275C51.1607 145.301 51.136 145.328 51.1106 145.353C50.9934 145.473 50.8775 145.594 50.7627 145.716C50.7085 145.774 50.6536 145.83 50.5999 145.889C50.4327 146.069 50.2679 146.253 50.1054 146.439C49.957 146.61 49.8138 146.781 49.6736 146.952C49.6315 147.003 49.5906 147.055 49.5492 147.106C49.4482 147.231 49.3494 147.356 49.2526 147.482C49.2283 147.513 49.202 147.545 49.1778 147.577C49.1593 147.601 49.1422 147.625 49.124 147.649C49.0563 147.739 48.9904 147.828 48.925 147.917C48.8793 147.98 48.8333 148.042 48.7888 148.104C48.7213 148.198 48.6563 148.292 48.5914 148.386C48.5522 148.443 48.5113 148.5 48.4729 148.558C48.3996 148.666 48.3292 148.774 48.2593 148.882C48.2319 148.925 48.203 148.967 48.1759 149.01C48.0804 149.16 47.9879 149.31 47.8986 149.459L47.8942 149.467C47.8756 149.498 47.8587 149.529 47.8403 149.56C47.7728 149.675 47.706 149.79 47.6422 149.904C47.6117 149.958 47.5833 150.013 47.5539 150.067C47.5034 150.16 47.4528 150.253 47.4048 150.345C47.3736 150.406 47.3442 150.466 47.314 150.526C47.2705 150.612 47.2271 150.698 47.1858 150.784C47.1564 150.847 47.1276 150.908 47.099 150.97C47.0604 151.054 47.0222 151.137 46.9857 151.22C46.9749 151.244 46.9628 151.269 46.9522 151.293C46.9384 151.325 46.9268 151.356 46.913 151.388C46.8672 151.496 46.8229 151.604 46.7802 151.712C46.7595 151.764 46.7386 151.817 46.7188 151.869C46.6722 151.991 46.6281 152.113 46.5865 152.234C46.5752 152.267 46.5628 152.3 46.5518 152.333C46.5006 152.486 46.4532 152.637 46.4098 152.787C46.3986 152.826 46.3892 152.864 46.3785 152.902C46.3474 153.014 46.3179 153.126 46.291 153.236C46.2858 153.258 46.2792 153.28 46.2742 153.301C46.2648 153.341 46.2577 153.38 46.249 153.419C46.2356 153.479 46.2224 153.539 46.2103 153.599C46.1971 153.664 46.1853 153.729 46.1737 153.793C46.1631 153.852 46.1526 153.912 46.1433 153.97C46.1335 154.034 46.1245 154.097 46.116 154.16C46.1081 154.218 46.1003 154.276 46.0937 154.333C46.0866 154.396 46.0811 154.458 46.0757 154.52C46.0706 154.576 46.0658 154.633 46.0617 154.689C46.0577 154.75 46.0553 154.811 46.0529 154.871C46.0506 154.927 46.0482 154.982 46.0473 155.036C46.0463 155.096 46.0473 155.155 46.0478 155.215C46.0484 155.268 46.0486 155.322 46.0505 155.374C46.0527 155.433 46.0567 155.49 46.0603 155.548C46.0637 155.6 46.0665 155.652 46.0713 155.703C46.0765 155.761 46.0838 155.816 46.091 155.873C46.0971 155.923 46.1026 155.973 46.1106 156.022C46.119 156.078 46.1297 156.133 46.14 156.188C46.1489 156.236 46.157 156.284 46.1672 156.331C46.179 156.385 46.193 156.439 46.2065 156.492C46.218 156.538 46.2286 156.584 46.2415 156.629C46.2543 156.681 46.2718 156.732 46.2884 156.784Z" fill="white"/>
</mask>
<g mask="url(#mask21_3_83670)">
<path d="M59.7937 139.752C40.7613 146.664 50.483 165.083 50.483 165.083L43.8262 159.767L44.0503 144.655L53.983 140.939" fill="#E84B23"/>
</g>
<path d="M58.7308 150.143C58.1445 150.266 57.658 150.672 57.4337 151.228C57.4075 151.324 57.4638 151.423 57.5597 151.45C57.6553 151.473 57.7526 151.418 57.7814 151.324C57.7682 151.356 57.7897 151.305 57.7905 151.304L57.8089 151.265C57.8229 151.237 57.8376 151.21 57.8533 151.182C57.8848 151.128 57.9193 151.076 57.9567 151.025C57.9371 151.052 57.9699 151.009 57.9707 151.008L57.9983 150.975C58.0189 150.951 58.0401 150.928 58.0619 150.906C58.1056 150.86 58.152 150.818 58.2007 150.778C58.2037 150.775 58.2382 150.749 58.2227 150.76C58.2072 150.772 58.2424 150.746 58.2458 150.744C58.2736 150.724 58.3021 150.704 58.3311 150.686C58.3843 150.653 58.4395 150.622 58.4962 150.595L58.5355 150.577C58.5532 150.57 58.5173 150.584 58.5476 150.572C58.578 150.561 58.6065 150.55 58.636 150.54C58.6985 150.52 58.7622 150.504 58.8267 150.491C58.9221 150.464 58.9781 150.365 58.9526 150.27C58.9245 150.175 58.8266 150.119 58.7309 150.144L58.7308 150.143Z" fill="#E84B23"/>
<path d="M56.866 143.109L56.5351 143.181C56.4651 143.2 56.4135 143.259 56.4041 143.331C56.3947 143.403 56.4294 143.474 56.492 143.51C56.5345 143.533 56.584 143.54 56.631 143.528L56.9618 143.457C57.0318 143.438 57.0834 143.378 57.0928 143.306C57.1022 143.235 57.0676 143.164 57.0049 143.127C56.9624 143.104 56.9129 143.098 56.866 143.109Z" fill="#E84B23"/>
<ellipse cx="235.163" cy="139.4" rx="11.257" ry="21.3949" transform="rotate(-54.9858 235.163 139.4)" fill="#FFC562"/>
<mask id="mask22_3_83670" style="mask-type:luminance" maskUnits="userSpaceOnUse" x="216" y="124" width="38" height="31">
<ellipse cx="235.163" cy="139.4" rx="11.257" ry="21.3949" transform="rotate(-54.9858 235.163 139.4)" fill="white"/>
</mask>
<g mask="url(#mask22_3_83670)">
<path d="M218.205 142.522C212.265 123.974 227.601 123.36 238.564 126.143C249.528 128.925 221.722 117.214 221.722 117.214L210.093 123.334" fill="#D89D35"/>
</g>
<path d="M220.744 131.175C221.66 126.073 228.882 125.288 236.874 129.422C244.869 133.558 250.606 141.046 249.69 146.148C248.774 151.252 241.552 152.037 233.557 147.901C225.565 143.767 219.828 136.279 220.744 131.175Z" fill="#FF9763"/>
<path d="M246.316 159.83C246.379 159.792 246.443 159.754 246.504 159.714C246.579 159.665 246.65 159.613 246.722 159.562C246.78 159.521 246.839 159.481 246.896 159.438C246.968 159.383 247.035 159.325 247.104 159.268C247.156 159.224 247.211 159.182 247.262 159.137C247.333 159.074 247.399 159.008 247.466 158.943C247.511 158.899 247.557 158.858 247.601 158.813C247.674 158.738 247.742 158.658 247.811 158.579C247.844 158.54 247.88 158.504 247.912 158.465C248.011 158.345 248.106 158.221 248.196 158.093L252.684 151.687C252.594 151.815 252.5 151.939 252.401 152.058C252.368 152.098 252.332 152.134 252.299 152.173C252.23 152.251 252.162 152.331 252.089 152.406C252.046 152.451 251.999 152.493 251.954 152.537C251.887 152.602 251.82 152.668 251.75 152.731C251.7 152.775 251.645 152.817 251.593 152.861C251.525 152.918 251.456 152.976 251.384 153.031C251.328 153.074 251.269 153.114 251.211 153.155C251.139 153.206 251.068 153.259 250.993 153.308C250.931 153.348 250.867 153.385 250.804 153.423C250.728 153.47 250.654 153.517 250.576 153.56C250.51 153.597 250.441 153.632 250.373 153.667C250.295 153.708 250.216 153.75 250.135 153.789C250.064 153.823 249.991 153.853 249.919 153.885C249.836 153.922 249.754 153.959 249.669 153.993C249.595 154.023 249.518 154.051 249.443 154.079C249.356 154.111 249.27 154.144 249.181 154.174C249.103 154.2 249.023 154.224 248.943 154.248C248.853 154.276 248.763 154.304 248.671 154.33C248.589 154.352 248.505 154.373 248.421 154.394C248.328 154.417 248.235 154.44 248.14 154.461C248.055 154.48 247.967 154.497 247.88 154.514C247.783 154.533 247.686 154.552 247.588 154.569C247.499 154.584 247.409 154.597 247.318 154.61C247.218 154.624 247.118 154.639 247.016 154.651C246.924 154.662 246.83 154.672 246.737 154.681C246.634 154.691 246.531 154.701 246.426 154.709C246.33 154.716 246.233 154.722 246.136 154.727C246.03 154.733 245.924 154.739 245.817 154.742C245.718 154.746 245.618 154.747 245.518 154.749C245.417 154.75 245.317 154.751 245.216 154.751C245.032 154.75 244.845 154.745 244.657 154.738C244.593 154.736 244.529 154.735 244.464 154.732C244.212 154.72 243.956 154.702 243.697 154.679C243.64 154.674 243.582 154.666 243.524 154.66C243.319 154.64 243.112 154.617 242.903 154.589C242.813 154.578 242.723 154.564 242.633 154.551C242.448 154.525 242.261 154.495 242.074 154.463C241.977 154.447 241.88 154.43 241.782 154.412C241.637 154.386 241.491 154.357 241.346 154.327C241.238 154.305 241.131 154.284 241.022 154.26C240.87 154.227 240.717 154.191 240.564 154.155C240.459 154.13 240.355 154.106 240.25 154.08C240.084 154.038 239.918 153.993 239.751 153.948C239.656 153.922 239.561 153.898 239.465 153.871C239.256 153.812 239.045 153.748 238.834 153.684C238.779 153.667 238.725 153.651 238.669 153.634C238.4 153.55 238.129 153.46 237.856 153.366C237.781 153.34 237.705 153.311 237.63 153.284C237.431 153.214 237.233 153.143 237.033 153.067C236.93 153.028 236.825 152.987 236.722 152.946C236.548 152.879 236.375 152.811 236.2 152.74C236.086 152.694 235.972 152.645 235.857 152.597C235.692 152.527 235.526 152.456 235.359 152.383C235.256 152.338 235.151 152.29 235.047 152.243C234.814 152.138 234.579 152.029 234.344 151.916C234.248 151.871 234.152 151.826 234.056 151.779C233.734 151.622 233.411 151.461 233.086 151.291C232.732 151.105 232.381 150.914 232.034 150.718C231.923 150.655 231.814 150.59 231.704 150.527C231.468 150.391 231.233 150.254 231 150.114C230.899 150.053 230.8 149.991 230.7 149.93C230.245 149.65 229.795 149.364 229.355 149.069C229.329 149.052 229.303 149.033 229.277 149.015C228.85 148.727 228.432 148.433 228.021 148.131C227.951 148.079 227.879 148.028 227.808 147.976C227.398 147.671 226.996 147.361 226.602 147.044C226.524 146.981 226.445 146.917 226.367 146.854C225.97 146.53 225.58 146.202 225.201 145.868C225.168 145.839 225.136 145.809 225.103 145.779C224.74 145.458 224.388 145.132 224.044 144.801C223.987 144.747 223.929 144.693 223.873 144.638C223.524 144.299 223.186 143.956 222.858 143.61C222.791 143.54 222.725 143.47 222.66 143.4C222.332 143.049 222.012 142.697 221.707 142.341C221.673 142.302 221.641 142.262 221.608 142.223C221.318 141.882 221.039 141.54 220.771 141.196C220.726 141.138 220.679 141.08 220.635 141.022C220.424 140.748 220.219 140.474 220.023 140.199C220.011 140.181 219.999 140.163 219.986 140.145C219.803 139.888 219.627 139.63 219.458 139.372C219.399 139.283 219.343 139.193 219.286 139.104C219.165 138.916 219.047 138.727 218.934 138.539C218.873 138.438 218.813 138.337 218.755 138.237C218.648 138.054 218.545 137.871 218.446 137.689C218.389 137.585 218.332 137.482 218.277 137.378C218.219 137.267 218.163 137.156 218.108 137.045C218.043 136.916 217.979 136.788 217.918 136.66C217.866 136.549 217.815 136.438 217.765 136.326C217.707 136.2 217.651 136.073 217.597 135.947C217.55 135.835 217.505 135.724 217.461 135.614C217.411 135.488 217.362 135.363 217.315 135.238C217.274 135.128 217.235 135.018 217.196 134.908C217.152 134.781 217.11 134.654 217.069 134.527C217.037 134.428 217.007 134.33 216.978 134.231C216.94 134.101 216.904 133.972 216.87 133.843C216.845 133.746 216.819 133.65 216.796 133.553C216.765 133.423 216.738 133.294 216.711 133.165C216.692 133.072 216.672 132.978 216.656 132.887C216.631 132.752 216.612 132.619 216.593 132.486C216.581 132.401 216.567 132.316 216.557 132.231C216.541 132.104 216.533 131.979 216.522 131.853C216.515 131.759 216.504 131.665 216.499 131.573C216.493 131.442 216.493 131.314 216.491 131.186C216.49 131.1 216.486 131.014 216.488 130.929C216.49 130.788 216.5 130.648 216.51 130.509C216.514 130.44 216.515 130.37 216.522 130.301C216.541 130.094 216.568 129.89 216.603 129.688C216.631 129.528 216.672 129.376 216.709 129.222C216.733 129.124 216.753 129.023 216.781 128.928C216.82 128.793 216.869 128.664 216.916 128.534C216.947 128.449 216.973 128.361 217.007 128.278C217.065 128.138 217.132 128.006 217.199 127.873C217.231 127.807 217.259 127.737 217.295 127.673C217.4 127.48 217.515 127.294 217.641 127.114L213.152 133.52C213.027 133.7 212.911 133.887 212.806 134.08C212.771 134.143 212.743 134.213 212.711 134.278C212.644 134.411 212.577 134.544 212.519 134.684C212.485 134.767 212.459 134.855 212.428 134.941C212.381 135.071 212.332 135.199 212.293 135.335C212.265 135.429 212.245 135.53 212.221 135.627C212.194 135.738 212.162 135.845 212.139 135.959C212.131 136.004 212.123 136.049 212.115 136.095C212.079 136.296 212.052 136.5 212.033 136.707C212.027 136.776 212.026 136.847 212.021 136.916C212.012 137.055 212.002 137.194 211.999 137.335C211.998 137.42 212.002 137.507 212.003 137.592C212.004 137.721 212.004 137.849 212.011 137.979C212.016 138.071 212.026 138.166 212.034 138.258C212.043 138.365 212.048 138.471 212.06 138.579C212.062 138.599 212.066 138.619 212.068 138.638C212.078 138.722 212.093 138.807 212.105 138.893C212.124 139.026 212.143 139.159 212.167 139.294C212.184 139.385 212.204 139.478 212.223 139.57C212.249 139.7 212.277 139.83 212.308 139.961C212.331 140.057 212.356 140.153 212.382 140.25C212.416 140.379 212.451 140.508 212.489 140.637C212.518 140.736 212.549 140.835 212.58 140.934C212.601 140.998 212.618 141.062 212.639 141.126C212.661 141.19 212.685 141.252 212.707 141.315C212.746 141.425 212.785 141.534 212.826 141.644C212.872 141.77 212.921 141.895 212.972 142.021C213.016 142.132 213.061 142.242 213.108 142.353C213.162 142.48 213.218 142.606 213.276 142.733C213.326 142.844 213.376 142.955 213.429 143.067C213.49 143.194 213.554 143.323 213.618 143.451C213.674 143.562 213.73 143.673 213.788 143.784C213.81 143.826 213.83 143.868 213.852 143.909C213.885 143.971 213.923 144.033 213.957 144.096C214.056 144.278 214.159 144.46 214.266 144.643C214.325 144.744 214.384 144.844 214.444 144.944C214.558 145.133 214.676 145.321 214.797 145.51C214.854 145.6 214.91 145.689 214.969 145.779C215.138 146.035 215.313 146.292 215.494 146.547C215.508 146.567 215.521 146.587 215.534 146.606C215.731 146.88 215.936 147.155 216.146 147.429C216.163 147.451 216.177 147.472 216.194 147.493C216.222 147.529 216.253 147.565 216.282 147.601C216.55 147.946 216.829 148.288 217.119 148.63C217.152 148.669 217.184 148.708 217.218 148.747C217.524 149.103 217.843 149.456 218.171 149.807C218.236 149.877 218.302 149.947 218.368 150.017C218.697 150.363 219.035 150.706 219.384 151.045C219.44 151.1 219.498 151.153 219.555 151.208C219.899 151.538 220.253 151.865 220.615 152.188C220.647 152.217 220.678 152.246 220.711 152.275C221.09 152.609 221.48 152.937 221.878 153.26C221.956 153.324 222.034 153.388 222.113 153.451C222.507 153.767 222.909 154.078 223.319 154.382C223.39 154.435 223.462 154.486 223.533 154.538C223.943 154.839 224.361 155.133 224.787 155.421C224.814 155.439 224.84 155.458 224.866 155.476C225.306 155.771 225.755 156.056 226.21 156.336C226.26 156.367 226.309 156.401 226.359 156.432C226.41 156.462 226.461 156.491 226.512 156.521C226.743 156.661 226.978 156.798 227.213 156.933C227.324 156.997 227.434 157.062 227.545 157.125C227.893 157.321 228.243 157.511 228.597 157.698C228.921 157.867 229.244 158.029 229.567 158.186C229.663 158.233 229.759 158.278 229.855 158.324C230.09 158.436 230.325 158.545 230.558 158.65C230.617 158.677 230.677 158.706 230.735 158.732C230.78 158.752 230.825 158.77 230.87 158.79C231.036 158.863 231.202 158.933 231.367 159.003C231.482 159.051 231.597 159.101 231.712 159.147C231.885 159.218 232.057 159.286 232.23 159.353C232.335 159.393 232.44 159.436 232.544 159.475C232.742 159.55 232.938 159.62 233.135 159.69C233.212 159.717 233.29 159.746 233.367 159.773C233.639 159.867 233.91 159.957 234.179 160.042L234.192 160.046C234.248 160.063 234.303 160.078 234.358 160.096C234.565 160.159 234.771 160.221 234.974 160.279C235.072 160.306 235.168 160.331 235.265 160.357C235.43 160.402 235.595 160.447 235.759 160.488C235.866 160.514 235.971 160.538 236.077 160.563C236.229 160.599 236.381 160.635 236.532 160.668C236.641 160.692 236.749 160.713 236.857 160.735C237.003 160.765 237.148 160.794 237.292 160.82C237.334 160.828 237.378 160.838 237.42 160.845C237.476 160.855 237.529 160.862 237.584 160.871C237.772 160.903 237.959 160.932 238.144 160.959C238.234 160.972 238.324 160.985 238.414 160.997C238.624 161.025 238.833 161.048 239.039 161.068C239.095 161.074 239.152 161.081 239.207 161.086C239.467 161.11 239.723 161.128 239.975 161.14C240.04 161.143 240.104 161.144 240.168 161.146C240.356 161.153 240.543 161.158 240.727 161.159C240.763 161.159 240.8 161.161 240.836 161.161C240.902 161.161 240.965 161.158 241.03 161.157C241.13 161.155 241.23 161.153 241.328 161.15C241.436 161.146 241.542 161.141 241.648 161.135C241.745 161.13 241.842 161.124 241.938 161.117C242.042 161.109 242.145 161.099 242.247 161.089C242.342 161.079 242.436 161.07 242.529 161.059C242.63 161.046 242.729 161.032 242.828 161.017C242.92 161.004 243.011 160.991 243.1 160.976C243.198 160.959 243.294 160.94 243.391 160.922C243.478 160.904 243.566 160.888 243.652 160.869C243.747 160.848 243.84 160.824 243.933 160.801C244.017 160.78 244.101 160.76 244.183 160.737C244.275 160.712 244.364 160.684 244.453 160.656C244.534 160.632 244.615 160.607 244.694 160.581C244.782 160.552 244.867 160.519 244.953 160.487C245.029 160.459 245.106 160.431 245.181 160.401C245.266 160.366 245.348 160.329 245.431 160.293C245.503 160.261 245.575 160.23 245.646 160.196C245.727 160.157 245.806 160.115 245.885 160.074C245.953 160.039 246.022 160.005 246.087 159.968C246.166 159.923 246.24 159.876 246.316 159.83Z" fill="#FF9763"/>
<mask id="mask23_3_83670" style="mask-type:luminance" maskUnits="userSpaceOnUse" x="211" y="127" width="42" height="35">
<path fill-rule="evenodd" clip-rule="evenodd" d="M246.316 159.83C246.379 159.792 246.443 159.754 246.504 159.714C246.579 159.665 246.65 159.613 246.722 159.562C246.78 159.521 246.839 159.481 246.896 159.438C246.968 159.383 247.035 159.325 247.104 159.268C247.156 159.224 247.211 159.182 247.262 159.137C247.333 159.074 247.399 159.008 247.466 158.943C247.511 158.899 247.557 158.858 247.601 158.813C247.674 158.738 247.742 158.658 247.811 158.579C247.844 158.54 247.88 158.504 247.912 158.465C248.011 158.345 248.106 158.221 248.196 158.093L252.684 151.687C252.594 151.815 252.5 151.939 252.401 152.058C252.368 152.098 252.332 152.134 252.299 152.173C252.23 152.251 252.162 152.331 252.089 152.406C252.046 152.451 251.999 152.493 251.954 152.537C251.887 152.602 251.82 152.668 251.75 152.731C251.7 152.775 251.645 152.817 251.593 152.861C251.525 152.918 251.456 152.976 251.384 153.031C251.328 153.074 251.269 153.114 251.211 153.155C251.139 153.206 251.068 153.259 250.993 153.308C250.931 153.348 250.867 153.385 250.804 153.423C250.728 153.47 250.654 153.517 250.576 153.56C250.51 153.597 250.441 153.632 250.373 153.667C250.295 153.708 250.216 153.75 250.135 153.789C250.064 153.823 249.991 153.853 249.919 153.885C249.836 153.922 249.754 153.959 249.669 153.993C249.595 154.023 249.518 154.051 249.443 154.079C249.356 154.111 249.27 154.144 249.181 154.174C249.103 154.2 249.023 154.224 248.943 154.248C248.853 154.276 248.763 154.304 248.671 154.33C248.589 154.352 248.505 154.373 248.421 154.394C248.328 154.417 248.235 154.44 248.14 154.461C248.055 154.48 247.967 154.497 247.88 154.514C247.783 154.533 247.686 154.552 247.588 154.569C247.499 154.584 247.409 154.597 247.318 154.61C247.218 154.624 247.118 154.639 247.016 154.651C246.924 154.662 246.83 154.672 246.737 154.681C246.634 154.691 246.531 154.701 246.426 154.709C246.33 154.716 246.233 154.722 246.136 154.727C246.03 154.733 245.924 154.739 245.817 154.742C245.718 154.746 245.618 154.747 245.518 154.749C245.417 154.75 245.317 154.751 245.216 154.751C245.032 154.75 244.845 154.745 244.657 154.738C244.593 154.736 244.529 154.735 244.464 154.732C244.212 154.72 243.956 154.702 243.697 154.679C243.64 154.674 243.582 154.666 243.524 154.66C243.319 154.64 243.112 154.617 242.903 154.589C242.813 154.578 242.723 154.564 242.633 154.551C242.448 154.525 242.261 154.495 242.074 154.463C241.977 154.447 241.88 154.43 241.782 154.412C241.637 154.386 241.491 154.357 241.346 154.327C241.238 154.305 241.131 154.284 241.022 154.26C240.87 154.227 240.717 154.191 240.564 154.155C240.459 154.13 240.355 154.106 240.25 154.08C240.084 154.038 239.918 153.993 239.751 153.948C239.656 153.922 239.561 153.898 239.465 153.871C239.256 153.812 239.045 153.748 238.834 153.684C238.779 153.667 238.725 153.651 238.669 153.634C238.4 153.55 238.129 153.46 237.856 153.366C237.781 153.34 237.705 153.311 237.63 153.284C237.431 153.214 237.233 153.143 237.033 153.067C236.93 153.028 236.825 152.987 236.722 152.946C236.548 152.879 236.375 152.811 236.2 152.74C236.086 152.694 235.972 152.645 235.857 152.597C235.692 152.527 235.526 152.456 235.359 152.383C235.256 152.338 235.151 152.29 235.047 152.243C234.814 152.138 234.579 152.029 234.344 151.916C234.248 151.871 234.152 151.826 234.056 151.779C233.734 151.622 233.411 151.461 233.086 151.291C232.732 151.105 232.381 150.914 232.034 150.718C231.923 150.655 231.814 150.59 231.704 150.527C231.468 150.391 231.233 150.254 231 150.114C230.899 150.053 230.8 149.991 230.7 149.93C230.245 149.65 229.795 149.364 229.355 149.069C229.329 149.052 229.303 149.033 229.277 149.015C228.85 148.727 228.432 148.433 228.021 148.131C227.951 148.079 227.879 148.028 227.808 147.976C227.398 147.671 226.996 147.361 226.602 147.044C226.524 146.981 226.445 146.917 226.367 146.854C225.97 146.53 225.58 146.202 225.201 145.868C225.168 145.839 225.136 145.809 225.103 145.779C224.74 145.458 224.388 145.132 224.044 144.801C223.987 144.747 223.929 144.693 223.873 144.638C223.524 144.299 223.186 143.956 222.858 143.61C222.791 143.54 222.725 143.47 222.66 143.4C222.332 143.049 222.012 142.697 221.707 142.341C221.673 142.302 221.641 142.262 221.608 142.223C221.318 141.882 221.039 141.54 220.771 141.196C220.726 141.138 220.679 141.08 220.635 141.022C220.424 140.748 220.219 140.474 220.023 140.199C220.011 140.181 219.999 140.163 219.986 140.145C219.803 139.888 219.627 139.63 219.458 139.372C219.399 139.283 219.343 139.193 219.286 139.104C219.165 138.916 219.047 138.727 218.934 138.539C218.873 138.438 218.813 138.337 218.755 138.237C218.648 138.054 218.545 137.871 218.446 137.689C218.389 137.585 218.332 137.482 218.277 137.378C218.219 137.267 218.163 137.156 218.108 137.045C218.043 136.916 217.979 136.788 217.918 136.66C217.866 136.549 217.815 136.438 217.765 136.326C217.707 136.2 217.651 136.073 217.597 135.947C217.55 135.835 217.505 135.724 217.461 135.614C217.411 135.488 217.362 135.363 217.315 135.238C217.274 135.128 217.235 135.018 217.196 134.908C217.152 134.781 217.11 134.654 217.069 134.527C217.037 134.428 217.007 134.33 216.978 134.231C216.94 134.101 216.904 133.972 216.87 133.843C216.845 133.746 216.819 133.65 216.796 133.553C216.765 133.423 216.738 133.294 216.711 133.165C216.692 133.072 216.672 132.978 216.656 132.887C216.631 132.752 216.612 132.619 216.593 132.486C216.581 132.401 216.567 132.316 216.557 132.231C216.541 132.104 216.533 131.979 216.522 131.853C216.515 131.759 216.504 131.665 216.499 131.573C216.493 131.442 216.493 131.314 216.491 131.186C216.49 131.1 216.486 131.014 216.488 130.929C216.49 130.788 216.5 130.648 216.51 130.509C216.514 130.44 216.515 130.37 216.522 130.301C216.541 130.094 216.568 129.89 216.603 129.688C216.631 129.528 216.672 129.376 216.709 129.222C216.733 129.124 216.753 129.023 216.781 128.928C216.82 128.793 216.869 128.664 216.916 128.534C216.947 128.449 216.973 128.361 217.007 128.278C217.065 128.138 217.132 128.006 217.199 127.873C217.231 127.807 217.259 127.737 217.295 127.673C217.4 127.48 217.515 127.294 217.641 127.114L213.152 133.52C213.027 133.7 212.911 133.887 212.806 134.08C212.771 134.143 212.743 134.213 212.711 134.278C212.644 134.411 212.577 134.544 212.519 134.684C212.485 134.767 212.459 134.855 212.428 134.941C212.381 135.071 212.332 135.199 212.293 135.335C212.265 135.429 212.245 135.53 212.221 135.627C212.194 135.738 212.162 135.845 212.139 135.959C212.131 136.004 212.123 136.049 212.115 136.095C212.079 136.296 212.052 136.5 212.033 136.707C212.027 136.776 212.026 136.847 212.021 136.916C212.012 137.055 212.002 137.194 211.999 137.335C211.998 137.42 212.002 137.507 212.003 137.592C212.004 137.721 212.004 137.849 212.011 137.979C212.016 138.071 212.026 138.166 212.034 138.258C212.043 138.365 212.048 138.471 212.06 138.579C212.062 138.599 212.066 138.619 212.068 138.638C212.078 138.722 212.093 138.807 212.105 138.893C212.124 139.026 212.143 139.159 212.167 139.294C212.184 139.385 212.204 139.478 212.223 139.57C212.249 139.7 212.277 139.83 212.308 139.961C212.331 140.057 212.356 140.153 212.382 140.25C212.416 140.379 212.451 140.508 212.489 140.637C212.518 140.736 212.549 140.835 212.58 140.934C212.601 140.998 212.618 141.062 212.639 141.126C212.661 141.19 212.685 141.252 212.707 141.315C212.746 141.425 212.785 141.534 212.826 141.644C212.872 141.77 212.921 141.895 212.972 142.021C213.016 142.132 213.061 142.242 213.108 142.353C213.162 142.48 213.218 142.606 213.276 142.733C213.326 142.844 213.376 142.955 213.429 143.067C213.49 143.194 213.554 143.323 213.618 143.451C213.674 143.562 213.73 143.673 213.788 143.784C213.81 143.826 213.83 143.868 213.852 143.909C213.885 143.971 213.923 144.033 213.957 144.096C214.056 144.278 214.159 144.46 214.266 144.643C214.325 144.744 214.384 144.844 214.444 144.944C214.558 145.133 214.676 145.321 214.797 145.51C214.854 145.6 214.91 145.689 214.969 145.779C215.138 146.035 215.313 146.292 215.494 146.547C215.508 146.567 215.521 146.587 215.534 146.606C215.731 146.88 215.936 147.155 216.146 147.429C216.163 147.451 216.177 147.472 216.194 147.493C216.222 147.529 216.253 147.565 216.282 147.601C216.55 147.946 216.829 148.288 217.119 148.63C217.152 148.669 217.184 148.708 217.218 148.747C217.524 149.103 217.843 149.456 218.171 149.807C218.236 149.877 218.302 149.947 218.368 150.017C218.697 150.363 219.035 150.706 219.384 151.045C219.44 151.1 219.498 151.153 219.555 151.208C219.899 151.538 220.253 151.865 220.615 152.188C220.647 152.217 220.678 152.246 220.711 152.275C221.09 152.609 221.48 152.937 221.878 153.26C221.956 153.324 222.034 153.388 222.113 153.451C222.507 153.767 222.909 154.078 223.319 154.382C223.39 154.435 223.462 154.486 223.533 154.538C223.943 154.839 224.361 155.133 224.787 155.421C224.814 155.439 224.84 155.458 224.866 155.476C225.306 155.771 225.755 156.056 226.21 156.336C226.26 156.367 226.309 156.401 226.359 156.432C226.41 156.462 226.461 156.491 226.512 156.521C226.743 156.661 226.978 156.798 227.213 156.933C227.324 156.997 227.434 157.062 227.545 157.125C227.893 157.321 228.243 157.511 228.597 157.698C228.921 157.867 229.244 158.029 229.567 158.186C229.663 158.233 229.759 158.278 229.855 158.324C230.09 158.436 230.325 158.545 230.558 158.65C230.617 158.677 230.677 158.706 230.735 158.732C230.78 158.752 230.825 158.77 230.87 158.79C231.036 158.863 231.202 158.933 231.367 159.003C231.482 159.051 231.597 159.101 231.712 159.147C231.885 159.218 232.057 159.286 232.23 159.353C232.335 159.393 232.44 159.436 232.544 159.475C232.742 159.55 232.938 159.62 233.135 159.69C233.212 159.717 233.29 159.746 233.367 159.773C233.639 159.867 233.91 159.957 234.179 160.042L234.192 160.046C234.248 160.063 234.303 160.078 234.358 160.096C234.565 160.159 234.771 160.221 234.974 160.279C235.072 160.306 235.168 160.331 235.265 160.357C235.43 160.402 235.595 160.447 235.759 160.488C235.866 160.514 235.971 160.538 236.077 160.563C236.229 160.599 236.381 160.635 236.532 160.668C236.641 160.692 236.749 160.713 236.857 160.735C237.003 160.765 237.148 160.794 237.292 160.82C237.334 160.828 237.378 160.838 237.42 160.845C237.476 160.855 237.529 160.862 237.584 160.871C237.772 160.903 237.959 160.932 238.144 160.959C238.234 160.972 238.324 160.985 238.414 160.997C238.624 161.025 238.833 161.048 239.039 161.068C239.095 161.074 239.152 161.081 239.207 161.086C239.467 161.11 239.723 161.128 239.975 161.14C240.04 161.143 240.104 161.144 240.168 161.146C240.356 161.153 240.543 161.158 240.727 161.159C240.763 161.159 240.8 161.161 240.836 161.161C240.902 161.161 240.965 161.158 241.03 161.157C241.13 161.155 241.23 161.153 241.328 161.15C241.436 161.146 241.542 161.141 241.648 161.135C241.745 161.13 241.842 161.124 241.938 161.117C242.042 161.109 242.145 161.099 242.247 161.089C242.342 161.079 242.436 161.07 242.529 161.059C242.63 161.046 242.729 161.032 242.828 161.017C242.92 161.004 243.011 160.991 243.1 160.976C243.198 160.959 243.294 160.94 243.391 160.922C243.478 160.904 243.566 160.888 243.652 160.869C243.747 160.848 243.84 160.824 243.933 160.801C244.017 160.78 244.101 160.76 244.183 160.737C244.275 160.712 244.364 160.684 244.453 160.656C244.534 160.632 244.615 160.607 244.694 160.581C244.782 160.552 244.867 160.519 244.953 160.487C245.029 160.459 245.106 160.431 245.181 160.401C245.266 160.366 245.348 160.329 245.431 160.293C245.503 160.261 245.575 160.23 245.646 160.196C245.727 160.157 245.806 160.115 245.885 160.074C245.953 160.039 246.022 160.005 246.087 159.968C246.166 159.923 246.24 159.876 246.316 159.83Z" fill="white"/>
</mask>
<g mask="url(#mask23_3_83670)">
<path d="M254.836 153.605C244.778 162.899 224.867 155.476 224.867 155.476L228.412 167.304C228.412 167.304 243.575 169.521 248.859 164.908L254.142 160.295" fill="#E84B23"/>
</g>
<path d="M238.195 134.936C239.044 136.494 239.71 138.145 240.179 139.856C240.237 140.041 240.431 140.147 240.618 140.096C240.804 140.044 240.917 139.854 240.871 139.666C240.384 137.895 239.694 136.186 238.815 134.574C238.594 134.169 237.974 134.53 238.195 134.936Z" fill="#E84B23"/>
<path d="M223.236 152.036L225.637 153.109C225.808 153.203 226.023 153.147 226.127 152.981C226.225 152.809 226.168 152.591 225.999 152.49L223.598 151.417C223.426 151.324 223.211 151.38 223.107 151.546C223.009 151.717 223.066 151.935 223.236 152.036H223.236Z" fill="#E84B23"/>
</g>
<path d="M58.5002 83.2501C58.5002 80.3505 56.1496 78 53.2501 78C50.3505 78 48 80.3505 48 83.2501V89.5458C48 92.4454 50.3505 94.7959 53.2501 94.7959C56.1496 94.7959 58.5002 92.4454 58.5002 89.5458V83.2501Z" fill="#FFC562"/>
<path d="M53.25 93.1184V99.0001" stroke="#FFC562" stroke-width="2" stroke-miterlimit="10" stroke-linecap="round"/>
<path d="M50.2397 98.9999H56.2566" stroke="#FFC562" stroke-width="2" stroke-miterlimit="10" stroke-linecap="round"/>
</svg>
