<svg width="27" height="36" viewBox="0 0 27 36" fill="none" xmlns="http://www.w3.org/2000/svg">
<path d="M3.92728 16.5088C3.86528 17.5788 4.00228 18.8728 4.95728 19.3628C5.4422 19.554 5.96538 19.628 6.48429 19.5788C7.5213 19.5793 8.55538 19.6893 9.56931 19.9068C10.8907 20.3961 12.2837 20.664 13.6923 20.6998C15.1073 20.5068 16.3513 19.6698 17.7763 19.4998C18.5899 19.4639 19.4048 19.4736 20.2173 19.5288C21.0387 19.5827 21.8494 19.3185 22.4813 18.7908C23.0061 18.1713 23.2991 17.3887 23.3103 16.5768C23.4757 14.1958 23.1212 11.8072 22.2713 9.57685C21.6448 7.88764 20.8996 6.24487 20.0413 4.66084C19.2703 3.20084 17.8543 3.58885 16.8843 2.23285C14.9213 -0.511153 9.74928 0.739845 7.52228 3.79284C6.66915 5.0695 6.04955 6.48751 5.6923 7.98084C5.3063 9.35784 4.9213 10.7478 4.5813 12.1368C4.23076 13.5712 4.01183 15.0347 3.92728 16.5088Z" fill="#F8EFD4"/>
<path d="M26.733 35.8169H0.0839844C0.483296 32.1595 1.06703 28.5245 1.83298 24.9259C2.23298 23.7689 4.99499 23.0959 7.31699 22.5349L7.81097 22.4189C8.79982 22.2925 9.74903 21.9512 10.592 21.4189H16.23C17.0884 21.955 18.0529 22.2986 19.057 22.4259C19.219 22.4649 19.383 22.5069 19.557 22.5459C21.871 23.1069 24.592 23.7799 24.989 24.9239C25.7534 28.5233 26.3354 32.1589 26.733 35.8169Z" fill="#FFD5C2"/>
<path d="M16.82 21.7903L13.409 23.4903L9.99805 21.7903C10.3887 21.1082 10.6593 20.364 10.798 19.5903C11.0084 18.6125 11.0997 17.613 11.07 16.6133H15.738C15.7171 17.3707 15.765 18.1285 15.881 18.8773C15.9891 19.9038 16.3074 20.8971 16.816 21.7953L16.82 21.7903Z" fill="#FFD5C2"/>
<path d="M15.8872 18.8724C14.283 19.5479 12.5304 19.7936 10.8022 19.5854C11.0126 18.6077 11.1039 17.6081 11.0742 16.6084H15.7422C15.7221 17.3659 15.7706 18.1237 15.8872 18.8724Z" fill="#F6AE8D"/>
<path d="M8.59089 11.7435C8.59089 11.7435 8.04289 9.57848 6.68189 10.5385C5.32089 11.4985 6.6819 14.6615 8.6009 14.6435C8.6009 14.6435 9.11189 12.5205 8.59089 11.7435Z" fill="#FFD5C2"/>
<path d="M7.15326 11.5464C7.43135 11.6753 7.67069 11.8749 7.84726 12.1254C8.05853 12.3454 8.21989 12.6084 8.32028 12.8964C8.34328 12.9834 8.22026 13.0214 8.17026 12.9624C8.02726 12.7944 7.91927 12.6014 7.78427 12.4244C7.67648 12.5351 7.54431 12.619 7.39829 12.6694C7.37236 12.6733 7.34587 12.6694 7.32217 12.6582C7.29848 12.647 7.27867 12.6289 7.26526 12.6064C7.25185 12.5839 7.24543 12.5579 7.24686 12.5317C7.24829 12.5055 7.2575 12.4804 7.27329 12.4594C7.36199 12.3501 7.47544 12.2633 7.60428 12.2064C7.40865 12.0498 7.22603 11.8776 7.05826 11.6914C7.04439 11.6769 7.03588 11.6581 7.03406 11.6381C7.03224 11.6181 7.03724 11.598 7.04825 11.5812C7.05926 11.5644 7.07563 11.5519 7.0947 11.5455C7.11377 11.5392 7.13439 11.5395 7.15326 11.5464Z" fill="#F6AE8D"/>
<path d="M18.3331 11.7435C18.3331 11.7435 18.8811 9.57848 20.2421 10.5385C21.6031 11.4985 20.2421 14.6615 18.3231 14.6435C18.3241 14.6435 17.8131 12.5205 18.3331 11.7435Z" fill="#FFD5C2"/>
<path d="M19.7718 11.5483C19.4939 11.6774 19.2547 11.877 19.0778 12.1273C18.867 12.3474 18.706 12.6104 18.6059 12.8983C18.5829 12.9853 18.7059 13.0233 18.7569 12.9643C18.8999 12.7963 19.0078 12.6033 19.1428 12.4263C19.2507 12.5369 19.3829 12.6208 19.5289 12.6713C19.5548 12.6751 19.5813 12.6713 19.605 12.6601C19.6288 12.6489 19.6487 12.631 19.6623 12.6086C19.6758 12.5861 19.6825 12.5602 19.6813 12.5339C19.6802 12.5077 19.6713 12.4825 19.6558 12.4613C19.5668 12.3518 19.453 12.2651 19.3238 12.2083C19.5195 12.0517 19.7021 11.8795 19.8698 11.6933C19.8855 11.6787 19.8954 11.659 19.8978 11.6378C19.9001 11.6165 19.8947 11.5951 19.8826 11.5775C19.8704 11.5599 19.8524 11.5473 19.8317 11.5419C19.811 11.5365 19.789 11.5388 19.7699 11.5483H19.7718Z" fill="#F6AE8D"/>
<path d="M18.7111 8.84605C17.5791 3.41405 13.4111 3.79405 13.4111 3.79405C13.4111 3.79405 9.2441 3.40805 8.1111 8.84605C7.66918 10.8644 7.83766 12.9687 8.59511 14.891C8.86492 15.9637 9.48516 16.9155 10.3574 17.5955C11.2297 18.2755 12.3041 18.6449 13.4101 18.6449C14.5161 18.6449 15.5905 18.2755 16.4628 17.5955C17.3351 16.9155 17.9553 15.9637 18.2251 14.891C18.9826 12.9687 19.1511 10.8644 18.7091 8.84605H18.7111Z" fill="#FFD5C2"/>
<path d="M10.9093 11.1539C10.9093 11.1539 10.4463 11.3259 10.5233 10.5079C10.5873 9.77086 10.9093 9.87186 10.9093 9.87186C10.9093 9.87186 11.2313 9.87186 11.1813 10.5139C11.1313 11.1559 10.9093 11.1539 10.9093 11.1539Z" fill="#3B2645"/>
<path d="M15.6383 11.1539C15.6383 11.1539 15.1753 11.3259 15.2523 10.5079C15.3163 9.77086 15.6383 9.87186 15.6383 9.87186C15.6383 9.87186 15.9603 9.87186 15.9123 10.5139C15.8643 11.1559 15.6383 11.1539 15.6383 11.1539Z" fill="#3B2645"/>
<path d="M14.4212 14.805C14.052 14.9785 13.6637 15.1081 13.2642 15.191C12.8782 15.214 12.5332 15.017 12.1642 15.025C12.1541 15.025 12.1441 15.0277 12.1353 15.0328C12.1265 15.0379 12.1192 15.0453 12.1142 15.0541C12.1091 15.0629 12.1064 15.0729 12.1064 15.083C12.1065 15.0932 12.1091 15.1032 12.1142 15.112C12.5382 15.771 14.1392 15.567 14.5142 14.938C14.525 14.9238 14.531 14.9065 14.5314 14.8887C14.5318 14.8709 14.5266 14.8535 14.5165 14.8388C14.5065 14.8241 14.4921 14.8129 14.4753 14.8068C14.4586 14.8008 14.4404 14.8001 14.4232 14.805H14.4212Z" fill="#F6AE8D"/>
<path d="M11.6113 8.65518C11.3753 8.50538 11.0949 8.44146 10.8173 8.47418C10.5703 8.47418 10.2173 8.47419 10.0463 8.68619C10.041 8.69161 10.0371 8.69831 10.0352 8.70565C10.0332 8.71299 10.0332 8.72071 10.0351 8.72806C10.037 8.73541 10.0408 8.74213 10.0461 8.74759C10.0514 8.75304 10.058 8.75704 10.0653 8.75919C10.2966 8.78822 10.5312 8.77842 10.7593 8.73019C11.0216 8.76523 11.2857 8.78593 11.5503 8.79218C11.6113 8.78618 11.6713 8.71318 11.6113 8.65518Z" fill="#3B2645"/>
<path d="M16.3991 8.55829C16.3227 8.44824 16.2155 8.36316 16.091 8.31371C15.9665 8.26427 15.8301 8.25264 15.699 8.28029C15.446 8.30329 15.0651 8.37429 14.9281 8.61429C14.9233 8.62292 14.9206 8.6325 14.92 8.64234C14.9195 8.65217 14.9211 8.662 14.9248 8.67111C14.9286 8.68022 14.9343 8.68838 14.9416 8.69499C14.9489 8.70159 14.9576 8.70648 14.9671 8.70929C15.1601 8.76529 15.3531 8.6433 15.5451 8.6033C15.7968 8.57202 16.0523 8.60327 16.289 8.69429C16.3067 8.6987 16.3252 8.69792 16.3424 8.69204C16.3595 8.68616 16.3746 8.67543 16.3858 8.66116C16.397 8.64688 16.4039 8.62967 16.4055 8.61159C16.4071 8.59351 16.4035 8.57535 16.3951 8.55929L16.3991 8.55829Z" fill="#3B2645"/>
<path d="M13.2972 13.2878C13.0912 13.2438 12.5972 13.2488 12.5262 13.0948C12.6079 12.6983 12.7281 12.3108 12.8852 11.9378C13.0689 11.3011 13.1163 10.6329 13.0242 9.97677C13.0219 9.9691 13.0173 9.96236 13.0109 9.95757C13.0045 9.95278 12.9967 9.9502 12.9887 9.9502C12.9807 9.9502 12.9729 9.95278 12.9665 9.95757C12.9601 9.96236 12.9554 9.9691 12.9532 9.97677C12.8262 10.5228 12.8202 11.0878 12.7042 11.6368C12.5882 12.1858 12.3862 12.7168 12.2182 13.2568C12.2136 13.2721 12.2126 13.2882 12.2155 13.304C12.2184 13.3197 12.225 13.3345 12.2348 13.3471C12.2446 13.3598 12.2573 13.3699 12.2718 13.3766C12.2863 13.3833 12.3022 13.3865 12.3182 13.3858C12.6442 13.4513 12.9795 13.456 13.3072 13.3998C13.3145 13.3992 13.3217 13.3973 13.3283 13.394C13.3349 13.3907 13.3408 13.3861 13.3456 13.3805C13.3504 13.375 13.3541 13.3685 13.3564 13.3615C13.3588 13.3545 13.3597 13.3471 13.3592 13.3398C13.3587 13.3324 13.3567 13.3252 13.3534 13.3186C13.3501 13.312 13.3455 13.3062 13.34 13.3013C13.3344 13.2965 13.3279 13.2928 13.3209 13.2905C13.3139 13.2882 13.3065 13.2872 13.2992 13.2878H13.2972Z" fill="#F6AE8D"/>
<path d="M22.8423 35.8162H4.19526C3.61603 33.8931 3.80194 31.8205 4.71424 30.0312H5.48527L7.31925 22.5242L7.81324 22.4082L5.95426 30.0312H20.9203L19.0613 22.4182C19.2233 22.4572 19.3873 22.4992 19.5613 22.5382L21.3912 30.0312H22.2913C23.0911 31.8504 23.2843 33.8787 22.8423 35.8162Z" fill="#C03AE9"/>
<path d="M7.87913 10.4908C8.129 9.26349 8.78619 8.15664 9.74412 7.34977C10.8635 6.45016 11.8198 5.36466 12.5711 4.14077C12.9206 4.65871 13.3792 5.09388 13.9147 5.41572C14.4503 5.73756 15.0498 5.93828 15.6711 6.00377C17.6401 6.09277 18.9491 10.7208 18.9491 10.7208L20.2891 8.27577L16.8181 3.09277H12.1111L7.86912 5.04977C7.86912 5.04977 6.97813 9.60377 7.87913 10.4908Z" fill="#F8EFD4"/>
<path d="M0.743073 27.3145C9.19518 27.8932 17.677 27.8932 26.1291 27.3145C26.1291 27.3145 26.6291 30.6565 26.7291 32.3285C26.7291 32.3285 9.31608 33.7415 0.0800781 31.9425L0.743073 27.3145Z" fill="#B881C9"/>
<path d="M17.589 4.63728C17.309 4.87428 17.037 5.12128 16.781 5.38328C16.5243 5.59993 16.3254 5.87687 16.202 6.18928C16.1945 6.21981 16.196 6.25188 16.2063 6.28158C16.2167 6.31127 16.2355 6.3373 16.2604 6.35649C16.2853 6.37568 16.3153 6.3872 16.3467 6.38965C16.378 6.3921 16.4094 6.38537 16.437 6.37028C16.7218 6.1965 16.9753 5.9761 17.187 5.71828C17.438 5.47328 17.7 5.24028 17.97 5.01828C18.24 4.79628 17.853 4.41328 17.589 4.63728Z" fill="#132743"/>
<path d="M17.592 5.73427C17.2764 5.99468 17.0304 6.32935 16.8761 6.70827C16.8711 6.72802 16.8714 6.74871 16.8769 6.76832C16.8823 6.78793 16.8927 6.8058 16.9071 6.8202C16.9215 6.83459 16.9394 6.84502 16.959 6.85046C16.9786 6.8559 16.9993 6.85618 17.019 6.85127C17.3867 6.6785 17.7054 6.41656 17.946 6.08927C18.174 5.85727 17.813 5.49627 17.592 5.73427Z" fill="#132743"/>
</svg>
