<svg width="18" height="18" viewBox="0 0 18 18" fill="none" xmlns="http://www.w3.org/2000/svg">
<path fill-rule="evenodd" clip-rule="evenodd" d="M9.64208 0C10.4923 0 11.2227 0.557515 11.3827 1.32855L11.4538 1.67141C11.7334 3.01905 13.243 3.82382 14.6468 3.37357L15.004 3.25898C15.8072 3.00138 16.6953 3.3067 17.1204 3.98655L17.7625 5.01341C18.1876 5.69328 18.0299 6.55612 17.3867 7.06952L17.1006 7.29785C15.9764 8.19522 15.9764 9.80478 17.1006 10.7022L17.3867 10.9305C18.0299 11.4439 18.1876 12.3067 17.7625 12.9866L17.1204 14.0134C16.6953 14.6933 15.8072 14.9986 15.004 14.741L14.6468 14.6264C13.243 14.1761 11.7333 14.9809 11.4538 16.3286L11.3827 16.6714C11.2227 17.4425 10.4923 18 9.64207 18H8.35789C7.50768 18 6.77726 17.4425 6.6173 16.6715L6.54613 16.3285C6.26653 14.9808 4.75687 14.1761 3.35309 14.6264L2.99601 14.7409C2.19286 14.9986 1.30471 14.6933 0.87959 14.0134L0.237516 12.9866C-0.187593 12.3067 -0.0299078 11.4439 0.61328 10.9305L0.899362 10.7021C2.02356 9.80475 2.02356 8.19525 0.899363 7.29788L0.61328 7.06953C-0.0299079 6.55612 -0.187593 5.6933 0.237517 5.01344L0.879612 3.98657C1.30472 3.30671 2.19284 3.00139 2.99598 3.259L3.35316 3.37356C4.75692 3.82382 6.26653 3.0191 6.54612 1.67149L6.61729 1.32849C6.77725 0.557484 7.50767 0 8.35788 0H9.64208ZM8.99998 11.5714C10.4911 11.5714 11.7 10.4202 11.7 9C11.7 7.57984 10.4911 6.42857 8.99998 6.42857C7.50881 6.42857 6.29998 7.57984 6.29998 9C6.29998 10.4202 7.50881 11.5714 8.99998 11.5714Z" fill="white"/>
</svg>
