<svg width="14" height="18" viewBox="0 0 14 18" fill="none" xmlns="http://www.w3.org/2000/svg">
<path d="M3.5 6.02628C3.5 4.9732 2.02611 4.69407 1.63508 5.67941C0.689196 8.06289 0 10.1951 0 11.3479C0 15.0217 3.13401 18 7 18C10.866 18 14 15.0217 14 11.3479C14 10.1094 13.2045 7.74036 12.1498 5.1438C10.7836 1.78022 10.1005 0.0984357 9.25726 0.00785067C8.98744 -0.021135 8.69308 0.0309783 8.45234 0.150353C7.7 0.52342 7.7 2.35771 7.7 6.02628C7.7 7.12843 6.7598 8.02191 5.6 8.02191C4.4402 8.02191 3.5 7.12843 3.5 6.02628Z" fill="white"/>
</svg>
