<svg width="18" height="16" viewBox="0 0 18 16" fill="none" xmlns="http://www.w3.org/2000/svg">
<path fill-rule="evenodd" clip-rule="evenodd" d="M0.520699 0.520699C0 1.0414 0 1.87945 0 3.55556V5.47222H8.94935C9.16471 5.47222 9.28506 5.47173 9.37531 5.46487C9.41552 5.46181 9.4375 5.45821 9.44874 5.45587C9.45408 5.45476 9.45691 5.45394 9.45795 5.45363L9.45924 5.45319L9.46045 5.45259C9.46141 5.45208 9.46399 5.45065 9.46855 5.44767C9.47816 5.44137 9.49624 5.42838 9.52683 5.4021C9.5955 5.34314 9.68095 5.25839 9.83323 5.10611L11.3838 3.55556H10.8765C10.3419 3.55556 10.0746 3.55556 9.85983 3.4228C9.64502 3.29005 9.52549 3.05097 9.28641 2.57282L8.98273 1.96546C8.50458 1.00917 8.26551 0.531019 7.83591 0.26551C7.4063 0 6.87172 0 5.80255 0H3.55556C1.87945 0 1.0414 0 0.520699 0.520699ZM13.5024 3.55826L10.8939 6.16677L10.8374 6.22348C10.6078 6.45443 10.36 6.70369 10.0333 6.83901C9.70656 6.97433 9.35507 6.97332 9.0294 6.97238L8.94935 6.97222H0V10.6667C0 13.1808 0 14.4379 0.781049 15.219C1.5621 16 2.81918 16 5.33333 16H12.4444C14.9586 16 16.2157 16 16.9967 15.219C17.7778 14.4379 17.7778 13.1808 17.7778 10.6667V8.88889C17.7778 6.37473 17.7778 5.11765 16.9967 4.3366C16.3339 3.67378 15.3282 3.57345 13.5024 3.55826Z" fill="white"/>
</svg>
