<svg width="20" height="20" viewBox="0 0 20 20" fill="none" xmlns="http://www.w3.org/2000/svg">
<path d="M7.37366 17.9113C7.52211 18.0534 7.74714 17.8986 7.69143 17.6938L5.1702 8.42938C5.12326 8.25681 4.98095 8.13401 4.81372 8.12093C4.4057 8.08875 3.99787 8.05282 3.59027 8.01314L0.217518 7.68453C0.0600487 7.66919 -0.050788 7.84615 0.0237636 7.99566C1.8481 11.6527 4.47512 15.1373 7.37366 17.9113Z" fill="#9C2B23"/>
<path d="M9.84706 19.869C9.86748 19.9438 9.92742 20 10.0001 20C10.0727 20 10.1327 19.9438 10.1531 19.869L13.2391 8.529C13.2775 8.38775 13.1748 8.24779 13.0376 8.25411C11.0135 8.34731 8.98667 8.34731 6.96262 8.25411C6.82538 8.24779 6.72262 8.38775 6.76108 8.529L9.84706 19.869Z" fill="#9C2B23"/>
<path d="M12.3085 17.6938C12.2528 17.8986 12.4778 18.0534 12.6262 17.9113C15.5248 15.1373 18.1518 11.6527 19.9761 7.99566C20.0507 7.84615 19.9399 7.66919 19.7824 7.68453L16.4096 8.01314C16.002 8.05282 15.5943 8.08875 15.1862 8.12093C15.019 8.13401 14.8767 8.25681 14.8297 8.42938L12.3085 17.6938Z" fill="#9C2B23"/>
<path d="M19.8079 6.066C19.9604 6.05114 20.0415 5.86571 19.9545 5.7306L16.7145 0.695412C16.4343 0.259997 15.9724 0 15.4788 0H12.9875C12.8452 0 12.7484 0.154527 12.8022 0.295636L15.0605 6.21948C15.1262 6.39167 15.2879 6.49903 15.4608 6.48438C15.732 6.4614 16.0031 6.43671 16.2741 6.41031L19.8079 6.066Z" fill="#9C2B23"/>
<path d="M11.166 0.264008C11.1039 0.10414 10.9581 0 10.7964 0H9.20374C9.04213 0 8.89643 0.10414 8.83419 0.264008L6.47504 6.33237C6.42184 6.46923 6.51115 6.62128 6.64932 6.62846C8.88182 6.74429 11.1184 6.74429 13.3509 6.62845C13.489 6.62128 13.5784 6.46923 13.5251 6.33237L11.166 0.264008Z" fill="#9C2B23"/>
<path d="M7.19823 0.295636C7.25203 0.154527 7.15519 0 7.01296 0H4.5216C4.02809 0 3.5661 0.259997 3.28592 0.695412L0.0458875 5.7306C-0.0410528 5.86571 0.0400234 6.05114 0.192529 6.066L3.72634 6.41031C3.99732 6.43671 4.26839 6.4614 4.53957 6.48438C4.71258 6.49903 4.87428 6.39167 4.93993 6.21948L7.19823 0.295636Z" fill="#9C2B23"/>
</svg>
