<svg width="20" height="20" viewBox="0 0 20 20" fill="none" xmlns="http://www.w3.org/2000/svg">
<path d="M8.75 10.8332C8.75 11.2934 9.1231 11.6665 9.58333 11.6665H10.4167C10.8769 11.6665 11.25 11.2934 11.25 10.8332V2.49984C11.25 2.0396 10.8769 1.6665 10.4167 1.6665H9.58333C9.1231 1.6665 8.75 2.0396 8.75 2.49984V10.8332Z" fill="#9C2B23"/>
<path d="M4.97986 6.51068C5.25864 6.14447 5.26398 5.61982 4.93853 5.2944L4.34924 4.70517C4.02379 4.37975 3.4926 4.37744 3.19983 4.73255C1.98311 6.20842 1.25 8.09288 1.25 10.1468C1.25 14.9213 5.19096 18.7498 10 18.7498C14.809 18.7498 18.75 14.9213 18.75 10.1468C18.75 8.09288 18.0169 6.20842 16.8002 4.73255C16.5074 4.37744 15.9762 4.37975 15.6508 4.70517L15.0615 5.2944C14.736 5.61982 14.7414 6.14447 15.0201 6.51068C15.795 7.52849 16.25 8.78627 16.25 10.1468C16.25 13.4942 13.4752 16.2498 10 16.2498C6.52477 16.2498 3.75 13.4942 3.75 10.1468C3.75 8.78627 4.20505 7.52849 4.97986 6.51068Z" fill="#9C2B23"/>
</svg>
