<svg width="24" height="24" viewBox="0 0 24 24" fill="none" xmlns="http://www.w3.org/2000/svg">
<path fill-rule="evenodd" clip-rule="evenodd" d="M13.7944 3.29494C13.2298 3.10345 12.626 3 12.0002 3C9.15366 3 6.76235 5.14032 6.44801 7.96942L6.19621 10.2356L6.18975 10.2933C6.0608 11.417 5.69505 12.5005 5.11661 13.4725L5.08682 13.5222L4.50879 14.4856C3.98423 15.3599 3.72196 15.797 3.77858 16.1559C3.81625 16.3946 3.93914 16.6117 4.1245 16.7668C4.40307 17 4.91285 17 5.9324 17H18.0679C19.0875 17 19.5973 17 19.8758 16.7668C20.0612 16.6117 20.1841 16.3946 20.2218 16.1559C20.2784 15.797 20.0161 15.3599 19.4915 14.4856L18.9135 13.5222L18.8837 13.4725C18.4275 12.7059 18.1036 11.8698 17.9238 10.9994C15.1976 10.9586 13.0002 8.73592 13.0002 6C13.0002 5.00331 13.2918 4.07473 13.7944 3.29494ZM16.2742 4.98883C16.1 5.28551 16.0002 5.63109 16.0002 6C16.0002 6.94979 16.6622 7.74494 17.55 7.94914C17.4206 6.82135 16.961 5.80382 16.2742 4.98883Z" fill="#9C2B23"/>
<path d="M9 17C9 17.394 9.0776 17.7841 9.22836 18.1481C9.37913 18.512 9.6001 18.8427 9.87868 19.1213C10.1573 19.3999 10.488 19.6209 10.8519 19.7716C11.2159 19.9224 11.606 20 12 20C12.394 20 12.7841 19.9224 13.1481 19.7716C13.512 19.6209 13.8427 19.3999 14.1213 19.1213C14.3999 18.8427 14.6209 18.512 14.7716 18.1481C14.9224 17.7841 15 17.394 15 17L12 17H9Z" fill="#9C2B23"/>
<circle cx="18" cy="6" r="2.5" fill="#9C2B23" stroke="#9C2B23"/>
</svg>
