<svg width="233" height="233" viewBox="0 0 233 233" fill="none" xmlns="http://www.w3.org/2000/svg">
<path d="M0 7.28125C0 5.35014 0.76713 3.49813 2.13263 2.13263C3.49813 0.76713 5.35014 0 7.28125 0L50.9688 0C52.8999 0 54.7519 0.76713 56.1174 2.13263C57.4829 3.49813 58.25 5.35014 58.25 7.28125C58.25 9.21236 57.4829 11.0644 56.1174 12.4299C54.7519 13.7954 52.8999 14.5625 50.9688 14.5625H35.5625C23.9645 14.5625 14.5625 23.9645 14.5625 35.5625V50.9688C14.5625 52.8999 13.7954 54.7519 12.4299 56.1174C11.0644 57.4829 9.21236 58.25 7.28125 58.25C5.35014 58.25 3.49813 57.4829 2.13263 56.1174C0.76713 54.7519 0 52.8999 0 50.9688V7.28125ZM174.75 7.28125C174.75 5.35014 175.517 3.49813 176.883 2.13263C178.248 0.76713 180.1 0 182.031 0L225.719 0C227.65 0 229.502 0.76713 230.867 2.13263C232.233 3.49813 233 5.35014 233 7.28125V50.9688C233 52.8999 232.233 54.7519 230.867 56.1174C229.502 57.4829 227.65 58.25 225.719 58.25C223.788 58.25 221.936 57.4829 220.57 56.1174C219.205 54.7519 218.438 52.8999 218.438 50.9688V35.5625C218.438 23.9645 209.035 14.5625 197.438 14.5625H182.031C180.1 14.5625 178.248 13.7954 176.883 12.4299C175.517 11.0644 174.75 9.21236 174.75 7.28125ZM7.28125 174.75C9.21236 174.75 11.0644 175.517 12.4299 176.883C13.7954 178.248 14.5625 180.1 14.5625 182.031V197.437C14.5625 209.035 23.9645 218.438 35.5625 218.438H50.9688C52.8999 218.438 54.7519 219.205 56.1174 220.57C57.4829 221.936 58.25 223.788 58.25 225.719C58.25 227.65 57.4829 229.502 56.1174 230.867C54.7519 232.233 52.8999 233 50.9688 233H7.28125C5.35014 233 3.49813 232.233 2.13263 230.867C0.76713 229.502 0 227.65 0 225.719V182.031C0 180.1 0.76713 178.248 2.13263 176.883C3.49813 175.517 5.35014 174.75 7.28125 174.75ZM225.719 174.75C227.65 174.75 229.502 175.517 230.867 176.883C232.233 178.248 233 180.1 233 182.031V225.719C233 227.65 232.233 229.502 230.867 230.867C229.502 232.233 227.65 233 225.719 233H182.031C180.1 233 178.248 232.233 176.883 230.867C175.517 229.502 174.75 227.65 174.75 225.719C174.75 223.788 175.517 221.936 176.883 220.57C178.248 219.205 180.1 218.438 182.031 218.438H197.437C209.035 218.438 218.438 209.035 218.438 197.438V182.031C218.438 180.1 219.205 178.248 220.57 176.883C221.936 175.517 223.788 174.75 225.719 174.75Z" fill="#9C2B23"/>
</svg>
