<svg width="24" height="24" viewBox="0 0 24 24" fill="none" xmlns="http://www.w3.org/2000/svg">
<path d="M15.25 6C15.25 7.79493 13.7949 9.25 12 9.25C10.2051 9.25 8.75 7.79493 8.75 6C8.75 4.20507 10.2051 2.75 12 2.75C13.7949 2.75 15.25 4.20507 15.25 6Z" stroke="#535353" stroke-width="1.5"/>
<path d="M18.25 17C18.25 18.0756 17.6409 19.1202 16.5138 19.9252C15.3882 20.7293 13.7947 21.25 12 21.25C10.2053 21.25 8.61181 20.7293 7.48618 19.9252C6.35911 19.1202 5.75 18.0756 5.75 17C5.75 15.9244 6.35911 14.8798 7.48618 14.0748C8.61181 13.2707 10.2053 12.75 12 12.75C13.7947 12.75 15.3882 13.2707 16.5138 14.0748C17.6409 14.8798 18.25 15.9244 18.25 17Z" stroke="#535353" stroke-width="1.5"/>
<path d="M23 6L19 10" stroke="#535353" stroke-width="1.5" stroke-linecap="round"/>
<path d="M23 10L19 6" stroke="#535353" stroke-width="1.5" stroke-linecap="round"/>
</svg>
