<svg width="27" height="27" viewBox="0 0 27 27" fill="none" xmlns="http://www.w3.org/2000/svg">
<path fill-rule="evenodd" clip-rule="evenodd" d="M3.375 7.875V19.125C3.375 20.3676 4.38236 21.375 5.625 21.375H21.375C22.6176 21.375 23.625 20.3676 23.625 19.125V7.875C23.625 6.63236 22.6176 5.625 21.375 5.625H5.625C4.38236 5.625 3.375 6.63236 3.375 7.875Z" stroke="#323232" stroke-width="1.5" stroke-linecap="round" stroke-linejoin="round"/>
<path d="M16.875 11.25H20.25" stroke="#323232" stroke-width="1.5" stroke-linecap="round"/>
<path d="M16.875 14.625H20.25" stroke="#323232" stroke-width="1.5" stroke-linecap="round"/>
<path fill-rule="evenodd" clip-rule="evenodd" d="M12.375 11.25C12.375 12.4926 11.3676 13.5 10.125 13.5C8.88236 13.5 7.875 12.4926 7.875 11.25C7.875 10.0074 8.88236 9 10.125 9C10.7217 9 11.294 9.23705 11.716 9.65901C12.1379 10.081 12.375 10.6533 12.375 11.25Z" stroke="#323232" stroke-width="1.5" stroke-linecap="round" stroke-linejoin="round"/>
<path d="M5.625 18C8.75587 14.4709 12.4335 15.5801 14.625 18" stroke="#323232" stroke-width="1.5" stroke-linecap="round"/>
</svg>
